<?xml version="1.0" encoding="UTF-8"?>
<svg id="Layer_1" data-name="Layer 1" xmlns="http://www.w3.org/2000/svg" version="1.1" viewBox="0 0 800 595.8">
  <defs>
    <style>
      .cls-1 {
        fill: #001515;
        stroke-width: 0px;
      }
    </style>
  </defs>
  <path class="cls-1" d="M619,139.6l-.4-.5c-1.9-2.8-5.8-3.4-8.6-1.5l-47.5,33.3c-2.8,1.9-3.4,5.8-1.5,8.6l.4.5c1.9,2.8,5.8,3.4,8.6,1.5l47.5-33.3c2.8-1.9,3.4-5.8,1.5-8.6h0ZM744.4,327.3l-25.8,120.2c-6.4,29.9-20.8,52.7-41.3,68.4-14.2,10.8-31.1,18-50.2,21.6l16.9,36.2c3.6,7.8.3,17.1-7.6,20.8s-17.1.3-20.8-7.6l-21.9-46.8H219.5l-21.9,46.8c-3.6,7.8-12.9,11.2-20.8,7.6s-11.2-12.9-7.6-20.8l15.9-34.2c-24.4-2.1-44.4-9.9-60.5-23.3-18.8-15.6-31.7-38.3-39.4-67.9l-31.7-120.9h-24.8c-7.9,0-15.1-3.3-20.3-8.4h0c0,0,0,0,0,0-5.2-5.3-8.4-12.4-8.4-20.4v-26.2c0-7.9,3.3-15.1,8.4-20.4.4-.4.8-.8,1.3-1.1,5.1-4.6,11.8-7.3,19.1-7.3h3.8c1.1-11.4,5.4-22.1,12.2-31.5,6.9-9.6,16.4-17.8,27.2-23.5,10.9-5.7,23.2-8.9,35.7-8.5,10.9.4,21.8,3.4,31.9,9.8,4.4-6.4,9.8-12.1,16.1-16.8,12.3-9.2,27.6-14.7,44.2-14.7s26.6,3.8,37.6,10.3c8.6,5.1,15.9,11.9,21.7,19.9,17.5,1.4,33.2,8.8,45,20.2,9.7,9.4,16.7,21.4,19.8,34.8h420.6V88.2c-9.1-44.8-35-57-69.6-52.1,15.6,27.1,13.6,54.7-8.5,82.9,2.8,4.6,2.6,9.6-.5,14.9l-6.9,7.9c-2.8,2.8-6.2,3.1-10.6-.5l-105.7-106.8c-2.9-3.4-2.3-6.4,1.1-9.1,7.5-9.2,8.4-10.8,21.8-8.5,29.6-19.3,57.9-22.7,84.4-7.4,66.7-27.4,123.5,7,131.2,77.1h0v158.6c3.9,1.4,7.4,3.8,10.3,6.6,5.2,5.2,8.4,12.4,8.4,20.4v26.2c0,7.9-3.3,15.1-8.4,20.4-5.2,5.2-12.4,8.4-20.3,8.4h-26.8ZM559.2,88.2l-.4-.5c-1.9-2.8-5.8-3.4-8.6-1.5l-47.5,33.3c-2.8,1.9-3.4,5.8-1.5,8.6l.4.5c1.9,2.8,5.8,3.4,8.6,1.5l47.5-33.3c2.8-1.9,3.4-5.8,1.5-8.6h0ZM531.9,60.7l-.4-.5c-1.9-2.8-5.8-3.4-8.6-1.5l-47.5,33.3c-2.8,1.9-3.4,5.8-1.5,8.6l.4.5c1.9,2.8,5.8,3.4,8.6,1.5l47.5-33.3c2.8-1.9,3.4-5.8,1.5-8.6h0ZM586.5,114.8l-.4-.5c-1.9-2.8-5.8-3.4-8.6-1.5l-47.5,33.3c-2.8,1.9-3.4,5.8-1.5,8.6l.4.5c1.9,2.8,5.8,3.4,8.6,1.5l47.6-33.3c2.7-1.9,3.4-5.8,1.4-8.6h0ZM64.4,243.4h226.7c-2-4.6-4.9-8.8-8.6-12.2-7.4-7.2-17.8-11.6-29.2-11.6s.1,0-1.1,0h-1.1c-5.9.3-11.7-2.8-14.6-8.3-3.4-6.4-8.6-11.9-15.1-15.7-6.3-3.7-13.7-5.9-21.6-5.9s-18.5,3.1-25.4,8.3c-6.9,5.3-12.1,12.6-14.4,21-.8,3.2-2.6,6.2-5.3,8.4-6.7,5.4-16.6,4.4-22-2.3-7.7-9.4-17-13.6-26-13.9-6.9-.3-13.9,1.6-20.2,4.9-6.4,3.4-12,8.3-16.2,14-2.9,4.1-5.1,8.6-6,13.3h0ZM53.2,274.8c-2.5.6-5,.6-7.4,0h-14.4v21h737.2v-21H53.2ZM85.9,327.3l29.6,113c6,23,15.5,40.3,29.1,51.6,13.3,11.1,31.3,16.7,54.6,16.7h398.7c24.1,0,44.7-5.9,60.1-17.6,14.6-11.1,25-27.8,29.7-50l24.4-113.7H85.9Z"/>
</svg>