<?xml version="1.0" encoding="UTF-8"?>
<svg id="Layer_1" data-name="Layer 1" xmlns="http://www.w3.org/2000/svg" version="1.1" viewBox="0 0 800 640">
  <defs>
    <style>
      .cls-1 {
        fill: #001515;
        stroke-width: 0px;
      }
    </style>
  </defs>
  <path class="cls-1" d="M80,0c-26.3,0-48,21.7-48,48v243c0,1,.2,2,.5,3v.5c-7.2,11.3-13.1,23.4-17.5,36.5-9.9,29.3-14.2,62.9-15,101v208h112v-64c0-13.3,3.2-20.2,7.5-24.5s11.2-7.5,24.5-7.5h512c13.3,0,20.2,3.2,24.5,7.5s7.5,11.2,7.5,24.5v64h112v-189.5c0-.8,0-1.7,0-2.5,0-5.5.1-10.7,0-16-.8-38.1-5.1-71.7-15-101-4.4-13-10.4-24.8-17.5-36,.3-1.3.5-2.6.5-4V48c0-26.3-21.7-48-48-48H80ZM80,32h640c9,0,16,7,16,16v210.5c-3.9-3.3-8.1-6.5-12.5-9.5-10.7-7.4-22.3-14.2-35.5-20v-69c0-11.2-7.4-20-15.5-25.5s-18.1-9.3-30.5-12.5c-24.9-6.4-59.8-10-106-10s-81.1,3.6-106,10c-12.1,3.1-22,6.7-30,12-8-5.3-17.9-8.9-30-12-24.9-6.4-59.8-10-106-10s-81.1,3.6-106,10c-12.4,3.2-22.4,7-30.5,12.5-8.1,5.5-15.5,14.2-15.5,25.5v69c-13.2,5.8-24.8,12.6-35.5,20-4.4,3-8.6,6.2-12.5,9.5V48c0-9,7-16,16-16ZM264,144c44.5,0,77.5,3.8,98,9s17.3,5.8,20.5,8c1.3.9,1.4,1,1.5,1v30c-105.2.7-183.1,8.6-240,26v-56c.1,0,.2-.1,1.5-1,3.2-2.2,10.2-5.4,20.5-8,20.5-5.2,53.5-9,98-9ZM536,144c44.5,0,77.5,3.8,98,9s17.3,5.8,20.5,8c1.3.9,1.4,1,1.5,1v56c-56.9-17.4-134.8-25.3-240-26v-30c.1,0,.2-.1,1.5-1,3.2-2.2,10.2-5.4,20.5-8,20.5-5.2,53.5-9,98-9ZM397,224c1.7.2,3.3.2,5,0h1.5c160.1.2,252.6,17,302,51,24.9,17.1,39.9,38.4,49.5,66.5,8.3,24.5,11.7,54.7,12.5,90.5H32.5c.8-35.8,4.2-66,12.5-90.5,9.6-28.1,24.6-49.4,49.5-66.5,49.4-34.1,142.1-50.8,302.5-51ZM32,464h736v144h-48v-32c0-18.7-4.8-35.8-16.5-47.5s-28.8-16.5-47.5-16.5H144c-18.7,0-35.8,4.8-47.5,16.5s-16.5,28.8-16.5,47.5v32h-48v-144Z"/>
</svg>