<?xml version="1.0" encoding="UTF-8" standalone="no"?>
<!-- Created with Inkscape (http://www.inkscape.org/) -->

<svg
   xmlns:dc="http://purl.org/dc/elements/1.1/"
   xmlns:cc="http://creativecommons.org/ns#"
   xmlns:rdf="http://www.w3.org/1999/02/22-rdf-syntax-ns#"
   xmlns:svg="http://www.w3.org/2000/svg"
   xmlns="http://www.w3.org/2000/svg"
   xmlns:sodipodi="http://sodipodi.sourceforge.net/DTD/sodipodi-0.dtd"
   xmlns:inkscape="http://www.inkscape.org/namespaces/inkscape"
   width="158.75mm"
   height="41.957161mm"
   viewBox="0 0 158.75 41.957161"
   version="1.1"
   id="svg19978"
   inkscape:version="0.92.1 r15371"
   sodipodi:docname="The National (ae) (2020-01-12).svg">
  <defs
     id="defs19972" />
  <sodipodi:namedview
     id="base"
     pagecolor="#ffffff"
     bordercolor="#666666"
     borderopacity="1.0"
     inkscape:pageopacity="0.0"
     inkscape:pageshadow="2"
     inkscape:zoom="1.4189276"
     inkscape:cx="284.31218"
     inkscape:cy="67.13247"
     inkscape:document-units="mm"
     inkscape:current-layer="svg19978"
     showgrid="false"
     fit-margin-top="0"
     fit-margin-left="0"
     fit-margin-right="0"
     fit-margin-bottom="0"
     inkscape:window-width="1920"
     inkscape:window-height="1001"
     inkscape:window-x="-9"
     inkscape:window-y="-9"
     inkscape:window-maximized="1" />
  <metadata
     id="metadata19975">
    <rdf:RDF>
      <cc:Work
         rdf:about="">
        <dc:format>image/svg+xml</dc:format>
        <dc:type
           rdf:resource="http://purl.org/dc/dcmitype/StillImage" />
        <dc:title></dc:title>
      </cc:Work>
    </rdf:RDF>
  </metadata>
  <path
     inkscape:connector-curvature="0"
     id="path874"
     d="M 41.61841,41.60301 V 0 H 29.91982 v 6.50132 h 5.19726 v 28.57431 h -5.19726 v 6.52738 z M 11.71517,6.50132 V 0 H 0 V 41.60301 H 11.71517 V 35.07563 H 6.50606 V 6.50132 Z m 0,0"
     style="fill:#1c385e;fill-opacity:1;fill-rule:nonzero;stroke:none;stroke-width:0.30321342" />
  <path
     inkscape:connector-curvature="0"
     id="path876"
     d="M 27.32,41.60301 27.313,33.80829 14.31627,20.82697 V 41.60065 Z M 14.31617,7.79353 27.3129,20.77486 V 0 H 14.31617 Z m 0,0"
     style="fill:#8291bd;fill-opacity:1;fill-rule:nonzero;stroke:none;stroke-width:0.30321342" />
  <path
     inkscape:connector-curvature="0"
     id="path878"
     d="M 68.54163,41.60775 V 22.08957 h -5.1949 V 34.5 L 57.34287,22.08957 h -6.91824 v 19.51818 h 5.1949 V 29.17007 l 5.9778,12.43768 z m 10.73802,-9.1805 c -6.13889,0.43114 -9.58439,1.80388 -9.58439,5.19608 0,2.58442 2.36886,4.33383 5.16884,4.33383 2.04669,0 3.8494,-0.61946 4.92604,-2.23383 v 1.88442 h 5.00776 c -0.13503,-1.18442 -0.26887,-2.90777 -0.26887,-4.38831 v -1.42723 l 0.026,-2.77274 c 0.0817,-4.84549 -2.88053,-6.40657 -7.05327,-6.40657 -4.7377,0 -7.24159,2.63772 -7.45715,5.35717 h 4.63111 c 0.18833,-1.26498 1.07664,-1.85719 2.44939,-1.85719 1.15837,0 2.15448,0.32217 2.15448,1.91048 z m 0.18832,3.12334 c 0,2.23383 -1.21167,2.79999 -2.58442,2.79999 -1.26615,0 -1.77664,-0.7 -1.77664,-1.31945 0,-1.26498 1.48053,-1.72335 4.36106,-1.91167 z m 8.01739,-8.42602 h -2.90658 v 3.3922 h 2.90658 v 6.72992 c 0,3.98441 1.3467,4.36106 5.35717,4.36106 h 3.71555 v -3.63501 h -2.6389 c -0.72606,0 -1.04941,-0.16108 -1.04941,-0.9961 v -6.45987 h 3.68831 v -3.3922 h -3.68831 v -3.98441 h -5.38441 z m 10.199111,14.48318 h 5.384409 V 27.12457 h -5.384409 z m 0,-15.69485 h 5.384409 v -3.82215 h -5.384409 z m 14.183519,4.79219 c 1.37275,0 2.42215,0.94162 2.42215,3.63383 0,2.69221 -1.0494,3.60777 -2.42215,3.60777 -1.37394,0 -2.42334,-0.91556 -2.42334,-3.60777 0,-2.69221 1.0494,-3.63383 2.42334,-3.63383 m 0,11.25207 c 4.27934,0 7.96764,-2.52994 7.96764,-7.61824 0,-5.06106 -3.6883,-7.64548 -7.96764,-7.64548 -4.33501,0 -7.96883,2.58442 -7.96883,7.64548 0,5.0883 3.63382,7.61824 7.96883,7.61824 m 14.18234,-14.83259 h -5.38442 v 14.48318 h 5.38442 v -7.59218 c 0,-2.12605 0.86107,-2.90777 2.18052,-2.90777 1.58832,0 1.74941,1.29339 1.74941,2.50388 v 7.99607 h 5.3844 v -9.07272 c 0,-3.52604 -1.21049,-5.73381 -4.81825,-5.73381 -2.01944,0 -3.49998,0.72724 -4.49608,2.20777 z m 20.16013,5.30268 c -6.13889,0.43114 -9.58438,1.80388 -9.58438,5.19608 0,2.58442 2.36885,4.33383 5.16884,4.33383 2.0455,0 3.84938,-0.61946 4.92603,-2.23383 v 1.88442 h 5.00777 c -0.13503,-1.18442 -0.26887,-2.90777 -0.26887,-4.38831 v -1.42723 l 0.026,-2.77274 c 0.0817,-4.84549 -2.88053,-6.40657 -7.05326,-6.40657 -4.73772,0 -7.2416,2.63772 -7.45598,5.35717 h 4.62992 c 0.18833,-1.26498 1.07666,-1.85719 2.44941,-1.85719 1.15836,0 2.15447,0.32217 2.15447,1.91048 z m 0.18832,3.12334 c 0,2.23383 -1.21166,2.79999 -2.58442,2.79999 -1.26615,0 -1.77663,-0.7 -1.77663,-1.31945 0,-1.26498 1.48053,-1.72335 4.36105,-1.91167 z M 158.75,22.08957 h -5.38323 V 41.60775 H 158.75 Z m 0,0"
     style="fill:#1c385e;fill-opacity:1;fill-rule:nonzero;stroke:none;stroke-width:0.30321342" />
  <path
     inkscape:connector-curvature="0"
     id="path880"
     d="m 50.50991,19.53239 h 5.62603 V 4.83364 h 5.84159 V 0.01539 H 44.69437 v 4.81825 h 5.81554 z m 17.7368,-19.517 H 62.8623 v 19.517 h 5.38441 v -7.56493 c 0,-2.12605 0.86107,-2.90659 2.17934,-2.90659 1.58951,0 1.75059,1.29102 1.75059,2.5027 v 7.96882 h 5.3844 v -9.07153 c 0,-3.52722 -1.21166,-5.735 -4.81943,-5.735 -2.01826,0 -3.4988,0.72724 -4.4949,2.20778 z m 18.51734,19.89365 c 4.52214,0 6.94548,-3.12215 7.59099,-5.24938 h -5.06106 c -0.32334,0.78054 -1.39999,1.29221 -2.44939,1.29221 -1.6961,0 -2.71944,-0.94162 -2.90777,-2.42216 h 10.44547 c 0.3494,-5.035 -2.8,-9.01941 -7.86105,-9.01941 -4.3883,0 -7.80656,2.96225 -7.80656,7.59217 0,4.54939 2.93383,7.80657 8.04937,7.80657 M 86.87065,8.1986 c 1.15837,0 2.61166,0.61946 2.74668,2.3428 H 84.01736 C 84.36795,8.81806 85.7407,8.1986 86.87065,8.1986"
     style="fill:#1c385e;fill-opacity:1;fill-rule:nonzero;stroke:none;stroke-width:0.30321342" />
</svg>
