<?xml version="1.0" standalone="no"?>
<!DOCTYPE svg PUBLIC "-//W3C//DTD SVG 1.1//EN" "http://www.w3.org/Graphics/SVG/1.1/DTD/svg11.dtd" >
<svg xmlns="http://www.w3.org/2000/svg" xmlns:xlink="http://www.w3.org/1999/xlink" version="1.1">
<metadata>
Created by FontForge 20201107 at Fri May 13 12:38:51 2022
 By 
Copyright (c) 2022 by Type Forward. All rights reserved.
</metadata>
<defs>
<font id="Garet-Book" horiz-adv-x="0" >
  <font-face 
    font-family="Garet Book"
    font-weight="300"
    font-stretch="normal"
    units-per-em="1000"
    panose-1="0 0 0 0 0 0 0 0 0 0"
    ascent="800"
    descent="-200"
    x-height="517"
    cap-height="700"
    bbox="-144 -324 1401 961"
    underline-thickness="50"
    underline-position="-125"
    unicode-range="U+000D-FB02"
  />
<missing-glyph horiz-adv-x="886" 
d="M252.5 35q-83.5 46 -129.5 128t-46 186t46 186t129.5 128t190.5 46t190 -46t129.5 -128t46.5 -186q0 -103 -46.5 -185t-130 -128.5t-189.5 -46.5q-107 0 -190.5 46zM348 447q2 41 30.5 64.5t75.5 23.5t74 -22t27 -61q0 -30 -15.5 -50.5t-52.5 -43.5q-40 -22 -56 -46.5
t-16 -62.5v-21h56v16q0 24 9.5 41t43.5 38q46 28 67 58.5t21 70.5q0 61 -43.5 97.5t-114.5 36.5q-72 0 -115 -37t-47 -102h56zM412 94q12 -12 31 -12t31.5 12t12.5 31q0 18 -12.5 30.5t-31.5 12.5t-31 -12.5t-12 -30.5q0 -19 12 -31z" />
    <glyph glyph-name="fi" unicode="fi" horiz-adv-x="698" 
d="M537 464h-326v-464h-58v464h-118v53h118v60q0 176 176 176h75v-55h-70q-65 0 -94 -29.5t-29 -95.5v-56h384v-517h-58v464zM527 701q15 15 39 15q23 0 38 -15t15 -37q0 -23 -15 -38t-38 -15q-24 0 -39 15t-15 38q0 22 15 37z" />
    <glyph glyph-name="fl" unicode="fl" horiz-adv-x="682" 
d="M329 753h250v-753h-58v698h-187q-65 0 -94 -29.5t-29 -95.5v-56h191v-53h-191v-464h-58v464h-118v53h118v60q0 176 176 176z" />
    <glyph glyph-name="f_f.liga" unicode="ff" horiz-adv-x="800" 
d="M712 753h78v-55h-73q-65 0 -94 -29.5t-29 -95.5v-56h191v-53h-191v-464h-58v464h-325v-464h-58v464h-118v53h118v60q0 176 176 176h78v-55h-73q-65 0 -94 -29.5t-29 -95.5v-56h325v60q0 176 176 176z" />
    <glyph glyph-name="f_f_i.liga" unicode="ffi" horiz-adv-x="1081" 
d="M920 464h-326v-464h-58v464h-325v-464h-58v464h-118v53h118v60q0 176 176 176h78v-55h-73q-65 0 -94 -29.5t-29 -95.5v-56h325v60q0 176 176 176h75v-55h-70q-65 0 -94 -29.5t-29 -95.5v-56h384v-517h-58v464zM910.5 701q14.5 15 38.5 15t38.5 -15t14.5 -37
q0 -23 -14.5 -38t-38.5 -15t-38.5 15t-14.5 38q0 22 14.5 37z" />
    <glyph glyph-name="f_f_iogonek.liga" unicode="ff&#x12f;" horiz-adv-x="1081" 
d="M329 753h78v-55h-73q-65 0 -94 -29.5t-29 -95.5v-56h325v60q0 176 176 176h75v-55h-70q-65 0 -94 -29.5t-29 -95.5v-56h384v-517q-67 -45 -67 -100q0 -45 57 -45h31v-46h-37q-48 0 -74 21t-26 60q0 60 58 111v463h-326v-464h-58v464h-325v-464h-58v464h-118v53h118v60
q0 176 176 176zM910.5 701q14.5 15 38.5 15t38.5 -15t14.5 -37q0 -23 -14.5 -38t-38.5 -15t-38.5 15t-14.5 38q0 22 14.5 37z" />
    <glyph glyph-name="f_f_j.liga" unicode="ffj" horiz-adv-x="1081" 
d="M771 -148h50q55 0 77 23.5t22 86.5v502h-326v-464h-58v464h-325v-464h-58v464h-118v53h118v61q0 175 176 175h78v-54h-73q-64 0 -93.5 -30t-29.5 -95v-57h325v61q0 175 176 175h75v-54h-70q-64 0 -93.5 -30t-29.5 -95v-57h384v-556q0 -87 -35 -125.5t-119 -38.5h-53v55z
M910.5 701q14.5 15 38.5 15t38.5 -15t14.5 -37q0 -23 -14.5 -38t-38.5 -15t-38.5 15t-14.5 38q0 22 14.5 37z" />
    <glyph glyph-name="f_f_l.liga" unicode="ffl" horiz-adv-x="1065" 
d="M712 753h250v-753h-58v698h-187q-65 0 -94 -29.5t-29 -95.5v-56h191v-53h-191v-464h-58v464h-325v-464h-58v464h-118v53h118v60q0 176 176 176h78v-55h-73q-65 0 -94 -29.5t-29 -95.5v-56h325v60q0 176 176 176z" />
    <glyph glyph-name="uni00660066013C.liga" unicode="ff&#x13c;" horiz-adv-x="1065" 
d="M712 753h250v-753h-58v698h-187q-65 0 -94 -29.5t-29 -95.5v-56h191v-53h-191v-464h-58v464h-325v-464h-58v464h-118v53h118v60q0 176 176 176h78v-55h-73q-65 0 -94 -29.5t-29 -95.5v-56h325v60q0 176 176 176zM896.5 -83q13.5 13 34.5 13q28 0 44.5 -21t16.5 -56
q0 -48 -24.5 -86t-61.5 -46v34q23 11 35.5 36t10.5 54q-12 -6 -25 -6q-19 0 -31.5 13t-12.5 32q0 20 13.5 33z" />
    <glyph glyph-name="f_f_t.liga" unicode="fft" horiz-adv-x="1213" 
d="M960 46.5q-43 46.5 -43 137.5v280h-323v-464h-58v464h-325v-464h-58v464h-118v53h118v60q0 176 176 176h78v-55h-73q-65 0 -94 -29.5t-29 -95.5v-56h325v60q0 176 176 176h78v-55h-73q-65 0 -94 -29.5t-29 -95.5v-56h277q29 0 39.5 9.5t13.5 38.5l5 79h46v-127h179v-53
h-179v-278q0 -68 27.5 -99t86.5 -31h72v-56h-74q-84 0 -127 46.5z" />
    <glyph glyph-name="f_f_tcaron.liga" unicode="ff&#x165;" horiz-adv-x="1213" 
d="M960 46.5q-43 46.5 -43 137.5v280h-323v-464h-58v464h-325v-464h-58v464h-118v53h118v60q0 176 176 176h78v-55h-73q-65 0 -94 -29.5t-29 -95.5v-56h325v60q0 176 176 176h78v-55h-73q-65 0 -94 -29.5t-29 -95.5v-56h277q29 0 39.5 9.5t13.5 38.5l5 79h46v-127h179v-53
h-179v-278q0 -68 27.5 -99t86.5 -31h72v-56h-74q-84 0 -127 46.5zM1100 740h54l-27 -170h-49z" />
    <glyph glyph-name="uni006600660163.liga" unicode="ff&#x163;" horiz-adv-x="1213" 
d="M1082 0l-24 -63q44 -3 69.5 -26.5t25.5 -63.5q0 -42 -28 -65.5t-77 -23.5h-57v44h53q29 0 44 12.5t15 35.5t-15.5 35t-43.5 12h-31l-7 11l34 96q-61 12 -92 57.5t-31 122.5v280h-323v-464h-58v464h-325v-464h-58v464h-118v53h118v60q0 176 176 176h78v-55h-73
q-65 0 -94 -29.5t-29 -95.5v-56h325v60q0 176 176 176h78v-55h-73q-65 0 -94 -29.5t-29 -95.5v-56h277q29 0 39.5 9.5t13.5 38.5l5 79h46v-127h179v-53h-179v-278q0 -68 27.5 -99t86.5 -31h72v-56h-74h-5z" />
    <glyph glyph-name="uni00660066021B.liga" unicode="ff&#x21b;" horiz-adv-x="1213" 
d="M960 46.5q-43 46.5 -43 137.5v280h-323v-464h-58v464h-325v-464h-58v464h-118v53h118v60q0 176 176 176h78v-55h-73q-65 0 -94 -29.5t-29 -95.5v-56h325v60q0 176 176 176h78v-55h-73q-65 0 -94 -29.5t-29 -95.5v-56h277q29 0 39.5 9.5t13.5 38.5l5 79h46v-127h179v-53
h-179v-278q0 -68 27.5 -99t86.5 -31h72v-56h-74q-84 0 -127 46.5zM1014.5 -83q13.5 13 35.5 13q27 0 44 -21t17 -56q0 -48 -25 -86t-61 -46v34q23 11 35.5 36t9.5 54q-12 -6 -24 -6q-19 0 -32 12.5t-13 32.5t13.5 33z" />
    <glyph glyph-name="f_iogonek.liga" unicode="f&#x12f;" horiz-adv-x="698" 
d="M329 753h75v-55h-70q-65 0 -94 -29.5t-29 -95.5v-56h384v-517q-67 -44 -67 -100q0 -45 56 -45h32v-46h-37q-48 0 -74.5 21t-26.5 60q0 59 59 111v463h-326v-464h-58v464h-118v53h118v60q0 176 176 176zM527 701q15 15 39 15q23 0 38 -15t15 -37q0 -23 -15 -38t-38 -15
q-24 0 -39 15t-15 38q0 22 15 37z" />
    <glyph glyph-name="f_j.liga" unicode="fj" horiz-adv-x="698" 
d="M388 -148h50q55 0 77 23.5t22 86.5v502h-326v-464h-58v464h-118v53h118v60q0 176 176 176h75v-55h-70q-65 0 -94 -29.5t-29 -95.5v-56h384v-556q0 -87 -35 -125.5t-119 -38.5h-53v55zM527 701q15 15 39 15q23 0 38 -15t15 -37q0 -23 -15 -38t-38 -15q-24 0 -39 15t-15 38
q0 22 15 37z" />
    <glyph glyph-name="uni0066013C.liga" unicode="f&#x13c;" horiz-adv-x="682" 
d="M329 753h250v-753h-58v698h-187q-65 0 -94 -29.5t-29 -95.5v-56h191v-53h-191v-464h-58v464h-118v53h118v60q0 176 176 176zM513.5 -83q13.5 13 34.5 13q27 0 44 -21t17 -56q0 -48 -24.5 -86t-61.5 -46v34q23 11 35.5 36t10.5 54q-12 -6 -25 -6q-19 0 -31.5 13t-12.5 32
q0 20 13.5 33z" />
    <glyph glyph-name="f_t.liga" unicode="ft" horiz-adv-x="807" 
d="M511 184v280h-300v-464h-58v464h-118v53h118v60q0 176 176 176h78v-55h-73q-65 0 -94 -29.5t-29 -95.5v-56h253q29 0 40 9.5t14 38.5l5 79h46v-127h179v-53h-179v-278q0 -67 27 -98.5t86 -31.5h73v-56h-75q-169 0 -169 184z" />
    <glyph glyph-name="f_tcaron.liga" unicode="f&#x165;" horiz-adv-x="806" 
d="M511 184v280h-300v-464h-58v464h-118v53h118v60q0 176 176 176h78v-55h-73q-65 0 -94 -29.5t-29 -95.5v-56h253q29 0 40 9.5t14 38.5l5 79h46v-127h179v-53h-179v-278q0 -67 27 -98.5t86 -31.5h73v-56h-75q-169 0 -169 184zM693 740h54l-27 -170h-49z" />
    <glyph glyph-name="uni00660163.liga" unicode="f&#x163;" horiz-adv-x="807" 
d="M675 0l-23 -63q44 -3 69 -27t25 -63q0 -42 -28 -65.5t-76 -23.5h-58v44h53q29 0 44.5 12.5t15.5 35.5q0 22 -15.5 34.5t-44.5 12.5h-30l-8 11l34 96q-122 24 -122 180v280h-300v-464h-58v464h-118v53h118v60q0 176 176 176h78v-55h-73q-65 0 -94 -29.5t-29 -95.5v-56h253
q29 0 40 9.5t14 38.5l5 79h46v-127h179v-53h-179v-278q0 -67 27 -98.5t86 -31.5h73v-56h-75h-5z" />
    <glyph glyph-name="uni0066021B.liga" unicode="f&#x21b;" horiz-adv-x="807" 
d="M511 184v280h-300v-464h-58v464h-118v53h118v60q0 176 176 176h78v-55h-73q-65 0 -94 -29.5t-29 -95.5v-56h253q29 0 40 9.5t14 38.5l5 79h46v-127h179v-53h-179v-278q0 -67 27 -98.5t86 -31.5h73v-56h-75q-169 0 -169 184zM608.5 -83q13.5 13 34.5 13q27 0 44 -21
t17 -56q0 -48 -24.5 -86t-61.5 -46v34q23 11 35.5 36t10.5 54q-12 -6 -25 -6q-19 0 -31.5 13t-12.5 32q0 20 13.5 33z" />
    <glyph glyph-name=".notdef" horiz-adv-x="886" 
d="M252.5 35q-83.5 46 -129.5 128t-46 186t46 186t129.5 128t190.5 46t190 -46t129.5 -128t46.5 -186q0 -103 -46.5 -185t-130 -128.5t-189.5 -46.5q-107 0 -190.5 46zM348 447q2 41 30.5 64.5t75.5 23.5t74 -22t27 -61q0 -30 -15.5 -50.5t-52.5 -43.5q-40 -22 -56 -46.5
t-16 -62.5v-21h56v16q0 24 9.5 41t43.5 38q46 28 67 58.5t21 70.5q0 61 -43.5 97.5t-114.5 36.5q-72 0 -115 -37t-47 -102h56zM412 94q12 -12 31 -12t31.5 12t12.5 31q0 18 -12.5 30.5t-31.5 12.5t-31 -12.5t-12 -30.5q0 -19 12 -31z" />
    <glyph glyph-name=".null" 
 />
    <glyph glyph-name="nonmarkingreturn" unicode="&#xd;" horiz-adv-x="268" 
 />
    <glyph glyph-name="space" unicode=" " horiz-adv-x="268" 
 />
    <glyph glyph-name="exclam" unicode="!" horiz-adv-x="311" 
d="M123 700h65l-2 -508h-61zM117 83.5q15 14.5 39 14.5q23 0 38 -14.5t15 -37.5t-15 -37.5t-38 -14.5q-24 0 -39 14.5t-15 37.5t15 37.5z" />
    <glyph glyph-name="quotedbl" unicode="&#x22;" horiz-adv-x="379" 
d="M82 700h55l-2 -243h-51zM242 700h55l-2 -243h-51z" />
    <glyph glyph-name="numbersign" unicode="#" horiz-adv-x="739" 
d="M463 176h-261l-37 -176h-56l37 176h-108v53h119l53 248h-143v53h154l36 170h56l-36 -170h261l36 170h57l-36 -170h106v-53h-117l-53 -248h140v-53h-151l-37 -176h-57zM475 229l52 248h-261l-52 -248h261z" />
    <glyph glyph-name="dollar" unicode="$" horiz-adv-x="657" 
d="M300 -11q-103 9 -164.5 67.5t-65.5 151.5h60q4 -77 60 -120t148 -43q86 0 136 35.5t50 96.5q0 56 -46.5 90t-151.5 57q-129 29 -187 76.5t-58 125.5q0 82 59 131.5t160 54.5v103h59v-104q99 -9 155 -64t60 -147h-60q-4 74 -54.5 114.5t-138.5 40.5q-83 0 -131 -34.5
t-48 -94.5q0 -53 45.5 -86.5t153.5 -58.5q130 -31 187.5 -78.5t57.5 -124.5q0 -84 -61 -135t-166 -56v-106h-59v108z" />
    <glyph glyph-name="percent" unicode="%" horiz-adv-x="843" 
d="M604 700h64l-429 -700h-65zM96.5 669.5q42.5 41.5 106.5 41.5t106 -41.5t42 -104.5q0 -64 -41.5 -105t-106.5 -41t-107 41t-42 105q0 63 42.5 104.5zM134 496q27 -27 69 -27t68.5 27t26.5 69q0 41 -26.5 68t-68.5 27t-69 -27t-27 -68q0 -42 27 -69zM533 240q42 41 107 41
t107 -41t42 -105q0 -63 -42.5 -104.5t-106.5 -41.5t-106.5 41.5t-42.5 104.5q0 64 42 105zM571.5 67q27.5 -27 68.5 -27q42 0 69 27t27 68q0 42 -27 69t-69 27q-41 0 -68.5 -27t-27.5 -69q0 -41 27.5 -68z" />
    <glyph glyph-name="ampersand" unicode="&#x26;" horiz-adv-x="694" 
d="M120.5 36q-61.5 49 -61.5 134q0 128 154 198q-49 54 -73 97.5t-24 88.5q0 71 54 115t141 44q58 0 102.5 -20.5t69 -58t24.5 -85.5q0 -65 -47.5 -114t-147.5 -87l189 -194q43 73 44 185h58q-2 -141 -60 -228l109 -111h-78l-66 68q-81 -81 -219 -81q-107 0 -168.5 49z
M163.5 77q46.5 -34 126.5 -34q112 0 176 66l-212 217q-137 -57 -137 -155q0 -60 46.5 -94zM195.5 483.5q22.5 -37.5 75.5 -93.5q96 37 137.5 73.5t41.5 85.5q0 50 -37.5 80t-101.5 30q-63 0 -100.5 -28.5t-37.5 -76.5q0 -33 22.5 -70.5z" />
    <glyph glyph-name="quotesingle" unicode="'" horiz-adv-x="220" 
d="M82 700h55l-2 -243h-51z" />
    <glyph glyph-name="parenleft" unicode="(" horiz-adv-x="412" 
d="M134 299q0 235 154 451h70q-163 -222 -163 -451q0 -112 40.5 -225.5t122.5 -224.5h-70q-154 214 -154 450z" />
    <glyph glyph-name="parenright" unicode=")" horiz-adv-x="412" 
d="M278 300q0 -235 -154 -451h-70q163 222 163 451q0 112 -40.5 225.5t-122.5 224.5h70q154 -214 154 -450z" />
    <glyph glyph-name="asterisk" unicode="*" horiz-adv-x="480" 
d="M213 519l-113 -65l-28 49l113 63l-113 63l28 49l113 -65l-1 127h56l-1 -127l112 65l28 -49l-112 -63l112 -63l-28 -49l-112 65l1 -127h-56z" />
    <glyph glyph-name="plus" unicode="+" horiz-adv-x="576" 
d="M93 356h169v173h53v-173h169v-54h-169v-173h-53v173h-169v54z" />
    <glyph glyph-name="comma" unicode="," horiz-adv-x="260" 
d="M134.5 -57.5q13.5 26.5 11.5 58.5q-13 -6 -27 -6q-22 0 -36.5 14.5t-14.5 36.5t15.5 37t39.5 15q31 0 50 -23.5t19 -63.5q0 -54 -28 -95.5t-69 -50.5v39q26 12 39.5 38.5z" />
    <glyph glyph-name="hyphen" unicode="-" horiz-adv-x="455" 
d="M80 281h295v-54h-295v54z" />
    <glyph glyph-name="period" unicode="." horiz-adv-x="242" 
d="M82.5 8.5q-14.5 14.5 -14.5 37.5t14.5 37.5t38.5 14.5t38.5 -14.5t14.5 -37.5t-14.5 -37.5t-38.5 -14.5t-38.5 14.5z" />
    <glyph glyph-name="slash" unicode="/" horiz-adv-x="497" 
d="M354 764h59l-270 -828h-58z" />
    <glyph glyph-name="zero" unicode="0" horiz-adv-x="697" 
d="M203 31q-62 44 -95.5 126t-33.5 193t33.5 193t95.5 126t146 44t146 -44t95 -126t33 -193t-33 -193t-95 -126t-146 -44t-146 44zM161 188.5q26 -68.5 74 -105.5t114 -37t114 37t74 105.5t26 161.5q0 142 -57 223t-157 81t-157 -81t-57 -223q0 -93 26 -161.5z" />
    <glyph glyph-name="one" unicode="1" horiz-adv-x="375" 
d="M202 529h-161v57h93q38 0 52.5 11t19.5 42l7 61h49v-700h-60v529z" />
    <glyph glyph-name="two" unicode="2" horiz-adv-x="647" 
d="M81 46l297 274q56 52 82 95.5t26 90.5q0 68 -46 110.5t-119 42.5q-75 0 -122.5 -46.5t-50.5 -124.5h-57q2 67 31.5 118t80.5 79t117 28q65 0 116 -26.5t79.5 -73.5t28.5 -107q0 -59 -31 -115t-96 -116l-238 -218h383v-57h-481v46z" />
    <glyph glyph-name="three" unicode="3" horiz-adv-x="602" 
d="M132.5 42.5q-62.5 55.5 -68.5 148.5h60q5 -66 51.5 -105.5t119.5 -39.5q79 0 126 44t47 116t-47.5 115.5t-124.5 43.5h-104v44l220 234h-334v57h424v-45l-221 -234h14q69 0 122 -27t82 -76.5t29 -113.5t-29 -113t-82 -76.5t-122 -27.5q-100 0 -162.5 55.5z" />
    <glyph glyph-name="four" unicode="4" horiz-adv-x="603" 
d="M40 206l266 494h70l-262 -485h292l4 234h56v-233h99v-58h-99v-158h-60v158h-366v48z" />
    <glyph glyph-name="five" unicode="5" horiz-adv-x="594" 
d="M136 42.5q-63 55.5 -68 148.5h59q5 -67 51.5 -106t120.5 -39q78 0 125.5 44.5t47.5 117.5t-47.5 117t-125.5 44h-209l27 331h380v-57h-325l-19 -218h146q69 0 122 -27.5t82 -77t29 -113.5q0 -65 -29 -115t-82 -77.5t-122 -27.5q-100 0 -163 55.5z" />
    <glyph glyph-name="six" unicode="6" horiz-adv-x="634" 
d="M186.5 17.5q-57.5 30.5 -89.5 84.5t-32 122q0 89 62 178l206 298h69l-180 -260q47 21 102 21q69 0 124.5 -30.5t87 -84.5t31.5 -122t-32 -122t-89.5 -84.5t-129.5 -30.5t-129.5 30.5zM147.5 129.5q24.5 -41.5 68.5 -65t100 -23.5t99.5 23.5t68 65t24.5 94.5t-24.5 95
t-68 65.5t-99.5 23.5t-100 -23.5t-68.5 -65.5t-24.5 -95t24.5 -94.5z" />
    <glyph glyph-name="seven" unicode="7" horiz-adv-x="534" 
d="M417 643h-374v57h444v-44l-286 -656h-64z" />
    <glyph glyph-name="eight" unicode="8" horiz-adv-x="625" 
d="M184 12q-56 25 -87 69.5t-31 101.5q0 60 35.5 107t97.5 69q-55 22 -86 65t-31 100q0 55 29 98t81.5 67t119.5 24q68 0 120 -24t81 -67t29 -98q0 -57 -31 -100t-86 -65q63 -23 98.5 -69.5t35.5 -106.5q0 -57 -31.5 -101.5t-87.5 -69.5t-128 -25t-128 25zM176 81
q52 -40 136 -40q85 0 137 40t52 105t-52 105t-137 40q-84 0 -136 -40t-52 -105t52 -105zM187.5 422.5q47.5 -38.5 124.5 -38.5t124.5 38t47.5 100t-47.5 100t-124.5 38t-124.5 -38.5t-47.5 -99.5t47.5 -99.5z" />
    <glyph glyph-name="nine" unicode="9" horiz-adv-x="634" 
d="M447.5 682.5q57.5 -30.5 89.5 -84.5t32 -122q0 -89 -62 -178l-206 -298h-69l180 260q-46 -21 -102 -21q-69 0 -124.5 30.5t-87 84.5t-31.5 122t32 122t89.5 84.5t129.5 30.5t129.5 -30.5zM150.5 381q24.5 -42 68 -65.5t99.5 -23.5t100 23.5t68.5 65.5t24.5 95t-24.5 94.5
t-68.5 65t-100 23.5t-99.5 -23.5t-68 -65t-24.5 -94.5t24.5 -95z" />
    <glyph glyph-name="colon" unicode=":" horiz-adv-x="242" 
d="M82.5 8.5q-14.5 14.5 -14.5 37.5t14.5 37.5t38.5 14.5t38.5 -14.5t14.5 -37.5t-14.5 -37.5t-38.5 -14.5t-38.5 14.5zM82.5 436.5q-14.5 14.5 -14.5 37.5t14.5 37.5t38.5 14.5t38.5 -14.5t14.5 -37.5t-14.5 -37.5t-38.5 -14.5t-38.5 14.5z" />
    <glyph glyph-name="semicolon" unicode=";" horiz-adv-x="260" 
d="M134.5 -57.5q13.5 26.5 11.5 58.5q-13 -6 -27 -6q-22 0 -36.5 14.5t-14.5 36.5t15.5 37t39.5 15q31 0 50 -23.5t19 -63.5q0 -54 -28 -95.5t-69 -50.5v39q26 12 39.5 38.5zM86.5 436.5q-14.5 14.5 -14.5 37.5t14.5 37.5t38.5 14.5t38.5 -14.5t14.5 -37.5t-14.5 -37.5
t-38.5 -14.5t-38.5 14.5z" />
    <glyph glyph-name="less" unicode="&#x3c;" horiz-adv-x="569" 
d="M92 299v57l384 163v-60l-309 -131l309 -132v-61z" />
    <glyph glyph-name="equal" unicode="=" horiz-adv-x="588" 
d="M93 480h402v-52h-402v52zM93 273h402v-53h-402v53z" />
    <glyph glyph-name="greater" unicode="&#x3e;" horiz-adv-x="569" 
d="M93 196l309 132l-309 131v60l384 -163v-57l-384 -164v61z" />
    <glyph glyph-name="question" unicode="?" horiz-adv-x="600" 
d="M273.5 306.5q23.5 36.5 79.5 70.5q55 35 77.5 67.5t22.5 77.5q0 62 -41.5 97.5t-115.5 35.5t-118.5 -36.5t-48.5 -100.5h-59q5 91 65 143t159 52q65 0 114.5 -23.5t76.5 -66.5t27 -99q0 -57 -30.5 -103.5t-96.5 -88.5q-45 -27 -60.5 -52t-15.5 -66v-22h-59v26
q0 52 23.5 88.5zM241 83.5q15 14.5 39 14.5q23 0 38 -14.5t15 -37.5t-15 -37.5t-38 -14.5q-24 0 -39 14.5t-15 37.5t15 37.5z" />
    <glyph glyph-name="at" unicode="@" horiz-adv-x="1059" 
d="M290 -148q-107 58 -166.5 161.5t-59.5 234.5q0 132 60.5 236t167 162t240.5 58q137 0 242.5 -59t163 -161.5t57.5 -227.5q0 -110 -43 -166t-116 -56q-47 0 -80 24.5t-47 67.5q-32 -46 -81 -70.5t-106 -24.5q-63 0 -113 28.5t-78 78.5t-28 113t28.5 113.5t78.5 79
t112 28.5q58 0 102 -25.5t71 -65.5l5 72h49v-257q0 -50 23 -79.5t64 -29.5q48 0 75 41.5t27 126.5q0 116 -50.5 205.5t-142.5 139t-213 49.5q-122 0 -214.5 -51t-143.5 -142.5t-51 -207.5q0 -117 51.5 -207.5t145.5 -140.5t216 -50q65 0 123.5 14t102.5 40v-59
q-99 -51 -226 -51q-139 0 -246 58zM381 164.5q21 -38.5 59 -60t87 -21.5q74 0 120 47t46 121q0 48 -20.5 86.5t-58.5 60.5t-87 22t-87 -22t-59 -60.5t-21 -86.5t21 -86.5z" />
    <glyph glyph-name="A" unicode="A" horiz-adv-x="683" 
d="M312 700h58l290 -700h-64l-73 176h-364l-72 -176h-65zM500 232l-159 385l-158 -385h317z" />
    <glyph glyph-name="B" unicode="B" horiz-adv-x="676" 
d="M113 700h266q97 0 154.5 -49.5t57.5 -132.5q0 -57 -28.5 -98t-79.5 -59q61 -18 94.5 -62.5t33.5 -107.5q0 -88 -59.5 -139.5t-161.5 -51.5h-277v700zM388 57q76 0 118.5 36t42.5 100q0 65 -43 100.5t-121 35.5h-211v-272h214zM377 385q72 0 112 34t40 95q0 60 -40 94.5
t-111 34.5h-204v-258h203z" />
    <glyph glyph-name="C" unicode="C" horiz-adv-x="822" 
d="M236 33.5q-81 46.5 -126.5 129t-45.5 187.5t45.5 187.5t126.5 129t183 46.5q120 0 211.5 -65t125.5 -175h-64q-30 83 -103 131t-169 48q-85 0 -152 -38t-104.5 -107t-37.5 -157t37.5 -157t104.5 -107t152 -38q99 0 174 50t104 137h64q-21 -75 -71 -131t-120 -86.5
t-152 -30.5q-102 0 -183 46.5z" />
    <glyph glyph-name="D" unicode="D" horiz-adv-x="762" 
d="M113 700h221q110 0 192.5 -43.5t127 -122.5t44.5 -184t-44.5 -184t-127 -122.5t-192.5 -43.5h-221v700zM334 58q92 0 160.5 36t105 102t36.5 154t-37 154t-105.5 102t-161.5 36h-158v-584h160z" />
    <glyph glyph-name="E" unicode="E" horiz-adv-x="609" 
d="M113 700h412v-57h-351v-258h325v-56h-325v-272h362v-57h-423v700z" />
    <glyph glyph-name="F" unicode="F" horiz-adv-x="560" 
d="M113 700h386v-57h-325v-275h299v-56h-299v-312h-61v700z" />
    <glyph glyph-name="G" unicode="G" horiz-adv-x="832" 
d="M235.5 33.5q-80.5 46.5 -126 129t-45.5 187.5t45 187.5t125.5 129t181.5 46.5q120 0 210 -63t124 -166h-66q-33 79 -102.5 123.5t-162.5 44.5q-86 0 -152.5 -38t-103.5 -106.5t-37 -157.5q0 -88 37 -157t103.5 -107t152.5 -38q80 0 143 33.5t100.5 93t43.5 135.5h-310v58
h375q1 -110 -43 -196.5t-124.5 -135.5t-185.5 -49q-102 0 -182.5 46.5z" />
    <glyph glyph-name="H" unicode="H" horiz-adv-x="758" 
d="M584 328h-410v-328h-61v700h61v-314h410v314h61v-700h-61v328z" />
    <glyph glyph-name="I" unicode="I" horiz-adv-x="287" 
d="M113 700h61v-700h-61v700z" />
    <glyph glyph-name="J" unicode="J" horiz-adv-x="479" 
d="M47 58h101q83 0 121.5 41.5t38.5 121.5v479h60v-482q0 -104 -55.5 -161t-164.5 -57h-101v58z" />
    <glyph glyph-name="K" unicode="K" horiz-adv-x="682" 
d="M113 700h61v-315h111q80 0 121 28t66 92l74 195h64l-84 -219q-17 -44 -40 -74t-56 -48l209 -359h-70l-195 337q-37 -10 -89 -10h-111v-327h-61v700z" />
    <glyph glyph-name="L" unicode="L" horiz-adv-x="563" 
d="M113 700h61v-642h355v-58h-416v700z" />
    <glyph glyph-name="M" unicode="M" horiz-adv-x="921" 
d="M113 700h57l291 -438l291 438h56v-700h-60v588l-262 -393h-50l-262 393v-588h-61v700z" />
    <glyph glyph-name="N" unicode="N" horiz-adv-x="769" 
d="M113 700h57l426 -595v595h60v-700h-57l-426 596v-596h-60v700z" />
    <glyph glyph-name="O" unicode="O" horiz-adv-x="850" 
d="M238 33q-82 46 -128 128.5t-46 188.5t46 188.5t128 128.5t187 46q106 0 188 -46t127.5 -128.5t45.5 -188.5t-45.5 -188.5t-127.5 -128.5t-188 -46q-105 0 -187 46zM164 193q38 -69 105.5 -107t155.5 -38t156 38t106 106.5t38 157.5t-38 157.5t-106 106.5t-156 38
t-155.5 -38t-105.5 -106.5t-38 -157.5q0 -88 38 -157z" />
    <glyph glyph-name="P" unicode="P" horiz-adv-x="640" 
d="M113 700h222q122 0 190 -60.5t68 -169.5t-68 -169.5t-190 -60.5h-161v-240h-61v700zM334 296q98 0 148 43.5t50 129.5t-50 129.5t-148 43.5h-160v-346h160z" />
    <glyph glyph-name="Q" unicode="Q" horiz-adv-x="850" 
d="M238 33q-82 46 -128 128.5t-46 188.5t46 188.5t128 128.5t187 46q106 0 188 -46t127.5 -128.5t45.5 -188.5q0 -131 -68.5 -224.5t-184.5 -124.5l9 -22q22 -52 54 -71.5t96 -19.5h56v-58h-60q-79 0 -127 30t-76 97l-13 32q-30 -2 -47 -2q-105 0 -187 46zM164 193
q38 -69 105.5 -107t155.5 -38t156 38t106 106.5t38 157.5t-38 157.5t-106 106.5t-156 38t-155.5 -38t-105.5 -106.5t-38 -157.5q0 -88 38 -157z" />
    <glyph glyph-name="R" unicode="R" horiz-adv-x="684" 
d="M113 700h259q70 0 122.5 -27t81.5 -76t29 -115q0 -86 -48 -143t-131 -71l190 -268h-73l-188 263h-181v-263h-61v700zM366 321q83 0 130 43t47 118q0 74 -47 117t-130 43h-192v-321h192z" />
    <glyph glyph-name="S" unicode="S" horiz-adv-x="657" 
d="M199 14q-60 27 -93.5 77t-35.5 117h60q4 -77 60 -120t148 -43q86 0 136 35.5t50 96.5q0 55 -46.5 89.5t-151.5 57.5q-130 30 -187.5 77.5t-57.5 125.5q0 85 64.5 135.5t175.5 50.5q116 0 182.5 -56t70.5 -157h-60q-4 74 -54.5 114.5t-138.5 40.5q-84 0 -131.5 -35
t-47.5 -93q0 -53 45.5 -87.5t153.5 -58.5q131 -30 188 -78.5t57 -124.5q0 -88 -67 -139.5t-181 -51.5q-79 0 -139 27z" />
    <glyph glyph-name="T" unicode="T" horiz-adv-x="619" 
d="M279 642h-241v58h543v-58h-242v-642h-60v642z" />
    <glyph glyph-name="U" unicode="U" horiz-adv-x="736" 
d="M174.5 64.5q-70.5 76.5 -70.5 211.5v424h60v-421q0 -112 53 -172t151 -60t151 60t53 172v421h60v-424q0 -135 -70.5 -211.5t-193.5 -76.5t-193.5 76.5z" />
    <glyph glyph-name="V" unicode="V" horiz-adv-x="663" 
d="M22 700h65l245 -616l105 266l140 350h64l-280 -700h-58z" />
    <glyph glyph-name="W" unicode="W" horiz-adv-x="1069" 
d="M24 700h64l104 -319l92 -286l105 286l116 319h58l222 -606l93 287l103 319h64l-230 -700h-57l-224 608l-124 -338l-99 -270h-58z" />
    <glyph glyph-name="X" unicode="X" horiz-adv-x="681" 
d="M302 358l-247 342h72l157 -217l57 -80l56 80l157 217h71l-247 -342l259 -358h-72l-170 234l-54 77l-55 -77l-169 -234h-73z" />
    <glyph glyph-name="Y" unicode="Y" horiz-adv-x="634" 
d="M287 257l-265 443h70l226 -378l225 378h69l-265 -441v-259h-60v257z" />
    <glyph glyph-name="Z" unicode="Z" horiz-adv-x="602" 
d="M58 45l399 597h-390v58h470v-46l-399 -596h408v-58h-488v45z" />
    <glyph glyph-name="bracketleft" unicode="[" horiz-adv-x="411" 
d="M113 750h228v-56h-170v-789h170v-56h-228v901z" />
    <glyph glyph-name="backslash" unicode="\" horiz-adv-x="497" 
d="M85 764h58l270 -828h-59z" />
    <glyph glyph-name="bracketright" unicode="]" horiz-adv-x="411" 
d="M298 -151h-228v56h170v789h-170v56h228v-901z" />
    <glyph glyph-name="asciicircum" unicode="^" horiz-adv-x="593" 
d="M266 700h61l184 -369h-64l-150 306l-151 -306h-64z" />
    <glyph glyph-name="underscore" unicode="_" horiz-adv-x="441" 
d="M23 -88h396v-43h-396v43z" />
    <glyph glyph-name="grave" unicode="`" horiz-adv-x="217" 
d="M50 754h62l55 -151h-54z" />
    <glyph glyph-name="a" unicode="a" horiz-adv-x="624" 
d="M122.5 33.5q-52.5 41.5 -52.5 112.5q0 69 48 109.5t128 40.5h228v37q0 65 -43.5 104t-115.5 39q-58 0 -101 -27.5t-59 -74.5h-59q19 72 77.5 114t140.5 42q64 0 113.5 -24.5t77 -68.5t27.5 -101v-336h-48l-6 89q-34 -47 -89 -72t-124 -25q-90 0 -142.5 41.5zM165.5 72
q37.5 -28 101.5 -28q59 0 106.5 23t74.5 64t27 92v22h-227q-53 0 -86.5 -27t-33.5 -71q0 -47 37.5 -75z" />
    <glyph glyph-name="b" unicode="b" horiz-adv-x="702" 
d="M249.5 18q-57.5 31 -91.5 85l-6 -103h-49v740h58v-321q35 53 91.5 82t126.5 29q77 0 137.5 -35t94 -96.5t33.5 -139.5t-33.5 -140t-94 -97t-137.5 -35q-72 0 -129.5 31zM186 147q27 -49 75.5 -76.5t111.5 -27.5t111 27.5t75 76.5t27 112q0 62 -27 111t-75 76.5t-111 27.5
t-111.5 -27.5t-75.5 -76.5t-27 -111q0 -63 27 -112z" />
    <glyph glyph-name="c" unicode="c" horiz-adv-x="636" 
d="M185 22q-60 35 -93.5 96.5t-33.5 140.5t33.5 140.5t93.5 96t137 34.5q92 0 162 -50.5t92 -134.5h-59q-25 61 -76.5 95t-118.5 34q-60 0 -107 -27t-73 -76t-26 -112t26 -112t73 -76.5t107 -27.5q71 0 123.5 37t74.5 101h61q-26 -91 -95 -142.5t-164 -51.5q-77 0 -137 35z
" />
    <glyph glyph-name="d" unicode="d" horiz-adv-x="702" 
d="M185.5 22q-60.5 35 -94 97t-33.5 140t33.5 139.5t94 96.5t137.5 35q70 0 126.5 -29t91.5 -80v319h58v-740h-48l-7 102q-34 -54 -91.5 -84.5t-129.5 -30.5q-77 0 -137.5 35zM143 147q27 -49 75.5 -76.5t111.5 -27.5q62 0 110.5 27.5t75.5 76.5t27 112q0 62 -27 111
t-75.5 76.5t-110.5 27.5q-63 0 -111.5 -27.5t-75.5 -76.5t-27 -111q0 -63 27 -112z" />
    <glyph glyph-name="e" unicode="e" horiz-adv-x="643" 
d="M184 21.5q-60 34.5 -93 96t-33 141.5q0 79 33.5 140.5t93.5 96t138 34.5q80 0 141 -37t93 -104t30 -154h-470q8 -88 63.5 -140.5t141.5 -52.5q63 0 111 28t74 78l65 -1q-30 -74 -96.5 -117t-153.5 -43q-78 0 -138 34.5zM530 286q-10 88 -66 138.5t-141 50.5
q-86 0 -142 -51.5t-64 -137.5h413z" />
    <glyph glyph-name="f" unicode="f" horiz-adv-x="417" 
d="M326 753h81v-55h-76q-63 0 -91.5 -29.5t-28.5 -95.5v-56h191v-53h-191v-464h-58v464h-118v53h118v60q0 176 173 176z" />
    <glyph glyph-name="g" unicode="g" horiz-adv-x="686" 
d="M169.5 -166.5q-65.5 46.5 -80.5 125.5h59q13 -54 62 -85.5t120 -31.5q89 0 142 49t53 132v84q-35 -48 -89 -74.5t-119 -26.5q-75 0 -134 33.5t-92 93.5t-33 135t33 135t92.5 93.5t133.5 33.5q67 0 122 -28t90 -78l5 93h49v-496q0 -69 -31.5 -122t-89 -82.5t-132.5 -29.5
q-95 0 -160.5 46.5zM142.5 161.5q26.5 -46.5 73.5 -72.5t107 -26t107 26t73 72.5t26 106.5t-26 107t-73 73t-107 26t-107 -26t-73.5 -73t-26.5 -107t26.5 -106.5z" />
    <glyph glyph-name="h" unicode="h" horiz-adv-x="663" 
d="M103 740h58v-317q30 52 81 79.5t113 27.5q100 0 158 -65t58 -177v-288h-58v283q0 89 -44.5 140t-121.5 51q-54 0 -96.5 -25.5t-66 -72t-23.5 -107.5v-269h-58v740z" />
    <glyph glyph-name="i" unicode="i" horiz-adv-x="264" 
d="M103 517h58v-517h-58v517zM93.5 701q14.5 15 38.5 15t38.5 -15t14.5 -37q0 -23 -14.5 -38t-38.5 -15t-38.5 15t-14.5 38q0 22 14.5 37z" />
    <glyph glyph-name="j" unicode="j" horiz-adv-x="265" 
d="M-44 -148h49q56 0 77.5 23t21.5 87v555h58v-556q0 -87 -35 -125.5t-119 -38.5h-52v55zM94.5 701q14.5 15 38.5 15t38.5 -15t14.5 -37q0 -23 -14.5 -38t-38.5 -15t-38.5 15t-14.5 38q0 22 14.5 37z" />
    <glyph glyph-name="k" unicode="k" horiz-adv-x="579" 
d="M103 740h58v-450h76q73 0 110 23.5t61 88.5l44 115h62l-52 -137q-18 -44 -39.5 -72.5t-51.5 -44.5l168 -263h-69l-153 243q-34 -7 -82 -7h-74v-236h-58v740z" />
    <glyph glyph-name="l" unicode="l" horiz-adv-x="264" 
d="M103 740h58v-740h-58v740z" />
    <glyph glyph-name="m" unicode="m" horiz-adv-x="1027" 
d="M103 517h49l5 -84q27 47 73 72t106 25q68 0 117.5 -32.5t71.5 -91.5q26 59 77.5 91.5t119.5 32.5q98 0 156 -62.5t58 -170.5v-297h-58v288q0 86 -44 136t-119 50q-76 0 -121.5 -51.5t-45.5 -138.5v-284h-58v288q0 86 -44 136t-118 50q-76 0 -121.5 -51.5t-45.5 -138.5
v-284h-58v517z" />
    <glyph glyph-name="n" unicode="n" horiz-adv-x="663" 
d="M103 517h49l5 -100q30 55 81.5 84t114.5 29q101 0 159.5 -66t58.5 -178v-286h-58v281q0 89 -45 141t-122 52q-54 0 -96 -26t-65.5 -72.5t-23.5 -107.5v-268h-58v517z" />
    <glyph glyph-name="o" unicode="o" horiz-adv-x="659" 
d="M189 21.5q-62 34.5 -96.5 96.5t-34.5 141t34.5 140.5t96.5 96t141 34.5t140.5 -34.5t96 -96t34.5 -140.5t-34.5 -141t-96 -96.5t-140.5 -34.5t-141 34.5zM143 147q27 -49 75.5 -76.5t111.5 -27.5q62 0 110.5 27.5t75.5 76.5t27 112t-27 112t-75.5 76t-110.5 27
q-63 0 -111.5 -27t-75.5 -76t-27 -112t27 -112z" />
    <glyph glyph-name="p" unicode="p" horiz-adv-x="702" 
d="M252.5 16.5q-56.5 29.5 -91.5 81.5v-298h-58v717h49l6 -103q34 55 91.5 85.5t129.5 30.5q77 0 137.5 -35t94 -96.5t33.5 -139.5t-33.5 -140t-94 -97t-137.5 -35q-70 0 -126.5 29.5zM186 147q27 -49 75.5 -76.5t111.5 -27.5t111 27.5t75 76.5t27 112q0 62 -27 111
t-75 76.5t-111 27.5t-111.5 -27.5t-75.5 -76.5t-27 -111q0 -63 27 -112z" />
    <glyph glyph-name="q" unicode="q" horiz-adv-x="702" 
d="M185.5 22q-60.5 35 -94 97t-33.5 140t33.5 139.5t94 96.5t137.5 35q72 0 129.5 -30.5t92.5 -84.5l6 102h48v-717h-58v297q-35 -52 -91.5 -81t-126.5 -29q-77 0 -137.5 35zM143 147q27 -49 75.5 -76.5t111.5 -27.5q62 0 110.5 27.5t75.5 76.5t27 112q0 62 -27 111
t-75.5 76.5t-110.5 27.5q-63 0 -111.5 -27.5t-75.5 -76.5t-27 -111q0 -63 27 -112z" />
    <glyph glyph-name="r" unicode="r" horiz-adv-x="434" 
d="M103 517h49l6 -116q26 59 72.5 87.5t117.5 28.5h43v-54h-45q-87 0 -136 -55.5t-49 -169.5v-238h-58v517z" />
    <glyph glyph-name="s" unicode="s" horiz-adv-x="550" 
d="M124.5 32.5q-58.5 45.5 -61.5 123.5h57q5 -55 46.5 -85.5t115.5 -30.5q68 0 107 24.5t39 67.5q0 41 -38.5 66.5t-120.5 39.5q-101 17 -148.5 53.5t-47.5 96.5q0 66 52.5 104t143.5 38q92 0 146.5 -41.5t60.5 -115.5h-58q-4 51 -42.5 78t-106.5 27q-64 0 -101 -24.5
t-37 -66.5q0 -38 36 -61.5t122 -39.5q196 -37 196 -155q0 -65 -55.5 -104.5t-148.5 -39.5q-98 0 -156.5 45.5z" />
    <glyph glyph-name="t" unicode="t" horiz-adv-x="440" 
d="M187 45.5q-43 45.5 -43 133.5v285h-113v53h66q29 0 40 9.5t14 38.5l5 79h46v-127h179v-53h-179v-283q0 -64 27.5 -94.5t85.5 -30.5h73v-56h-75q-83 0 -126 45.5z" />
    <glyph glyph-name="u" unicode="u" horiz-adv-x="657" 
d="M150 53q-58 66 -58 178v286h58v-281q0 -89 44.5 -141t120.5 -52q53 0 94 26t64 73t23 108v267h58v-517h-48l-6 101q-30 -55 -80.5 -84.5t-112.5 -29.5q-99 0 -157 66z" />
    <glyph glyph-name="v" unicode="v" horiz-adv-x="560" 
d="M20 517h63l90 -200l107 -241l106 241l91 200h62l-231 -517h-57z" />
    <glyph glyph-name="w" unicode="w" horiz-adv-x="861" 
d="M22 517h62l153 -430l73 188l93 242h54l94 -242l73 -188l154 430h61l-187 -517h-56l-89 231l-77 201l-166 -432h-56z" />
    <glyph glyph-name="x" unicode="x" horiz-adv-x="565" 
d="M244 265l-191 252h69l105 -137l55 -74l55 74l105 137h70l-191 -252l204 -265h-71l-113 147l-58 77l-59 -77l-113 -147h-71z" />
    <glyph glyph-name="y" unicode="y" horiz-adv-x="557" 
d="M71 -145h43q38 0 59.5 6.5t35.5 23t28 50.5l29 73l-246 509h65l122 -255l89 -184l74 184l105 255h61l-247 -604q-18 -45 -39.5 -69.5t-51.5 -34t-78 -9.5h-49v55z" />
    <glyph glyph-name="z" unicode="z" horiz-adv-x="524" 
d="M53 45l336 419h-324v53h402v-44l-334 -419h341v-54h-421v45z" />
    <glyph glyph-name="braceleft" unicode="{" horiz-adv-x="491" 
d="M197 -18v212q0 41 -15.5 59.5t-49.5 18.5h-19v56h19q34 0 49.5 18.5t15.5 59.5v211q0 133 135 133h101v-56h-96q-44 0 -63 -19t-19 -63v-211q0 -40 -12 -64.5t-38 -36.5q26 -12 38 -36.5t12 -64.5v-212q0 -44 19.5 -63t62.5 -19h96v-56h-101q-135 0 -135 133z" />
    <glyph glyph-name="bar" unicode="|" horiz-adv-x="327" 
d="M136 800h55v-936h-55v936z" />
    <glyph glyph-name="braceright" unicode="}" horiz-adv-x="491" 
d="M294 617v-212q0 -41 15.5 -59.5t49.5 -18.5h19v-56h-19q-34 0 -49.5 -18.5t-15.5 -59.5v-211q0 -133 -135 -133h-101v56h96q44 0 63 19t19 63v211q0 40 12 64.5t38 36.5q-26 12 -38 36.5t-12 64.5v212q0 44 -19 63t-63 19h-96v56h101q135 0 135 -133z" />
    <glyph glyph-name="asciitilde" unicode="~" horiz-adv-x="603" 
d="M340 285.5q-22 10.5 -50 30.5q-23 17 -38.5 25t-35.5 8q-29 0 -46.5 -19t-18.5 -53h-58q1 61 32 94.5t86 33.5q32 0 53.5 -10.5t49.5 -30.5q23 -17 38.5 -25t35.5 -8q30 0 46.5 18.5t17.5 53.5h58q-1 -63 -31 -95.5t-85 -32.5q-32 0 -54 10.5z" />
    <glyph glyph-name="uni00A0" unicode="&#xa0;" horiz-adv-x="268" 
 />
    <glyph glyph-name="exclamdown" unicode="&#xa1;" horiz-adv-x="311" 
d="M188 -211h-65l2 508h61zM117 480.5q15 14.5 38 14.5q24 0 39 -14.5t15 -37.5t-15 -37.5t-39 -14.5q-23 0 -38 14.5t-15 37.5t15 37.5z" />
    <glyph glyph-name="cent" unicode="&#xa2;" horiz-adv-x="636" 
d="M299 -12q-71 5 -125.5 41t-85 95.5t-30.5 134.5t30.5 134.5t85 95t125.5 40.5v103h59v-104q80 -10 139 -59t79 -124h-59q-25 61 -76.5 95t-118.5 34q-60 0 -107 -27t-73 -76t-26 -112t26 -112t73 -76.5t107 -27.5q71 0 123.5 37t74.5 101h61q-24 -82 -82.5 -132
t-140.5 -60v-108h-59v107z" />
    <glyph glyph-name="sterling" unicode="&#xa3;" horiz-adv-x="662" 
d="M206.5 654.5q58.5 58.5 158.5 58.5q96 0 154.5 -55.5t61.5 -151.5h-57q-3 70 -46 109t-113 39q-73 0 -114.5 -42t-41.5 -123v-133h307v-57h-307v-240h397v-59h-542v59h84v239h-83v58h83v134q0 106 58.5 164.5z" />
    <glyph glyph-name="currency" unicode="&#xa4;" horiz-adv-x="689" 
d="M202 104l-81 -80l-37 37l82 82q-41 57 -41 129q0 71 41 128l-82 83l37 37l81 -81q61 51 143 51q81 0 142 -50l81 80l37 -37l-82 -82q41 -57 41 -129t-41 -130l82 -81l-37 -37l-81 80q-59 -51 -142 -51q-82 0 -143 51zM200 188q21 -39 59 -62t85 -23q48 0 86 23t59 62
t21 84t-21 83.5t-59 61.5t-86 23q-47 0 -85 -23t-59 -61.5t-21 -83.5t21 -84z" />
    <glyph glyph-name="yen" unicode="&#xa5;" horiz-adv-x="643" 
d="M292 118h-193v54h193v90h-193v54h167l-244 384h69l146 -226l85 -136l84 136l146 226h69l-244 -384h168v-54h-193v-90h193v-54h-193v-118h-60v118z" />
    <glyph glyph-name="brokenbar" unicode="&#xa6;" horiz-adv-x="327" 
d="M136 740h55v-370h-55v370zM136 238h55v-374h-55v374z" />
    <glyph glyph-name="section" unicode="&#xa7;" horiz-adv-x="548" 
d="M127 32.5q-56 45.5 -57 122.5h57q1 -58 44 -87t110 -29q68 0 102.5 24.5t34.5 63.5q0 75 -141 91q-90 11 -140 45t-50 99q0 32 12.5 63.5t35.5 57.5q-51 33 -51 95q0 56 47 95t142 39q87 0 141.5 -40.5t55.5 -119.5h-57q-1 54 -40.5 81t-99.5 27q-68 0 -99 -23.5
t-31 -58.5q0 -37 35.5 -57t106.5 -30q188 -26 188 -153q0 -65 -49 -111q54 -37 54 -98q0 -66 -55 -104t-144 -38q-96 0 -152 45.5zM183 300.5q36 -22.5 106 -31.5q51 -6 86 -19q39 40 39 85q0 42 -32 67.5t-108 36.5q-50 7 -91 21q-36 -43 -36 -90t36 -69.5z" />
    <glyph glyph-name="dieresis" unicode="&#xa8;" horiz-adv-x="396" 
d="M258.5 627.5q-14.5 14.5 -14.5 36.5t14.5 36t36.5 14q23 0 37 -14t14 -36q0 -23 -14 -37t-37 -14q-22 0 -36.5 14.5zM64.5 700q14.5 14 36.5 14t36.5 -14t14.5 -36t-14 -36.5t-37 -14.5q-22 0 -36.5 14.5t-14.5 36.5t14.5 36z" />
    <glyph glyph-name="copyright" unicode="&#xa9;" horiz-adv-x="898" 
d="M250.5 36q-87.5 49 -137 136.5t-49.5 197.5t49.5 197.5t137 136.5t198.5 49t198.5 -49t137 -136.5t49.5 -197.5t-49.5 -197.5t-137 -136.5t-198.5 -49t-198.5 49zM162 200.5q43 -75.5 118 -118.5t169 -43t169 43t118 118.5t43 169.5t-43 169.5t-118 118.5t-169 43
t-169 -43t-118 -118.5t-43 -169.5t43 -169.5zM277.5 474q25.5 46 71 71.5t103.5 25.5q69 0 120.5 -36.5t69.5 -99.5h-51q-18 43 -54.5 66t-84.5 23q-68 0 -109 -42t-41 -112t41 -112t109 -42q50 0 87 25t55 73h53q-20 -69 -72 -107t-123 -38q-58 0 -103.5 25.5t-71 71
t-25.5 104.5q0 58 25.5 104z" />
    <glyph glyph-name="ordfeminine" unicode="&#xaa;" horiz-adv-x="464" 
d="M100 372q-37 28 -37 76q0 46 32.5 74t87.5 28h153v16q0 47 -28.5 73.5t-74.5 26.5q-38 0 -65.5 -18t-38.5 -49h-47q13 49 53.5 78t97.5 29q66 0 107.5 -38t41.5 -101v-217h-38l-4 56q-22 -29 -58.5 -45.5t-84.5 -16.5q-60 0 -97 28zM135 401.5q25 -17.5 67 -17.5
q59 0 97 32t38 82v14h-150q-35 0 -56 -17.5t-21 -44.5q0 -31 25 -48.5z" />
    <glyph glyph-name="guillemotleft" unicode="&#xab;" horiz-adv-x="614" 
d="M71 278l179 234h72l-178 -234l179 -234h-73zM314 278l179 234h72l-178 -234l179 -234h-73z" />
    <glyph glyph-name="logicalnot" unicode="&#xac;" horiz-adv-x="585" 
d="M436 327h-343v55h400v-206h-57v151z" />
    <glyph glyph-name="uni00AD" unicode="&#xad;" horiz-adv-x="455" 
d="M80 281h295v-54h-295v54z" />
    <glyph glyph-name="registered" unicode="&#xae;" horiz-adv-x="609" 
d="M173.5 292q-57.5 31 -89.5 86.5t-32 125.5q0 71 32 126.5t89.5 86.5t131.5 31t131 -31t89 -86.5t32 -126.5q0 -70 -32 -125.5t-89 -86.5t-131 -31t-131.5 31zM158.5 362.5q55.5 -53.5 146.5 -53.5t146 53.5t55 141.5t-55 142t-146 54t-146.5 -53.5t-55.5 -142.5
q0 -88 55.5 -141.5zM224 629h90q37 0 60 -21.5t23 -56.5q0 -26 -13 -44.5t-36 -26.5l58 -95h-43l-55 88h-2h-45v-88h-37v244zM311 509q21 0 34 11.5t13 30.5q0 20 -13 31t-34 11h-50v-84h50z" />
    <glyph glyph-name="macron" unicode="&#xaf;" horiz-adv-x="379" 
d="M50 687h279v-48h-279v48z" />
    <glyph glyph-name="degree" unicode="&#xb0;" horiz-adv-x="369" 
d="M80 494.5q-41 40.5 -41 102.5t41 102.5t105 40.5t105 -40.5t41 -102.5t-41 -102.5t-105 -40.5t-105 40.5zM116 527.5q28 -27.5 69 -27.5t68.5 27.5t27.5 69.5q0 43 -27 70t-69 27t-69.5 -27.5t-27.5 -69.5t28 -69.5z" />
    <glyph glyph-name="plusminus" unicode="&#xb1;" horiz-adv-x="530" 
d="M93 466h145v141h54v-141h145v-52h-145v-149h-54v149h-145v52zM93 190h344v-53h-344v53z" />
    <glyph glyph-name="uni00B2" unicode="&#xb2;" horiz-adv-x="387" 
d="M67 499l148 134q22 19 33 37t11 39q0 29 -19 47t-49 18t-50 -19t-21 -52h-47q1 53 34 84t85 31q51 0 83.5 -30t32.5 -77q0 -32 -15.5 -58t-47.5 -55l-99 -91h172v-45h-251v37z" />
    <glyph glyph-name="uni00B3" unicode="&#xb3;" horiz-adv-x="357" 
d="M88 484.5q-33 28.5 -35 77.5h48q3 -28 22.5 -44.5t50.5 -16.5q33 0 53.5 18.5t20.5 49.5q0 29 -20.5 48t-53.5 19h-53v31l94 102h-154v43h221v-35l-102 -107h11q45 0 75 -29t30 -75q0 -48 -33.5 -79t-87.5 -31t-87 28.5z" />
    <glyph glyph-name="acute" unicode="&#xb4;" horiz-adv-x="217" 
d="M105 754h62l-62 -151h-55z" />
    <glyph glyph-name="uni00B5" unicode="&#xb5;" horiz-adv-x="674" 
d="M103 517h58v-272q0 -96 46.5 -148.5t128.5 -52.5q80 0 128.5 54.5t48.5 148.5v270h58v-517h-48l-7 89q-28 -50 -76.5 -76t-104.5 -26q-57 0 -105 26t-73 76v-289h-54v717z" />
    <glyph glyph-name="paragraph" unicode="&#xb6;" horiz-adv-x="659" 
d="M308 299h-43q-73 0 -122 28.5t-72.5 75t-23.5 99.5t23.5 98t72.5 72.5t122 27.5h98v-844h-55v443zM491 700h54v-844h-54v844z" />
    <glyph glyph-name="periodcentered" unicode="&#xb7;" horiz-adv-x="242" 
d="M82.5 208.5q-14.5 14.5 -14.5 37.5t14.5 37.5t38.5 14.5t38.5 -14.5t14.5 -37.5t-14.5 -37.5t-38.5 -14.5t-38.5 14.5z" />
    <glyph glyph-name="cedilla" unicode="&#xb8;" horiz-adv-x="262" 
d="M50 -198h53q29 0 44.5 12.5t15.5 35.5q0 22 -15.5 34.5t-44.5 12.5h-30l-8 11l37 106l44 -1l-28 -76q44 -3 69 -27t25 -63q0 -42 -28 -65.5t-77 -23.5h-57v44z" />
    <glyph glyph-name="uni00B9" unicode="&#xb9;" horiz-adv-x="254" 
d="M112 711h-78v45h47q16 0 25.5 5t12.5 24l4 27h39v-350h-50v249z" />
    <glyph glyph-name="ordmasculine" unicode="&#xba;" horiz-adv-x="466" 
d="M140.5 367q-41.5 23 -65 64.5t-23.5 93.5t23.5 93.5t65 64.5t92.5 23t92.5 -23t65 -64.5t23.5 -93.5t-23.5 -93.5t-65 -64.5t-92.5 -23t-92.5 23zM136.5 425.5q37.5 -38.5 96.5 -38.5t97 38.5t38 99.5t-38 99.5t-97 38.5t-96.5 -38.5t-37.5 -99.5t37.5 -99.5z" />
    <glyph glyph-name="guillemotright" unicode="&#xbb;" horiz-adv-x="614" 
d="M543 278l-179 -234h-72l178 234l-179 234h73zM121 512l179 -234l-179 -234h-72l178 234l-179 234h73z" />
    <glyph glyph-name="onequarter" unicode="&#xbc;" horiz-adv-x="799" 
d="M112 599h-78v45h47q16 0 25.5 5t12.5 24l4 27h39v-350h-50v249zM545 700h58l-436 -700h-57zM672 74h-180v34l123 242h56l-119 -233h122l8 109h40v-108h47v-44h-47v-74h-50v74z" />
    <glyph glyph-name="onehalf" unicode="&#xbd;" horiz-adv-x="846" 
d="M112 599h-78v45h47q16 0 25.5 5t12.5 24l4 27h39v-350h-50v249zM545 700h58l-436 -700h-57zM526 37l148 134q22 19 33 37t11 39q0 29 -19 47t-49 18t-50 -19t-21 -52h-47q1 53 34 84t85 31q51 0 83.5 -30t32.5 -77q0 -32 -15.5 -58t-47.5 -55l-99 -91h172v-45h-251v37z
" />
    <glyph glyph-name="threequarters" unicode="&#xbe;" horiz-adv-x="902" 
d="M88 372.5q-33 28.5 -35 77.5h48q3 -28 22.5 -44.5t50.5 -16.5q33 0 53.5 18.5t20.5 49.5q0 29 -20.5 48t-53.5 19h-53v31l94 102h-154v43h221v-35l-102 -107h11q45 0 75 -29t30 -75q0 -48 -33.5 -79t-87.5 -31t-87 28.5zM648 700h58l-436 -700h-57zM774 74h-180v34
l123 242h56l-119 -233h122l8 109h40v-108h47v-44h-47v-74h-50v74z" />
    <glyph glyph-name="questiondown" unicode="&#xbf;" horiz-adv-x="600" 
d="M326.5 183.5q-23.5 -36.5 -79.5 -70.5q-55 -35 -77.5 -67.5t-22.5 -77.5q0 -62 41.5 -97.5t115.5 -35.5t118.5 36.5t48.5 100.5h59q-5 -91 -65 -143t-159 -52q-65 0 -114.5 23.5t-76.5 66.5t-27 99q0 57 30.5 103.5t96.5 88.5q45 27 60.5 52t15.5 66v22h59v-26
q0 -52 -23.5 -88.5zM282 481.5q15 14.5 38 14.5q24 0 39 -14.5t15 -37.5t-15 -37.5t-39 -14.5q-23 0 -38 14.5t-15 37.5t15 37.5z" />
    <glyph glyph-name="Agrave" unicode="&#xc0;" horiz-adv-x="683" 
d="M312 700h58l290 -700h-64l-73 176h-364l-72 -176h-65zM500 232l-159 385l-158 -385h317zM311 906l62 -136h-54l-70 136h62z" />
    <glyph glyph-name="Aacute" unicode="&#xc1;" horiz-adv-x="683" 
d="M312 700h58l290 -700h-64l-73 176h-364l-72 -176h-65zM500 232l-159 385l-158 -385h317zM372 906h62l-70 -136h-55z" />
    <glyph glyph-name="Acircumflex" unicode="&#xc2;" horiz-adv-x="683" 
d="M312 700h58l290 -700h-64l-73 176h-364l-72 -176h-65zM500 232l-159 385l-158 -385h317zM317 906h49l123 -136h-65l-82 93l-82 -93h-65z" />
    <glyph glyph-name="Atilde" unicode="&#xc3;" horiz-adv-x="683" 
d="M312 700h58l290 -700h-64l-73 176h-364l-72 -176h-65zM500 232l-159 385l-158 -385h317zM196 801q0 40 21 63.5t57 23.5q24 0 41 -9t36 -26q15 -13 26 -19.5t25 -6.5q19 0 28.5 11.5t9.5 32.5v14h47v-19q0 -40 -21 -63t-57 -23q-24 0 -40.5 9t-35.5 26q-17 14 -27.5 20
t-24.5 6q-18 0 -28 -12t-10 -32v-15h-47v19z" />
    <glyph glyph-name="Adieresis" unicode="&#xc4;" horiz-adv-x="683" 
d="M312 700h58l290 -700h-64l-73 176h-364l-72 -176h-65zM500 232l-159 385l-158 -385h317zM207.5 871q14.5 14 36.5 14t36.5 -14t14.5 -36t-14 -36.5t-37 -14.5q-22 0 -36.5 14.5t-14.5 36.5t14.5 36zM401.5 871q14.5 14 36.5 14q23 0 37 -14t14 -36q0 -23 -14 -37t-37 -14
q-22 0 -36.5 14.5t-14.5 36.5t14.5 36z" />
    <glyph glyph-name="Aring" unicode="&#xc5;" horiz-adv-x="683" 
d="M312 700h58l290 -700h-64l-73 176h-364l-72 -176h-65zM500 232l-159 385l-158 -385h317zM262 931q31 30 79 30q49 0 80 -30t31 -77t-31 -77t-80 -30q-48 0 -79 30t-31 77t31 77zM293 805.5q19 -19.5 48 -19.5t48 19.5t19 48.5t-19 48t-48 19t-48 -19t-19 -48t19 -48.5z
" />
    <glyph glyph-name="AE" unicode="&#xc6;" horiz-adv-x="974" 
d="M484 700h407v-57h-328v-258h302v-56h-302v-272h339v-57h-400v175h-296l-115 -175h-71zM502 232v393l-259 -393h259z" />
    <glyph glyph-name="Ccedilla" unicode="&#xc7;" horiz-adv-x="822" 
d="M348 -202h54q29 0 44.5 12.5t15.5 35.5t-15.5 35.5t-44.5 12.5h-31l-8 11l29 83q-95 6 -169.5 53.5t-116.5 127.5t-42 181q0 105 45.5 187.5t126.5 129t183 46.5q120 0 211.5 -65t125.5 -175h-64q-30 83 -103 131t-169 48q-85 0 -152 -38t-104.5 -107t-37.5 -157
t37.5 -157t104.5 -107t152 -38q99 0 174 50t104 137h64q-31 -109 -119.5 -176t-206.5 -72l-19 -52q45 -3 71 -27.5t26 -64.5q0 -43 -28.5 -67.5t-78.5 -24.5h-59v47z" />
    <glyph glyph-name="Egrave" unicode="&#xc8;" horiz-adv-x="609" 
d="M113 700h412v-57h-351v-258h325v-56h-325v-272h362v-57h-423v700zM289 906l62 -136h-54l-70 136h62z" />
    <glyph glyph-name="Eacute" unicode="&#xc9;" horiz-adv-x="609" 
d="M113 700h412v-57h-351v-258h325v-56h-325v-272h362v-57h-423v700zM350 906h62l-70 -136h-55z" />
    <glyph glyph-name="Ecircumflex" unicode="&#xca;" horiz-adv-x="609" 
d="M113 700h412v-57h-351v-258h325v-56h-325v-272h362v-57h-423v700zM296 906h48l123 -136h-65l-82 93l-82 -93h-65z" />
    <glyph glyph-name="Edieresis" unicode="&#xcb;" horiz-adv-x="609" 
d="M113 700h412v-57h-351v-258h325v-56h-325v-272h362v-57h-423v700zM185.5 871q14.5 14 36.5 14t36.5 -14t14.5 -36t-14 -36.5t-37 -14.5q-22 0 -36.5 14.5t-14.5 36.5t14.5 36zM380 871q14 14 37 14q22 0 36.5 -14t14.5 -36t-14 -36.5t-37 -14.5t-37 14t-14 37q0 22 14 36
z" />
    <glyph glyph-name="Igrave" unicode="&#xcc;" horiz-adv-x="287" 
d="M113 700h61v-700h-61v700zM113 906l63 -136h-55l-70 136h62z" />
    <glyph glyph-name="Iacute" unicode="&#xcd;" horiz-adv-x="287" 
d="M113 700h61v-700h-61v700zM174 906h62l-70 -136h-55z" />
    <glyph glyph-name="Icircumflex" unicode="&#xce;" horiz-adv-x="287" 
d="M113 700h61v-700h-61v700zM119 906h49l112 -136h-64l-72 91l-73 -91h-64z" />
    <glyph glyph-name="Idieresis" unicode="&#xcf;" horiz-adv-x="287" 
d="M113 700h61v-700h-61v700zM9.5 871q14.5 14 36.5 14t36.5 -14t14.5 -36t-14 -36.5t-37 -14.5q-22 0 -36.5 14.5t-14.5 36.5t14.5 36zM204 871q14 14 37 14q22 0 36.5 -14t14.5 -36t-14 -36.5t-37 -14.5t-37 14t-14 37q0 22 14 36z" />
    <glyph glyph-name="Eth" unicode="&#xd0;" horiz-adv-x="794" 
d="M145 325h-130v58h130v317h221q110 0 192.5 -43.5t127 -122.5t44.5 -184t-44.5 -184.5t-127 -122.5t-192.5 -43h-221v325zM366 58q92 0 160 35.5t105 101.5t37 155t-37 155t-105.5 101.5t-161.5 35.5h-159v-260h218v-57h-218v-267h161z" />
    <glyph glyph-name="Ntilde" unicode="&#xd1;" horiz-adv-x="769" 
d="M113 700h57l426 -595v595h60v-700h-57l-426 596v-596h-60v700zM240 801q0 40 21 63.5t57 23.5q24 0 40.5 -9t35.5 -26q17 -14 27.5 -20t24.5 -6q18 0 28 11.5t10 32.5v14h47v-19q0 -40 -21 -63t-57 -23q-24 0 -40.5 9t-35.5 26q-17 14 -27.5 20t-24.5 6q-18 0 -28 -12
t-10 -32v-15h-47v19z" />
    <glyph glyph-name="Ograve" unicode="&#xd2;" horiz-adv-x="850" 
d="M238 33q-82 46 -128 128.5t-46 188.5t46 188.5t128 128.5t187 46q106 0 188 -46t127.5 -128.5t45.5 -188.5t-45.5 -188.5t-127.5 -128.5t-188 -46q-105 0 -187 46zM164 193q38 -69 105.5 -107t155.5 -38t156 38t106 106.5t38 157.5t-38 157.5t-106 106.5t-156 38
t-155.5 -38t-105.5 -106.5t-38 -157.5q0 -88 38 -157zM395 906l62 -136h-54l-70 136h62z" />
    <glyph glyph-name="Oacute" unicode="&#xd3;" horiz-adv-x="850" 
d="M238 33q-82 46 -128 128.5t-46 188.5t46 188.5t128 128.5t187 46q106 0 188 -46t127.5 -128.5t45.5 -188.5t-45.5 -188.5t-127.5 -128.5t-188 -46q-105 0 -187 46zM164 193q38 -69 105.5 -107t155.5 -38t156 38t106 106.5t38 157.5t-38 157.5t-106 106.5t-156 38
t-155.5 -38t-105.5 -106.5t-38 -157.5q0 -88 38 -157zM455 906h63l-70 -136h-55z" />
    <glyph glyph-name="Ocircumflex" unicode="&#xd4;" horiz-adv-x="850" 
d="M238 33q-82 46 -128 128.5t-46 188.5t46 188.5t128 128.5t187 46q106 0 188 -46t127.5 -128.5t45.5 -188.5t-45.5 -188.5t-127.5 -128.5t-188 -46q-105 0 -187 46zM164 193q38 -69 105.5 -107t155.5 -38t156 38t106 106.5t38 157.5t-38 157.5t-106 106.5t-156 38
t-155.5 -38t-105.5 -106.5t-38 -157.5q0 -88 38 -157zM401 906h49l122 -136h-64l-82 93l-82 -93h-65z" />
    <glyph glyph-name="Otilde" unicode="&#xd5;" horiz-adv-x="850" 
d="M238 33q-82 46 -128 128.5t-46 188.5t46 188.5t128 128.5t187 46q106 0 188 -46t127.5 -128.5t45.5 -188.5t-45.5 -188.5t-127.5 -128.5t-188 -46q-105 0 -187 46zM164 193q38 -69 105.5 -107t155.5 -38t156 38t106 106.5t38 157.5t-38 157.5t-106 106.5t-156 38
t-155.5 -38t-105.5 -106.5t-38 -157.5q0 -88 38 -157zM280 801q0 40 21 63.5t57 23.5q24 0 41 -9t36 -26q15 -13 26 -19.5t25 -6.5q19 0 28.5 11.5t9.5 32.5v14h47v-19q0 -40 -21 -63t-57 -23q-24 0 -40.5 9t-35.5 26q-17 14 -27.5 20t-24.5 6q-18 0 -28 -12t-10 -32v-15
h-47v19z" />
    <glyph glyph-name="Odieresis" unicode="&#xd6;" horiz-adv-x="850" 
d="M238 33q-82 46 -128 128.5t-46 188.5t46 188.5t128 128.5t187 46q106 0 188 -46t127.5 -128.5t45.5 -188.5t-45.5 -188.5t-127.5 -128.5t-188 -46q-105 0 -187 46zM164 193q38 -69 105.5 -107t155.5 -38t156 38t106 106.5t38 157.5t-38 157.5t-106 106.5t-156 38
t-155.5 -38t-105.5 -106.5t-38 -157.5q0 -88 38 -157zM291.5 871q14.5 14 36.5 14t36.5 -14t14.5 -36t-14 -36.5t-37 -14.5q-22 0 -36.5 14.5t-14.5 36.5t14.5 36zM485.5 871q14.5 14 36.5 14q23 0 37 -14t14 -36q0 -23 -14 -37t-37 -14q-22 0 -36.5 14.5t-14.5 36.5
t14.5 36z" />
    <glyph glyph-name="multiply" unicode="&#xd7;" horiz-adv-x="472" 
d="M236 261l-127 -128l-36 37l126 127l-126 128l36 36l127 -127l126 127l37 -36l-127 -128l127 -127l-37 -37z" />
    <glyph glyph-name="Oslash" unicode="&#xd8;" horiz-adv-x="850" 
d="M192 63q-61 50 -94.5 123.5t-33.5 163.5q0 106 46 188.5t128 128.5t187 46q102 0 184 -44l49 70h71l-71 -102q61 -49 94.5 -123t33.5 -164q0 -106 -45.5 -188.5t-127.5 -128.5t-188 -46q-102 0 -184 44l-49 -70h-71zM152.5 215.5q26.5 -60.5 75.5 -101.5l347 504
q-66 34 -150 34q-88 0 -155.5 -38t-105.5 -106.5t-38 -157.5q0 -74 26.5 -134.5zM425 48q88 0 156 38t106 106.5t38 157.5q0 75 -27 135.5t-76 100.5l-346 -503q64 -35 149 -35z" />
    <glyph glyph-name="Ugrave" unicode="&#xd9;" horiz-adv-x="736" 
d="M174.5 64.5q-70.5 76.5 -70.5 211.5v424h60v-421q0 -112 53 -172t151 -60t151 60t53 172v421h60v-424q0 -135 -70.5 -211.5t-193.5 -76.5t-193.5 76.5zM338 906l62 -136h-54l-71 136h63z" />
    <glyph glyph-name="Uacute" unicode="&#xda;" horiz-adv-x="736" 
d="M174.5 64.5q-70.5 76.5 -70.5 211.5v424h60v-421q0 -112 53 -172t151 -60t151 60t53 172v421h60v-424q0 -135 -70.5 -211.5t-193.5 -76.5t-193.5 76.5zM398 906h63l-71 -136h-54z" />
    <glyph glyph-name="Ucircumflex" unicode="&#xdb;" horiz-adv-x="736" 
d="M174.5 64.5q-70.5 76.5 -70.5 211.5v424h60v-421q0 -112 53 -172t151 -60t151 60t53 172v421h60v-424q0 -135 -70.5 -211.5t-193.5 -76.5t-193.5 76.5zM344 906h49l122 -136h-64l-82 93l-83 -93h-64z" />
    <glyph glyph-name="Udieresis" unicode="&#xdc;" horiz-adv-x="736" 
d="M174.5 64.5q-70.5 76.5 -70.5 211.5v424h60v-421q0 -112 53 -172t151 -60t151 60t53 172v421h60v-424q0 -135 -70.5 -211.5t-193.5 -76.5t-193.5 76.5zM234.5 871q14.5 14 36.5 14t36.5 -14t14.5 -36t-14 -36.5t-37 -14.5q-22 0 -36.5 14.5t-14.5 36.5t14.5 36z
M428.5 871q14.5 14 36.5 14t36.5 -14t14.5 -36t-14 -36.5t-37 -14.5q-22 0 -36.5 14.5t-14.5 36.5t14.5 36z" />
    <glyph glyph-name="Yacute" unicode="&#xdd;" horiz-adv-x="634" 
d="M287 257l-265 443h70l226 -378l225 378h69l-265 -441v-259h-60v257zM348 906h62l-70 -136h-55z" />
    <glyph glyph-name="Thorn" unicode="&#xde;" horiz-adv-x="640" 
d="M113 700h61v-115h161q121 0 189.5 -61t68.5 -170q0 -108 -68.5 -169t-189.5 -61h-161v-124h-61v700zM334 182q98 0 148 43.5t50 128.5q0 173 -198 173h-160v-345h160z" />
    <glyph glyph-name="germandbls" unicode="&#xdf;" horiz-adv-x="655" 
d="M166.5 688.5q63.5 64.5 175.5 64.5q66 0 116.5 -24.5t78.5 -69t28 -102.5q0 -56 -26.5 -100t-73.5 -67q66 -20 105 -71t39 -120q0 -59 -28.5 -104t-80.5 -70t-119 -25h-108v55h105q77 0 125 41.5t48 108.5t-49 108t-128 41h-96v55h76q66 0 109.5 41.5t43.5 105.5
q0 65 -44.5 104.5t-120.5 39.5q-87 0 -134 -50t-47 -139v-511h-58v514q0 110 63.5 174.5z" />
    <glyph glyph-name="agrave" unicode="&#xe0;" horiz-adv-x="624" 
d="M122.5 33.5q-52.5 41.5 -52.5 112.5q0 69 48 109.5t128 40.5h228v37q0 65 -43.5 104t-115.5 39q-58 0 -101 -27.5t-59 -74.5h-59q19 72 77.5 114t140.5 42q64 0 113.5 -24.5t77 -68.5t27.5 -101v-336h-48l-6 89q-34 -47 -89 -72t-124 -25q-90 0 -142.5 41.5zM165.5 72
q37.5 -28 101.5 -28q59 0 106.5 23t74.5 64t27 92v22h-227q-53 0 -86.5 -27t-33.5 -71q0 -47 37.5 -75zM297 754l55 -151h-55l-62 151h62z" />
    <glyph glyph-name="aacute" unicode="&#xe1;" horiz-adv-x="624" 
d="M122.5 33.5q-52.5 41.5 -52.5 112.5q0 69 48 109.5t128 40.5h228v37q0 65 -43.5 104t-115.5 39q-58 0 -101 -27.5t-59 -74.5h-59q19 72 77.5 114t140.5 42q64 0 113.5 -24.5t77 -68.5t27.5 -101v-336h-48l-6 89q-34 -47 -89 -72t-124 -25q-90 0 -142.5 41.5zM165.5 72
q37.5 -28 101.5 -28q59 0 106.5 23t74.5 64t27 92v22h-227q-53 0 -86.5 -27t-33.5 -71q0 -47 37.5 -75zM331 754h63l-63 -151h-55z" />
    <glyph glyph-name="acircumflex" unicode="&#xe2;" horiz-adv-x="624" 
d="M122.5 33.5q-52.5 41.5 -52.5 112.5q0 69 48 109.5t128 40.5h228v37q0 65 -43.5 104t-115.5 39q-58 0 -101 -27.5t-59 -74.5h-59q19 72 77.5 114t140.5 42q64 0 113.5 -24.5t77 -68.5t27.5 -101v-336h-48l-6 89q-34 -47 -89 -72t-124 -25q-90 0 -142.5 41.5zM165.5 72
q37.5 -28 101.5 -28q59 0 106.5 23t74.5 64t27 92v22h-227q-53 0 -86.5 -27t-33.5 -71q0 -47 37.5 -75zM291 754h46l124 -151h-63l-84 105l-84 -105h-63z" />
    <glyph glyph-name="atilde" unicode="&#xe3;" horiz-adv-x="624" 
d="M122.5 33.5q-52.5 41.5 -52.5 112.5q0 69 48 109.5t128 40.5h228v37q0 65 -43.5 104t-115.5 39q-58 0 -101 -27.5t-59 -74.5h-59q19 72 77.5 114t140.5 42q64 0 113.5 -24.5t77 -68.5t27.5 -101v-336h-48l-6 89q-34 -47 -89 -72t-124 -25q-90 0 -142.5 41.5zM165.5 72
q37.5 -28 101.5 -28q59 0 106.5 23t74.5 64t27 92v22h-227q-53 0 -86.5 -27t-33.5 -71q0 -47 37.5 -75zM168 635q0 40 21 63.5t57 23.5q24 0 40 -8.5t36 -25.5q16 -14 26.5 -20.5t25.5 -6.5q18 0 28 11.5t10 32.5v15h47v-19q0 -40 -21 -63.5t-57 -23.5q-24 0 -40 8.5
t-36 25.5q-16 14 -26.5 20.5t-25.5 6.5q-18 0 -28 -11.5t-10 -32.5v-15h-47v19z" />
    <glyph glyph-name="adieresis" unicode="&#xe4;" horiz-adv-x="624" 
d="M122.5 33.5q-52.5 41.5 -52.5 112.5q0 69 48 109.5t128 40.5h228v37q0 65 -43.5 104t-115.5 39q-58 0 -101 -27.5t-59 -74.5h-59q19 72 77.5 114t140.5 42q64 0 113.5 -24.5t77 -68.5t27.5 -101v-336h-48l-6 89q-34 -47 -89 -72t-124 -25q-90 0 -142.5 41.5zM165.5 72
q37.5 -28 101.5 -28q59 0 106.5 23t74.5 64t27 92v22h-227q-53 0 -86.5 -27t-33.5 -71q0 -47 37.5 -75zM180.5 700q14.5 14 36.5 14t36.5 -14t14.5 -36t-14 -36.5t-37 -14.5q-22 0 -36.5 14.5t-14.5 36.5t14.5 36zM374.5 700q14.5 14 36.5 14t36.5 -14t14.5 -36t-14 -36.5
t-37 -14.5q-22 0 -36.5 14.5t-14.5 36.5t14.5 36z" />
    <glyph glyph-name="aring" unicode="&#xe5;" horiz-adv-x="624" 
d="M122.5 33.5q-52.5 41.5 -52.5 112.5q0 69 48 109.5t128 40.5h228v37q0 65 -43.5 104t-115.5 39q-58 0 -101 -27.5t-59 -74.5h-59q19 72 77.5 114t140.5 42q64 0 113.5 -24.5t77 -68.5t27.5 -101v-336h-48l-6 89q-34 -47 -89 -72t-124 -25q-90 0 -142.5 41.5zM165.5 72
q37.5 -28 101.5 -28q59 0 106.5 23t74.5 64t27 92v22h-227q-53 0 -86.5 -27t-33.5 -71q0 -47 37.5 -75zM235 772q31 30 79 30t79 -30t31 -77t-31 -76.5t-79 -29.5t-79 29.5t-31 76.5t31 77zM266 647q19 -19 48 -19t48 19t19 48q0 30 -19 49t-48 19t-48 -19t-19 -49
q0 -29 19 -48z" />
    <glyph glyph-name="ae" unicode="&#xe6;" horiz-adv-x="1053" 
d="M607.5 23.5q-58.5 36.5 -88.5 101.5q-30 -64 -94.5 -101t-149.5 -37q-93 0 -149 43t-56 112q0 67 50.5 108t131.5 41h236v41q0 64 -46 104t-119 40q-60 0 -105.5 -27.5t-60.5 -73.5h-59q18 71 79 113t145 42q73 0 127 -33t77 -91q32 59 88 91.5t129 32.5q77 0 135 -36.5
t89 -102.5t31 -152h-453q5 -90 58.5 -143.5t137.5 -53.5q59 0 105.5 28.5t71.5 78.5h65q-29 -75 -92.5 -118.5t-147.5 -43.5q-77 0 -135.5 36.5zM169 69.5q41 -27.5 108 -27.5q60 0 108 22.5t75.5 63t27.5 90.5v22h-234q-56 0 -91 -27t-35 -70q0 -46 41 -73.5zM940 291
q-11 85 -65 134.5t-134 49.5q-81 0 -134 -50t-61 -134h394z" />
    <glyph glyph-name="ccedilla" unicode="&#xe7;" horiz-adv-x="636" 
d="M261 -198h53q29 0 44.5 12.5t15.5 35.5q0 22 -15.5 34.5t-44.5 12.5h-30l-8 11l28 79q-72 4 -128 40t-87 96t-31 136q0 79 33.5 140.5t93.5 96t137 34.5q92 0 162 -50.5t92 -134.5h-59q-25 61 -76.5 95t-118.5 34q-60 0 -107 -27t-73 -76t-26 -112t26 -112t73 -76.5
t107 -27.5q71 0 123.5 37t74.5 101h61q-25 -85 -86 -135.5t-147 -57.5l-19 -51q44 -3 69 -27t25 -63q0 -42 -28 -65.5t-77 -23.5h-57v44z" />
    <glyph glyph-name="egrave" unicode="&#xe8;" horiz-adv-x="643" 
d="M184 21.5q-60 34.5 -93 96t-33 141.5q0 79 33.5 140.5t93.5 96t138 34.5q80 0 141 -37t93 -104t30 -154h-470q8 -88 63.5 -140.5t141.5 -52.5q63 0 111 28t74 78l65 -1q-30 -74 -96.5 -117t-153.5 -43q-78 0 -138 34.5zM530 286q-10 88 -66 138.5t-141 50.5
q-86 0 -142 -51.5t-64 -137.5h413zM306 754l55 -151h-55l-63 151h63z" />
    <glyph glyph-name="eacute" unicode="&#xe9;" horiz-adv-x="643" 
d="M184 21.5q-60 34.5 -93 96t-33 141.5q0 79 33.5 140.5t93.5 96t138 34.5q80 0 141 -37t93 -104t30 -154h-470q8 -88 63.5 -140.5t141.5 -52.5q63 0 111 28t74 78l65 -1q-30 -74 -96.5 -117t-153.5 -43q-78 0 -138 34.5zM530 286q-10 88 -66 138.5t-141 50.5
q-86 0 -142 -51.5t-64 -137.5h413zM340 754h63l-63 -151h-55z" />
    <glyph glyph-name="ecircumflex" unicode="&#xea;" horiz-adv-x="643" 
d="M184 21.5q-60 34.5 -93 96t-33 141.5q0 79 33.5 140.5t93.5 96t138 34.5q80 0 141 -37t93 -104t30 -154h-470q8 -88 63.5 -140.5t141.5 -52.5q63 0 111 28t74 78l65 -1q-30 -74 -96.5 -117t-153.5 -43q-78 0 -138 34.5zM530 286q-10 88 -66 138.5t-141 50.5
q-86 0 -142 -51.5t-64 -137.5h413zM300 754h46l124 -151h-63l-84 105l-84 -105h-63z" />
    <glyph glyph-name="edieresis" unicode="&#xeb;" horiz-adv-x="643" 
d="M184 21.5q-60 34.5 -93 96t-33 141.5q0 79 33.5 140.5t93.5 96t138 34.5q80 0 141 -37t93 -104t30 -154h-470q8 -88 63.5 -140.5t141.5 -52.5q63 0 111 28t74 78l65 -1q-30 -74 -96.5 -117t-153.5 -43q-78 0 -138 34.5zM530 286q-10 88 -66 138.5t-141 50.5
q-86 0 -142 -51.5t-64 -137.5h413zM189.5 700q14.5 14 36.5 14t36.5 -14t14.5 -36t-14 -36.5t-37 -14.5q-22 0 -36.5 14.5t-14.5 36.5t14.5 36zM383.5 700q14.5 14 36.5 14t36.5 -14t14.5 -36t-14 -36.5t-37 -14.5q-22 0 -36.5 14.5t-14.5 36.5t14.5 36z" />
    <glyph glyph-name="igrave" unicode="&#xec;" horiz-adv-x="264" 
d="M103 517h58v-517h-58v517zM119 754l39 -151h-53l-51 151h65z" />
    <glyph glyph-name="iacute" unicode="&#xed;" horiz-adv-x="264" 
d="M103 517h58v-517h-58v517zM139 754h65l-51 -151h-53z" />
    <glyph glyph-name="icircumflex" unicode="&#xee;" horiz-adv-x="264" 
d="M103 517h58v-517h-58v517zM109 754h46l115 -151h-63l-75 103l-75 -103h-63z" />
    <glyph glyph-name="idieresis" unicode="&#xef;" horiz-adv-x="264" 
d="M103 517h58v-517h-58v517zM6.5 700q13.5 14 35.5 14t35.5 -14t13.5 -36q0 -23 -13.5 -37t-35.5 -14t-35.5 14t-13.5 37q0 22 13.5 36zM186.5 700q13.5 14 35.5 14t35.5 -14t13.5 -36q0 -23 -13.5 -37t-35.5 -14t-35.5 14t-13.5 37q0 22 13.5 36z" />
    <glyph glyph-name="eth" unicode="&#xf0;" horiz-adv-x="664" 
d="M189 21q-62 34 -96.5 95t-34.5 139q0 77 34 138t94.5 95.5t137.5 34.5q69 0 122.5 -29t83.5 -81q-14 70 -55.5 129.5t-109.5 100.5l-224 -96v55l165 72q-84 35 -187 45v54q146 -19 248 -74l163 69v-54l-110 -48q179 -127 179 -386q0 -92 -34 -158t-95 -100.5t-140 -34.5
t-141 34zM143 145.5q27 -48.5 75 -75.5t110 -27q61 0 109 27t75 75.5t27 109.5t-27 109.5t-75 75.5t-109 27q-62 0 -110 -27t-75 -75.5t-27 -109.5t27 -109.5z" />
    <glyph glyph-name="ntilde" unicode="&#xf1;" horiz-adv-x="663" 
d="M103 517h49l5 -100q30 55 81.5 84t114.5 29q101 0 159.5 -66t58.5 -178v-286h-58v281q0 89 -45 141t-122 52q-54 0 -96 -26t-65.5 -72.5t-23.5 -107.5v-268h-58v517zM188 635q0 40 21 63.5t57 23.5q24 0 40 -8.5t36 -25.5q16 -14 26.5 -20.5t25.5 -6.5q18 0 28 11.5
t10 32.5v15h47v-19q0 -40 -21 -63.5t-57 -23.5q-24 0 -40 8.5t-36 25.5q-16 14 -26.5 20.5t-25.5 6.5q-19 0 -28.5 -11.5t-9.5 -32.5v-15h-47v19z" />
    <glyph glyph-name="ograve" unicode="&#xf2;" horiz-adv-x="659" 
d="M189 21.5q-62 34.5 -96.5 96.5t-34.5 141t34.5 140.5t96.5 96t141 34.5t140.5 -34.5t96 -96t34.5 -140.5t-34.5 -141t-96 -96.5t-140.5 -34.5t-141 34.5zM143 147q27 -49 75.5 -76.5t111.5 -27.5q62 0 110.5 27.5t75.5 76.5t27 112t-27 112t-75.5 76t-110.5 27
q-63 0 -111.5 -27t-75.5 -76t-27 -112t27 -112zM312 754l55 -151h-54l-63 151h62z" />
    <glyph glyph-name="oacute" unicode="&#xf3;" horiz-adv-x="659" 
d="M189 21.5q-62 34.5 -96.5 96.5t-34.5 141t34.5 140.5t96.5 96t141 34.5t140.5 -34.5t96 -96t34.5 -140.5t-34.5 -141t-96 -96.5t-140.5 -34.5t-141 34.5zM143 147q27 -49 75.5 -76.5t111.5 -27.5q62 0 110.5 27.5t75.5 76.5t27 112t-27 112t-75.5 76t-110.5 27
q-63 0 -111.5 -27t-75.5 -76t-27 -112t27 -112zM347 754h62l-63 -151h-54z" />
    <glyph glyph-name="ocircumflex" unicode="&#xf4;" horiz-adv-x="659" 
d="M189 21.5q-62 34.5 -96.5 96.5t-34.5 141t34.5 140.5t96.5 96t141 34.5t140.5 -34.5t96 -96t34.5 -140.5t-34.5 -141t-96 -96.5t-140.5 -34.5t-141 34.5zM143 147q27 -49 75.5 -76.5t111.5 -27.5q62 0 110.5 27.5t75.5 76.5t27 112t-27 112t-75.5 76t-110.5 27
q-63 0 -111.5 -27t-75.5 -76t-27 -112t27 -112zM306 754h47l123 -151h-63l-83 105l-84 -105h-63z" />
    <glyph glyph-name="otilde" unicode="&#xf5;" horiz-adv-x="659" 
d="M189 21.5q-62 34.5 -96.5 96.5t-34.5 141t34.5 140.5t96.5 96t141 34.5t140.5 -34.5t96 -96t34.5 -140.5t-34.5 -141t-96 -96.5t-140.5 -34.5t-141 34.5zM143 147q27 -49 75.5 -76.5t111.5 -27.5q62 0 110.5 27.5t75.5 76.5t27 112t-27 112t-75.5 76t-110.5 27
q-63 0 -111.5 -27t-75.5 -76t-27 -112t27 -112zM184 635q0 40 21 63.5t57 23.5q24 0 40 -8.5t36 -25.5q16 -14 26.5 -20.5t25.5 -6.5q18 0 28 11.5t10 32.5v15h47v-19q0 -40 -21.5 -63.5t-57.5 -23.5q-24 0 -39.5 8.5t-35.5 25.5q-16 14 -27 20.5t-26 6.5q-18 0 -27.5 -11.5
t-9.5 -32.5v-15h-47v19z" />
    <glyph glyph-name="odieresis" unicode="&#xf6;" horiz-adv-x="659" 
d="M189 21.5q-62 34.5 -96.5 96.5t-34.5 141t34.5 140.5t96.5 96t141 34.5t140.5 -34.5t96 -96t34.5 -140.5t-34.5 -141t-96 -96.5t-140.5 -34.5t-141 34.5zM143 147q27 -49 75.5 -76.5t111.5 -27.5q62 0 110.5 27.5t75.5 76.5t27 112t-27 112t-75.5 76t-110.5 27
q-63 0 -111.5 -27t-75.5 -76t-27 -112t27 -112zM195.5 700q14.5 14 36.5 14q23 0 37 -14t14 -36q0 -23 -14 -37t-37 -14q-22 0 -36.5 14.5t-14.5 36.5t14.5 36zM390.5 700q14.5 14 36.5 14t36.5 -14t14.5 -36t-14 -36.5t-37 -14.5q-22 0 -36.5 14.5t-14.5 36.5t14.5 36z" />
    <glyph glyph-name="divide" unicode="&#xf7;" horiz-adv-x="592" 
d="M262.5 120.5q-13.5 13.5 -13.5 33.5q0 19 13.5 32t33.5 13q21 0 34 -12.5t13 -32.5q0 -21 -13 -34t-34 -13q-20 0 -33.5 13.5zM93 356h406v-54h-406v54zM262.5 537q13.5 13 33.5 13q22 0 34.5 -12.5t12.5 -33.5q0 -20 -12.5 -33t-34.5 -13q-20 0 -33.5 13t-13.5 33
t13.5 33z" />
    <glyph glyph-name="oslash" unicode="&#xf8;" horiz-adv-x="659" 
d="M150 48q-44 37 -68 91.5t-24 119.5q0 79 34.5 140.5t96.5 96t141 34.5q73 0 133 -31l39 56h68l-61 -86q44 -36 68 -90.5t24 -119.5q0 -79 -34.5 -141t-96 -96.5t-140.5 -34.5q-75 0 -134 31l-39 -55h-68zM133.5 166q17.5 -42 50.5 -71l247 357q-46 22 -101 22
q-63 0 -111.5 -27t-75.5 -76t-27 -112q0 -51 17.5 -93zM330 43q62 0 110.5 27.5t75.5 76.5t27 112q0 50 -17.5 92t-50.5 71l-247 -357q47 -22 102 -22z" />
    <glyph glyph-name="ugrave" unicode="&#xf9;" horiz-adv-x="657" 
d="M150 53q-58 66 -58 178v286h58v-281q0 -89 44.5 -141t120.5 -52q53 0 94 26t64 73t23 108v267h58v-517h-48l-6 101q-30 -55 -80.5 -84.5t-112.5 -29.5q-99 0 -157 66zM305 754l56 -151h-55l-63 151h62z" />
    <glyph glyph-name="uacute" unicode="&#xfa;" horiz-adv-x="657" 
d="M150 53q-58 66 -58 178v286h58v-281q0 -89 44.5 -141t120.5 -52q53 0 94 26t64 73t23 108v267h58v-517h-48l-6 101q-30 -55 -80.5 -84.5t-112.5 -29.5q-99 0 -157 66zM340 754h62l-63 -151h-54z" />
    <glyph glyph-name="ucircumflex" unicode="&#xfb;" horiz-adv-x="657" 
d="M150 53q-58 66 -58 178v286h58v-281q0 -89 44.5 -141t120.5 -52q53 0 94 26t64 73t23 108v267h58v-517h-48l-6 101q-30 -55 -80.5 -84.5t-112.5 -29.5q-99 0 -157 66zM300 754h46l124 -151h-64l-83 105l-84 -105h-63z" />
    <glyph glyph-name="udieresis" unicode="&#xfc;" horiz-adv-x="657" 
d="M150 53q-58 66 -58 178v286h58v-281q0 -89 44.5 -141t120.5 -52q53 0 94 26t64 73t23 108v267h58v-517h-48l-6 101q-30 -55 -80.5 -84.5t-112.5 -29.5q-99 0 -157 66zM189 700q14 14 37 14q22 0 36.5 -14t14.5 -36t-14 -36.5t-37 -14.5t-37 14t-14 37q0 22 14 36z
M383.5 700q14.5 14 36.5 14t36.5 -14t14.5 -36t-14 -36.5t-37 -14.5q-22 0 -36.5 14.5t-14.5 36.5t14.5 36z" />
    <glyph glyph-name="yacute" unicode="&#xfd;" horiz-adv-x="557" 
d="M71 -145h43q38 0 59.5 6.5t35.5 23t28 50.5l29 73l-246 509h65l122 -255l89 -184l74 184l105 255h61l-247 -604q-18 -45 -39.5 -69.5t-51.5 -34t-78 -9.5h-49v55zM302 754h62l-63 -151h-54z" />
    <glyph glyph-name="thorn" unicode="&#xfe;" horiz-adv-x="702" 
d="M252.5 16.5q-56.5 29.5 -91.5 81.5v-298h-58v940h58v-321q35 53 91.5 82t126.5 29q77 0 137.5 -35t94 -96.5t33.5 -139.5t-33.5 -140t-94 -97t-137.5 -35q-70 0 -126.5 29.5zM186 147q27 -49 75.5 -76.5t111.5 -27.5t111 27.5t75 76.5t27 112q0 62 -27 111t-75 76.5
t-111 27.5t-111.5 -27.5t-75.5 -76.5t-27 -111q0 -63 27 -112z" />
    <glyph glyph-name="ydieresis" unicode="&#xff;" horiz-adv-x="557" 
d="M71 -145h43q38 0 59.5 6.5t35.5 23t28 50.5l29 73l-246 509h65l122 -255l89 -184l74 184l105 255h61l-247 -604q-18 -45 -39.5 -69.5t-51.5 -34t-78 -9.5h-49v55zM150.5 700q14.5 14 36.5 14q23 0 37 -14t14 -36q0 -23 -14 -37t-37 -14q-22 0 -36.5 14.5t-14.5 36.5
t14.5 36zM345.5 700q14.5 14 36.5 14t36.5 -14t14.5 -36t-14 -36.5t-37 -14.5q-22 0 -36.5 14.5t-14.5 36.5t14.5 36z" />
    <glyph glyph-name="Amacron" unicode="&#x100;" horiz-adv-x="683" 
d="M312 700h58l290 -700h-64l-73 176h-364l-72 -176h-65zM500 232l-159 385l-158 -385h317zM195 861h292v-49h-292v49z" />
    <glyph glyph-name="amacron" unicode="&#x101;" horiz-adv-x="624" 
d="M122.5 33.5q-52.5 41.5 -52.5 112.5q0 69 48 109.5t128 40.5h228v37q0 65 -43.5 104t-115.5 39q-58 0 -101 -27.5t-59 -74.5h-59q19 72 77.5 114t140.5 42q64 0 113.5 -24.5t77 -68.5t27.5 -101v-336h-48l-6 89q-34 -47 -89 -72t-124 -25q-90 0 -142.5 41.5zM165.5 72
q37.5 -28 101.5 -28q59 0 106.5 23t74.5 64t27 92v22h-227q-53 0 -86.5 -27t-33.5 -71q0 -47 37.5 -75zM175 687h278v-48h-278v48z" />
    <glyph glyph-name="Abreve" unicode="&#x102;" horiz-adv-x="683" 
d="M312 700h58l290 -700h-64l-73 176h-364l-72 -176h-65zM500 232l-159 385l-158 -385h317zM211 906h49v-16q0 -38 21.5 -59.5t59.5 -21.5t59.5 21.5t21.5 59.5v16h49v-19q0 -55 -35.5 -88.5t-94.5 -33.5t-94.5 33.5t-35.5 88.5v19z" />
    <glyph glyph-name="abreve" unicode="&#x103;" horiz-adv-x="624" 
d="M122.5 33.5q-52.5 41.5 -52.5 112.5q0 69 48 109.5t128 40.5h228v37q0 65 -43.5 104t-115.5 39q-58 0 -101 -27.5t-59 -74.5h-59q19 72 77.5 114t140.5 42q64 0 113.5 -24.5t77 -68.5t27.5 -101v-336h-48l-6 89q-34 -47 -89 -72t-124 -25q-90 0 -142.5 41.5zM165.5 72
q37.5 -28 101.5 -28q59 0 106.5 23t74.5 64t27 92v22h-227q-53 0 -86.5 -27t-33.5 -71q0 -47 37.5 -75zM176 754h48v-22q0 -42 24.5 -66.5t65.5 -24.5t65.5 24.5t24.5 66.5v22h49v-25q0 -59 -38.5 -95.5t-100.5 -36.5t-100 36.5t-38 95.5v25z" />
    <glyph glyph-name="Aogonek" unicode="&#x104;" horiz-adv-x="683" 
d="M312 700h58l290 -700q-79 -50 -79 -102q0 -45 58 -45h32v-48h-39q-49 0 -75.5 21.5t-26.5 61.5q0 62 65 115l-72 173h-364l-72 -176h-65zM500 232l-159 385l-158 -385h317z" />
    <glyph glyph-name="aogonek" unicode="&#x105;" horiz-adv-x="624" 
d="M122.5 33.5q-52.5 41.5 -52.5 112.5q0 69 48 109.5t128 40.5h228v37q0 65 -43.5 104t-115.5 39q-58 0 -101 -27.5t-59 -74.5h-59q19 72 77.5 114t140.5 42q64 0 113.5 -24.5t77 -68.5t27.5 -101v-336q-77 -49 -77 -100q0 -45 56 -45h32v-46h-37q-49 0 -75 21t-26 60
q0 66 78 124l-5 75q-34 -47 -89 -72t-124 -25q-90 0 -142.5 41.5zM165.5 72q37.5 -28 101.5 -28q59 0 106.5 23t74.5 64t27 92v22h-227q-53 0 -86.5 -27t-33.5 -71q0 -47 37.5 -75z" />
    <glyph glyph-name="Cacute" unicode="&#x106;" horiz-adv-x="822" 
d="M236 33.5q-81 46.5 -126.5 129t-45.5 187.5t45.5 187.5t126.5 129t183 46.5q120 0 211.5 -65t125.5 -175h-64q-30 83 -103 131t-169 48q-85 0 -152 -38t-104.5 -107t-37.5 -157t37.5 -157t104.5 -107t152 -38q99 0 174 50t104 137h64q-21 -75 -71 -131t-120 -86.5
t-152 -30.5q-102 0 -183 46.5zM448 906h62l-70 -136h-55z" />
    <glyph glyph-name="cacute" unicode="&#x107;" horiz-adv-x="636" 
d="M185 22q-60 35 -93.5 96.5t-33.5 140.5t33.5 140.5t93.5 96t137 34.5q92 0 162 -50.5t92 -134.5h-59q-25 61 -76.5 95t-118.5 34q-60 0 -107 -27t-73 -76t-26 -112t26 -112t73 -76.5t107 -27.5q71 0 123.5 37t74.5 101h61q-26 -91 -95 -142.5t-164 -51.5q-77 0 -137 35z
M339 754h63l-63 -151h-55z" />
    <glyph glyph-name="Ccircumflex" unicode="&#x108;" horiz-adv-x="822" 
d="M236 33.5q-81 46.5 -126.5 129t-45.5 187.5t45.5 187.5t126.5 129t183 46.5q120 0 211.5 -65t125.5 -175h-64q-30 83 -103 131t-169 48q-85 0 -152 -38t-104.5 -107t-37.5 -157t37.5 -157t104.5 -107t152 -38q99 0 174 50t104 137h64q-21 -75 -71 -131t-120 -86.5
t-152 -30.5q-102 0 -183 46.5zM393 906h49l123 -136h-65l-82 93l-82 -93h-65z" />
    <glyph glyph-name="ccircumflex" unicode="&#x109;" horiz-adv-x="636" 
d="M185 22q-60 35 -93.5 96.5t-33.5 140.5t33.5 140.5t93.5 96t137 34.5q92 0 162 -50.5t92 -134.5h-59q-25 61 -76.5 95t-118.5 34q-60 0 -107 -27t-73 -76t-26 -112t26 -112t73 -76.5t107 -27.5q71 0 123.5 37t74.5 101h61q-26 -91 -95 -142.5t-164 -51.5q-77 0 -137 35z
M299 754h46l124 -151h-63l-84 105l-84 -105h-63z" />
    <glyph glyph-name="Cdotaccent" unicode="&#x10a;" horiz-adv-x="822" 
d="M236 33.5q-81 46.5 -126.5 129t-45.5 187.5t45.5 187.5t126.5 129t183 46.5q120 0 211.5 -65t125.5 -175h-64q-30 83 -103 131t-169 48q-85 0 -152 -38t-104.5 -107t-37.5 -157t37.5 -157t104.5 -107t152 -38q99 0 174 50t104 137h64q-21 -75 -71 -131t-120 -86.5
t-152 -30.5q-102 0 -183 46.5zM377.5 874.5q15.5 15.5 39.5 15.5t39.5 -15.5t15.5 -38.5t-15 -38.5t-40 -15.5q-24 0 -39.5 15.5t-15.5 38.5t15.5 38.5z" />
    <glyph glyph-name="cdotaccent" unicode="&#x10b;" horiz-adv-x="636" 
d="M185 22q-60 35 -93.5 96.5t-33.5 140.5t33.5 140.5t93.5 96t137 34.5q92 0 162 -50.5t92 -134.5h-59q-25 61 -76.5 95t-118.5 34q-60 0 -107 -27t-73 -76t-26 -112t26 -112t73 -76.5t107 -27.5q71 0 123.5 37t74.5 101h61q-26 -91 -95 -142.5t-164 -51.5q-77 0 -137 35z
M283.5 701q14.5 15 38.5 15t38.5 -15t14.5 -37q0 -23 -14.5 -38t-38.5 -15t-38.5 15t-14.5 38q0 22 14.5 37z" />
    <glyph glyph-name="Ccaron" unicode="&#x10c;" horiz-adv-x="822" 
d="M236 33.5q-81 46.5 -126.5 129t-45.5 187.5t45.5 187.5t126.5 129t183 46.5q120 0 211.5 -65t125.5 -175h-64q-30 83 -103 131t-169 48q-85 0 -152 -38t-104.5 -107t-37.5 -157t37.5 -157t104.5 -107t152 -38q99 0 174 50t104 137h64q-21 -75 -71 -131t-120 -86.5
t-152 -30.5q-102 0 -183 46.5zM335 906l82 -93l82 93h65l-123 -136h-48l-123 136h65z" />
    <glyph glyph-name="ccaron" unicode="&#x10d;" horiz-adv-x="636" 
d="M185 22q-60 35 -93.5 96.5t-33.5 140.5t33.5 140.5t93.5 96t137 34.5q92 0 162 -50.5t92 -134.5h-59q-25 61 -76.5 95t-118.5 34q-60 0 -107 -27t-73 -76t-26 -112t26 -112t73 -76.5t107 -27.5q71 0 123.5 37t74.5 101h61q-26 -91 -95 -142.5t-164 -51.5q-77 0 -137 35z
M239 754l83 -105l84 105h63l-124 -151h-46l-124 151h64z" />
    <glyph glyph-name="Dcaron" unicode="&#x10e;" horiz-adv-x="762" 
d="M113 700h221q110 0 192.5 -43.5t127 -122.5t44.5 -184t-44.5 -184t-127 -122.5t-192.5 -43.5h-221v700zM334 58q92 0 160.5 36t105 102t36.5 154t-37 154t-105.5 102t-161.5 36h-158v-584h160zM257 906l82 -93l82 93h65l-123 -136h-48l-123 136h65z" />
    <glyph glyph-name="dcaron" unicode="&#x10f;" horiz-adv-x="729" 
d="M185.5 22q-60.5 35 -94 97t-33.5 140t33.5 139.5t94 96.5t137.5 35q70 0 126.5 -29t91.5 -80v319h58v-740h-48l-7 102q-34 -54 -91.5 -84.5t-129.5 -30.5q-77 0 -137.5 35zM143 147q27 -49 75.5 -76.5t111.5 -27.5q62 0 110.5 27.5t75.5 76.5t27 112q0 62 -27 111
t-75.5 76.5t-110.5 27.5q-63 0 -111.5 -27.5t-75.5 -76.5t-27 -111q0 -63 27 -112zM714 740h58l-43 -190h-49z" />
    <glyph glyph-name="Dcroat" unicode="&#x110;" horiz-adv-x="794" 
d="M145 325h-130v58h130v317h221q110 0 192.5 -43.5t127 -122.5t44.5 -184t-44.5 -184.5t-127 -122.5t-192.5 -43h-221v325zM366 58q92 0 160 35.5t105 101.5t37 155t-37 155t-105.5 101.5t-161.5 35.5h-159v-260h218v-57h-218v-267h161z" />
    <glyph glyph-name="dcroat" unicode="&#x111;" horiz-adv-x="725" 
d="M185.5 22q-60.5 35 -94 97t-33.5 140t33.5 139.5t94 96.5t137.5 35q70 0 126.5 -29t91.5 -80v205h-203v51h203v63h58v-63h116v-51h-116v-626h-48l-7 102q-34 -54 -91.5 -84.5t-129.5 -30.5q-77 0 -137.5 35zM143 147q27 -49 75.5 -76.5t111.5 -27.5q62 0 110.5 27.5
t75.5 76.5t27 112q0 62 -27 111t-75.5 76.5t-110.5 27.5q-63 0 -111.5 -27.5t-75.5 -76.5t-27 -111q0 -63 27 -112z" />
    <glyph glyph-name="Emacron" unicode="&#x112;" horiz-adv-x="609" 
d="M113 700h412v-57h-351v-258h325v-56h-325v-272h362v-57h-423v700zM173 861h292v-49h-292v49z" />
    <glyph glyph-name="emacron" unicode="&#x113;" horiz-adv-x="643" 
d="M184 21.5q-60 34.5 -93 96t-33 141.5q0 79 33.5 140.5t93.5 96t138 34.5q80 0 141 -37t93 -104t30 -154h-470q8 -88 63.5 -140.5t141.5 -52.5q63 0 111 28t74 78l65 -1q-30 -74 -96.5 -117t-153.5 -43q-78 0 -138 34.5zM530 286q-10 88 -66 138.5t-141 50.5
q-86 0 -142 -51.5t-64 -137.5h413zM184 687h278v-48h-278v48z" />
    <glyph glyph-name="Ebreve" unicode="&#x114;" horiz-adv-x="609" 
d="M113 700h412v-57h-351v-258h325v-56h-325v-272h362v-57h-423v700zM190 906h48v-16q0 -38 21.5 -59.5t59.5 -21.5t59.5 21.5t21.5 59.5v16h49v-19q0 -55 -35.5 -88.5t-94.5 -33.5t-94 33.5t-35 88.5v19z" />
    <glyph glyph-name="ebreve" unicode="&#x115;" horiz-adv-x="643" 
d="M184 21.5q-60 34.5 -93 96t-33 141.5q0 79 33.5 140.5t93.5 96t138 34.5q80 0 141 -37t93 -104t30 -154h-470q8 -88 63.5 -140.5t141.5 -52.5q63 0 111 28t74 78l65 -1q-30 -74 -96.5 -117t-153.5 -43q-78 0 -138 34.5zM530 286q-10 88 -66 138.5t-141 50.5
q-86 0 -142 -51.5t-64 -137.5h413zM185 754h48v-22q0 -42 24.5 -66.5t65.5 -24.5t65.5 24.5t24.5 66.5v22h48v-25q0 -59 -38 -95.5t-100 -36.5t-100 36.5t-38 95.5v25z" />
    <glyph glyph-name="Edotaccent" unicode="&#x116;" horiz-adv-x="609" 
d="M113 700h412v-57h-351v-258h325v-56h-325v-272h362v-57h-423v700zM279.5 874.5q15.5 15.5 39.5 15.5t39.5 -15.5t15.5 -38.5t-15 -38.5t-40 -15.5q-24 0 -39.5 15.5t-15.5 38.5t15.5 38.5z" />
    <glyph glyph-name="edotaccent" unicode="&#x117;" horiz-adv-x="643" 
d="M184 21.5q-60 34.5 -93 96t-33 141.5q0 79 33.5 140.5t93.5 96t138 34.5q80 0 141 -37t93 -104t30 -154h-470q8 -88 63.5 -140.5t141.5 -52.5q63 0 111 28t74 78l65 -1q-30 -74 -96.5 -117t-153.5 -43q-78 0 -138 34.5zM530 286q-10 88 -66 138.5t-141 50.5
q-86 0 -142 -51.5t-64 -137.5h413zM284.5 701q14.5 15 38.5 15t38.5 -15t14.5 -37q0 -23 -14.5 -38t-38.5 -15t-38.5 15t-14.5 38q0 22 14.5 37z" />
    <glyph glyph-name="Eogonek" unicode="&#x118;" horiz-adv-x="609" 
d="M113 700h412v-57h-351v-258h325v-56h-325v-272h362v-57q-79 -50 -79 -102q0 -45 58 -45h32v-48h-39q-49 0 -75.5 21.5t-26.5 61.5q0 60 62 112h-355v700z" />
    <glyph glyph-name="eogonek" unicode="&#x119;" horiz-adv-x="643" 
d="M327 -165q-26 21 -26 60q0 49 41 93q-6 -1 -20 -1q-78 0 -138 34.5t-93 96t-33 141.5q0 79 33.5 140.5t93.5 96t138 34.5q80 0 140.5 -37t92.5 -104t31 -154h-470q8 -88 63.5 -140.5t141.5 -52.5q62 0 110.5 27.5t74.5 78.5h66q-19 -46 -55 -82.5t-86 -59.5
q-38 -18 -59.5 -44.5t-21.5 -55.5q0 -46 56 -46h32v-46h-37q-49 0 -75 21zM530 286q-11 88 -66.5 138.5t-140.5 50.5q-86 0 -142 -51.5t-64 -137.5h413z" />
    <glyph glyph-name="Ecaron" unicode="&#x11a;" horiz-adv-x="609" 
d="M113 700h412v-57h-351v-258h325v-56h-325v-272h362v-57h-423v700zM237 906l82 -93l82 93h65l-123 -136h-48l-123 136h65z" />
    <glyph glyph-name="ecaron" unicode="&#x11b;" horiz-adv-x="643" 
d="M184 21.5q-60 34.5 -93 96t-33 141.5q0 79 33.5 140.5t93.5 96t138 34.5q80 0 141 -37t93 -104t30 -154h-470q8 -88 63.5 -140.5t141.5 -52.5q63 0 111 28t74 78l65 -1q-30 -74 -96.5 -117t-153.5 -43q-78 0 -138 34.5zM530 286q-10 88 -66 138.5t-141 50.5
q-86 0 -142 -51.5t-64 -137.5h413zM240 754l83 -105l84 105h63l-124 -151h-46l-124 151h64z" />
    <glyph glyph-name="Gcircumflex" unicode="&#x11c;" horiz-adv-x="832" 
d="M235.5 33.5q-80.5 46.5 -126 129t-45.5 187.5t45 187.5t125.5 129t181.5 46.5q120 0 210 -63t124 -166h-66q-33 79 -102.5 123.5t-162.5 44.5q-86 0 -152.5 -38t-103.5 -106.5t-37 -157.5q0 -88 37 -157t103.5 -107t152.5 -38q80 0 143 33.5t100.5 93t43.5 135.5h-310v58
h375q1 -110 -43 -196.5t-124.5 -135.5t-185.5 -49q-102 0 -182.5 46.5zM393 906h48l123 -136h-65l-82 93l-82 -93h-65z" />
    <glyph glyph-name="gcircumflex" unicode="&#x11d;" horiz-adv-x="686" 
d="M169.5 -166.5q-65.5 46.5 -80.5 125.5h59q13 -54 62 -85.5t120 -31.5q89 0 142 49t53 132v84q-35 -48 -89 -74.5t-119 -26.5q-75 0 -134 33.5t-92 93.5t-33 135t33 135t92.5 93.5t133.5 33.5q67 0 122 -28t90 -78l5 93h49v-496q0 -69 -31.5 -122t-89 -82.5t-132.5 -29.5
q-95 0 -160.5 46.5zM142.5 161.5q26.5 -46.5 73.5 -72.5t107 -26t107 26t73 72.5t26 106.5t-26 107t-73 73t-107 26t-107 -26t-73.5 -73t-26.5 -107t26.5 -106.5zM321 754h47l123 -151h-63l-84 105l-83 -105h-63z" />
    <glyph glyph-name="Gbreve" unicode="&#x11e;" horiz-adv-x="832" 
d="M235.5 33.5q-80.5 46.5 -126 129t-45.5 187.5t45 187.5t125.5 129t181.5 46.5q120 0 210 -63t124 -166h-66q-33 79 -102.5 123.5t-162.5 44.5q-86 0 -152.5 -38t-103.5 -106.5t-37 -157.5q0 -88 37 -157t103.5 -107t152.5 -38q80 0 143 33.5t100.5 93t43.5 135.5h-310v58
h375q1 -110 -43 -196.5t-124.5 -135.5t-185.5 -49q-102 0 -182.5 46.5zM287 906h48v-16q0 -38 21.5 -59.5t59.5 -21.5t59.5 21.5t21.5 59.5v16h49v-19q0 -55 -35.5 -88.5t-94.5 -33.5t-94 33.5t-35 88.5v19z" />
    <glyph glyph-name="gbreve" unicode="&#x11f;" horiz-adv-x="686" 
d="M169.5 -166.5q-65.5 46.5 -80.5 125.5h59q13 -54 62 -85.5t120 -31.5q89 0 142 49t53 132v84q-35 -48 -89 -74.5t-119 -26.5q-75 0 -134 33.5t-92 93.5t-33 135t33 135t92.5 93.5t133.5 33.5q67 0 122 -28t90 -78l5 93h49v-496q0 -69 -31.5 -122t-89 -82.5t-132.5 -29.5
q-95 0 -160.5 46.5zM142.5 161.5q26.5 -46.5 73.5 -72.5t107 -26t107 26t73 72.5t26 106.5t-26 107t-73 73t-107 26t-107 -26t-73.5 -73t-26.5 -107t26.5 -106.5zM206 754h49v-22q0 -42 24 -66.5t65 -24.5q42 0 66 24.5t24 66.5v22h49v-25q0 -59 -38.5 -95.5t-100.5 -36.5
t-100 36.5t-38 95.5v25z" />
    <glyph glyph-name="Gdotaccent" unicode="&#x120;" horiz-adv-x="832" 
d="M235.5 33.5q-80.5 46.5 -126 129t-45.5 187.5t45 187.5t125.5 129t181.5 46.5q120 0 210 -63t124 -166h-66q-33 79 -102.5 123.5t-162.5 44.5q-86 0 -152.5 -38t-103.5 -106.5t-37 -157.5q0 -88 37 -157t103.5 -107t152.5 -38q80 0 143 33.5t100.5 93t43.5 135.5h-310v58
h375q1 -110 -43 -196.5t-124.5 -135.5t-185.5 -49q-102 0 -182.5 46.5zM376.5 874.5q15.5 15.5 39.5 15.5t39.5 -15.5t15.5 -38.5t-15 -38.5t-40 -15.5q-24 0 -39.5 15.5t-15.5 38.5t15.5 38.5z" />
    <glyph glyph-name="gdotaccent" unicode="&#x121;" horiz-adv-x="686" 
d="M169.5 -166.5q-65.5 46.5 -80.5 125.5h59q13 -54 62 -85.5t120 -31.5q89 0 142 49t53 132v84q-35 -48 -89 -74.5t-119 -26.5q-75 0 -134 33.5t-92 93.5t-33 135t33 135t92.5 93.5t133.5 33.5q67 0 122 -28t90 -78l5 93h49v-496q0 -69 -31.5 -122t-89 -82.5t-132.5 -29.5
q-95 0 -160.5 46.5zM142.5 161.5q26.5 -46.5 73.5 -72.5t107 -26t107 26t73 72.5t26 106.5t-26 107t-73 73t-107 26t-107 -26t-73.5 -73t-26.5 -107t26.5 -106.5zM306 701q15 15 38 15q24 0 39 -15t15 -37q0 -23 -15 -38t-39 -15q-23 0 -38 15t-15 38q0 22 15 37z" />
    <glyph glyph-name="uni0122" unicode="&#x122;" horiz-adv-x="832" 
d="M235.5 33.5q-80.5 46.5 -126 129t-45.5 187.5t45 187.5t125.5 129t181.5 46.5q120 0 210 -63t124 -166h-66q-33 79 -102.5 123.5t-162.5 44.5q-86 0 -152.5 -38t-103.5 -106.5t-37 -157.5q0 -88 37 -157t103.5 -107t152.5 -38q80 0 143 33.5t100.5 93t43.5 135.5h-310v58
h375q1 -110 -43 -196.5t-124.5 -135.5t-185.5 -49q-102 0 -182.5 46.5zM375.5 -83q13.5 13 35.5 13q27 0 44 -21t17 -56q0 -48 -25 -86t-61 -46v34q23 11 35 35.5t10 54.5q-12 -6 -24 -6q-19 0 -32 12.5t-13 32.5t13.5 33z" />
    <glyph glyph-name="uni0123" unicode="&#x123;" horiz-adv-x="686" 
d="M169.5 -166.5q-65.5 46.5 -80.5 125.5h59q13 -54 62 -85.5t120 -31.5q89 0 142 49t53 132v84q-35 -48 -89 -74.5t-119 -26.5q-75 0 -134 33.5t-92 93.5t-33 135t33 135t92.5 93.5t133.5 33.5q67 0 122 -28t90 -78l5 93h49v-496q0 -69 -31.5 -122t-89 -82.5t-132.5 -29.5
q-95 0 -160.5 46.5zM142.5 161.5q26.5 -46.5 73.5 -72.5t107 -26t107 26t73 72.5t26 106.5t-26 107t-73 73t-107 26t-107 -26t-73.5 -73t-26.5 -107t26.5 -106.5zM315 750.5q25 37.5 62 45.5v-34q-23 -11 -35.5 -36t-10.5 -54q12 6 24 6q20 0 32.5 -12.5t12.5 -32.5
t-13.5 -33t-35.5 -13q-27 0 -44 21.5t-17 56.5q0 48 25 85.5z" />
    <glyph glyph-name="Hcircumflex" unicode="&#x124;" horiz-adv-x="758" 
d="M584 328h-410v-328h-61v700h61v-314h410v314h61v-700h-61v328zM355 906h49l122 -136h-64l-82 93l-83 -93h-64z" />
    <glyph glyph-name="hcircumflex" unicode="&#x125;" horiz-adv-x="663" 
d="M103 740h58v-317q30 52 81 79.5t113 27.5q100 0 158 -65t58 -177v-288h-58v283q0 89 -44.5 140t-121.5 51q-54 0 -96.5 -25.5t-66 -72t-23.5 -107.5v-269h-58v740zM108 946h49l122 -136h-64l-82 93l-83 -93h-64z" />
    <glyph glyph-name="Hbar" unicode="&#x126;" horiz-adv-x="773" 
d="M592 325h-411v-325h-60v540h-94v49h94v111h60v-111h411v111h60v-111h95v-49h-95v-540h-60v325zM592 383v159h-411v-159h411z" />
    <glyph glyph-name="hbar" unicode="&#x127;" horiz-adv-x="686" 
d="M126 617h-116v50h116v73h58v-73h203v-50h-203v-197q30 52 80.5 79.5t112.5 27.5q101 0 159 -64.5t58 -177.5v-285h-58v280q0 90 -44.5 140.5t-121.5 50.5q-54 0 -96.5 -25.5t-66 -71.5t-23.5 -107v-267h-58v617z" />
    <glyph glyph-name="Itilde" unicode="&#x128;" horiz-adv-x="287" 
d="M113 700h61v-700h-61v700zM-1 801q0 40 21 63.5t57 23.5q24 0 40.5 -9t35.5 -26q17 -14 27.5 -20t24.5 -6q18 0 27.5 11.5t9.5 32.5v14h47v-19q0 -40 -21 -63t-57 -23q-24 0 -40.5 9t-35.5 26q-17 14 -27.5 20t-24.5 6q-18 0 -27.5 -11.5t-9.5 -32.5v-15h-47v19z" />
    <glyph glyph-name="itilde" unicode="&#x129;" horiz-adv-x="264" 
d="M103 517h58v-517h-58v517zM-3 637q0 38 18.5 60t51.5 22q21 0 36 -8.5t32 -23.5q13 -12 22.5 -18t21.5 -6q14 0 22 10.5t8 29.5v14h46v-18q0 -38 -18.5 -60t-51.5 -22q-21 0 -36 8.5t-32 24.5q-14 12 -23 17.5t-20 5.5q-15 0 -23 -10.5t-8 -29.5v-14h-46v18z" />
    <glyph glyph-name="Imacron" unicode="&#x12a;" horiz-adv-x="287" 
d="M113 700h61v-700h-61v700zM11 861h264v-49h-264v49z" />
    <glyph glyph-name="imacron" unicode="&#x12b;" horiz-adv-x="264" 
d="M103 517h58v-517h-58v517zM8 687h248v-48h-248v48z" />
    <glyph glyph-name="Ibreve" unicode="&#x12c;" horiz-adv-x="287" 
d="M113 700h61v-700h-61v700zM14 906h48v-16q0 -38 21.5 -59.5t59.5 -21.5t60 21.5t22 59.5v16h48v-19q0 -55 -35.5 -88.5t-94.5 -33.5t-94 33.5t-35 88.5v19z" />
    <glyph glyph-name="ibreve" unicode="&#x12d;" horiz-adv-x="264" 
d="M103 517h58v-517h-58v517zM12 754h48v-29q0 -40 19 -61.5t54 -21.5q34 0 53 21.5t19 61.5v29h49v-32q0 -56 -33 -90t-88 -34t-88 34t-33 90v32z" />
    <glyph glyph-name="Iogonek" unicode="&#x12e;" horiz-adv-x="287" 
d="M113 700h61v-700q-67 -44 -67 -100q0 -45 56 -45h32v-46h-37q-48 0 -74.5 21t-26.5 60q0 59 57 110h-1v700z" />
    <glyph glyph-name="iogonek" unicode="&#x12f;" horiz-adv-x="264" 
d="M93.5 626q-14.5 15 -14.5 38q0 22 14.5 37t38.5 15t38.5 -15t14.5 -37q0 -23 -14.5 -38t-38.5 -15t-38.5 15zM103 1v516h58v-517q-66 -44 -66 -100q0 -45 56 -45h31v-46h-37q-48 0 -74 21t-26 60q0 59 58 111z" />
    <glyph glyph-name="Idotaccent" unicode="&#x130;" horiz-adv-x="287" 
d="M113 700h61v-700h-61v700zM104 874.5q15 15.5 39 15.5t39.5 -15.5t15.5 -38.5t-15 -38.5t-40 -15.5q-24 0 -39 15t-15 39q0 23 15 38.5z" />
    <glyph glyph-name="dotlessi" unicode="&#x131;" horiz-adv-x="264" 
d="M103 517h58v-517h-58v517z" />
    <glyph glyph-name="IJ" unicode="&#x132;" horiz-adv-x="765" 
d="M113 700h61v-700h-61v700zM334 58h101q83 0 121.5 41.5t38.5 121.5v479h60v-482q0 -104 -55.5 -161t-164.5 -57h-101v58z" />
    <glyph glyph-name="ij" unicode="&#x133;" horiz-adv-x="529" 
d="M103 517h58v-517h-58v517zM93.5 701q14.5 15 38.5 15t38.5 -15t14.5 -37q0 -23 -14.5 -38t-38.5 -15t-38.5 15t-14.5 38q0 22 14.5 37zM220 -148h49q55 0 77 23.5t22 86.5v555h58v-556q0 -87 -35 -125.5t-119 -38.5h-52v55zM358.5 701q14.5 15 38.5 15t38.5 -15t14.5 -37
q0 -23 -14.5 -38t-38.5 -15t-38.5 15t-14.5 38q0 22 14.5 37z" />
    <glyph glyph-name="Jcircumflex" unicode="&#x134;" horiz-adv-x="479" 
d="M47 58h101q83 0 121.5 41.5t38.5 121.5v479h60v-482q0 -104 -55.5 -161t-164.5 -57h-101v58zM313 906h49l113 -136h-65l-72 91l-72 -91h-65z" />
    <glyph glyph-name="jcircumflex" unicode="&#x135;" horiz-adv-x="265" 
d="M-44 -148h49q56 0 77.5 23t21.5 87v555h58v-556q0 -87 -35 -125.5t-119 -38.5h-52v55zM110 754h46l115 -151h-63l-75 103l-75 -103h-63z" />
    <glyph glyph-name="uni0136" unicode="&#x136;" horiz-adv-x="682" 
d="M113 700h61v-315h111q80 0 121 28t66 92l74 195h64l-84 -219q-17 -44 -40 -74t-56 -48l209 -359h-70l-195 337q-37 -10 -89 -10h-111v-327h-61v700zM318.5 -83q13.5 13 35.5 13q27 0 44 -21t17 -56q0 -48 -25 -86t-61 -46v34q23 11 35.5 36t9.5 54q-12 -6 -24 -6
q-19 0 -32 12.5t-13 32.5t13.5 33z" />
    <glyph glyph-name="uni0137" unicode="&#x137;" horiz-adv-x="579" 
d="M103 740h58v-450h76q73 0 110 23.5t61 88.5l44 115h62l-52 -137q-18 -44 -39.5 -72.5t-51.5 -44.5l168 -263h-69l-153 243q-34 -7 -82 -7h-74v-236h-58v740zM277.5 -83q13.5 13 35.5 13q27 0 44 -21t17 -56q0 -48 -25 -86t-62 -46v34q23 11 35.5 36t10.5 54
q-12 -6 -24 -6q-19 0 -32 12.5t-13 32.5t13.5 33z" />
    <glyph glyph-name="kgreenlandic" unicode="&#x138;" horiz-adv-x="579" 
d="M103 517h58v-227h76q73 0 110 23.5t61 88.5l44 115h62l-52 -137q-17 -44 -38.5 -72.5t-51.5 -44.5l167 -263h-69l-154 243q-32 -7 -81 -7h-74v-236h-58v517z" />
    <glyph glyph-name="Lacute" unicode="&#x139;" horiz-adv-x="563" 
d="M113 700h61v-642h355v-58h-416v700zM174 906h62l-70 -136h-55z" />
    <glyph glyph-name="lacute" unicode="&#x13a;" horiz-adv-x="264" 
d="M103 740h58v-740h-58v740zM162 946h63l-71 -136h-54z" />
    <glyph glyph-name="uni013B" unicode="&#x13b;" horiz-adv-x="563" 
d="M113 700h61v-642h355v-58h-416v700zM284.5 -83q13.5 13 34.5 13q28 0 44.5 -21t16.5 -56q0 -48 -24.5 -86t-61.5 -46v34q23 11 35.5 36t10.5 54q-12 -6 -25 -6q-19 0 -31.5 13t-12.5 32q0 20 13.5 33z" />
    <glyph glyph-name="uni013C" unicode="&#x13c;" horiz-adv-x="264" 
d="M103 740h58v-740h-58v740zM95.5 -83q13.5 13 34.5 13q27 0 44 -21t17 -56q0 -48 -24.5 -86t-61.5 -46v34q23 11 35.5 36t10.5 54q-12 -6 -25 -6q-19 0 -31.5 13t-12.5 32q0 20 13.5 33z" />
    <glyph glyph-name="Lcaron" unicode="&#x13d;" horiz-adv-x="564" 
d="M113 700h61v-642h355v-58h-416v700zM410 700h61l-46 -204h-52z" />
    <glyph glyph-name="lcaron" unicode="&#x13e;" horiz-adv-x="291" 
d="M103 740h58v-740h-58v740zM275 740h58l-43 -190h-49z" />
    <glyph glyph-name="Ldot" unicode="&#x13f;" horiz-adv-x="563" 
d="M113 700h61v-642h355v-58h-416v700zM328.5 291.5q-14.5 14.5 -14.5 37.5t14.5 37.5t38.5 14.5t38.5 -14.5t14.5 -37.5t-14.5 -37.5t-38.5 -14.5t-38.5 14.5z" />
    <glyph glyph-name="ldot" unicode="&#x140;" horiz-adv-x="368" 
d="M103 740h58v-740h-58v740zM269.5 350.5q12.5 12.5 33.5 12.5t33.5 -12.5t12.5 -32.5t-12.5 -32.5t-33.5 -12.5t-33.5 12.5t-12.5 32.5t12.5 32.5z" />
    <glyph glyph-name="Lslash" unicode="&#x141;" horiz-adv-x="582" 
d="M132 324l-122 -50v58l122 50v318h60v-294l195 79v-58l-195 -79v-290h355v-58h-415v324z" />
    <glyph glyph-name="lslash" unicode="&#x142;" horiz-adv-x="316" 
d="M129 376l-112 -41v56l112 41v308h58v-287l113 41v-56l-113 -41v-397h-58v376z" />
    <glyph glyph-name="Nacute" unicode="&#x143;" horiz-adv-x="769" 
d="M113 700h57l426 -595v595h60v-700h-57l-426 596v-596h-60v700zM415 906h62l-70 -136h-54z" />
    <glyph glyph-name="nacute" unicode="&#x144;" horiz-adv-x="663" 
d="M103 517h49l5 -100q30 55 81.5 84t114.5 29q101 0 159.5 -66t58.5 -178v-286h-58v281q0 89 -45 141t-122 52q-54 0 -96 -26t-65.5 -72.5t-23.5 -107.5v-268h-58v517zM351 754h62l-62 -151h-55z" />
    <glyph glyph-name="uni0145" unicode="&#x145;" horiz-adv-x="769" 
d="M113 700h57l426 -595v595h60v-700h-57l-426 596v-596h-60v700zM346.5 -83q13.5 13 35.5 13q27 0 44 -21t17 -56q0 -48 -25 -86t-61 -46v34q23 11 35.5 36t9.5 54q-12 -6 -24 -6q-19 0 -32 13t-13 32q0 20 13.5 33z" />
    <glyph glyph-name="uni0146" unicode="&#x146;" horiz-adv-x="663" 
d="M103 517h49l5 -100q30 55 81.5 84t114.5 29q101 0 159.5 -66t58.5 -178v-286h-58v281q0 89 -45 141t-122 52q-54 0 -96 -26t-65.5 -72.5t-23.5 -107.5v-268h-58v517zM300.5 -83q13.5 13 35.5 13q27 0 44 -21t17 -56q0 -48 -25 -86t-62 -46v34q23 11 35.5 36t10.5 54
q-12 -6 -24 -6q-19 0 -32 12.5t-13 32.5t13.5 33z" />
    <glyph glyph-name="Ncaron" unicode="&#x147;" horiz-adv-x="769" 
d="M113 700h57l426 -595v595h60v-700h-57l-426 596v-596h-60v700zM303 906l82 -93l82 93h65l-123 -136h-48l-123 136h65z" />
    <glyph glyph-name="ncaron" unicode="&#x148;" horiz-adv-x="663" 
d="M103 517h49l5 -100q30 55 81.5 84t114.5 29q101 0 159.5 -66t58.5 -178v-286h-58v281q0 89 -45 141t-122 52q-54 0 -96 -26t-65.5 -72.5t-23.5 -107.5v-268h-58v517zM251 754l83 -105l84 105h63l-124 -151h-46l-124 151h64z" />
    <glyph glyph-name="napostrophe" unicode="&#x149;" horiz-adv-x="756" 
d="M196 517h48l6 -101q30 55 81.5 84.5t113.5 29.5q101 0 160 -66t59 -178v-286h-58v281q0 89 -45.5 141t-122.5 52q-54 0 -96 -26t-65 -72.5t-23 -107.5v-268h-58v517zM15 731.5q15 14.5 38 14.5q30 0 49 -23.5t19 -62.5q0 -52 -27.5 -93.5t-67.5 -50.5v38q25 12 38.5 39
t11.5 59q-14 -7 -27 -7q-21 0 -35 14t-14 36t15 36.5z" />
    <glyph glyph-name="Eng" unicode="&#x14a;" horiz-adv-x="769" 
d="M449 -145h49q55 0 76.5 23t21.5 82v44l-423 592v-596h-60v700h57l426 -596v596h60v-742q0 -83 -35 -120.5t-121 -37.5h-51v55z" />
    <glyph glyph-name="eng" unicode="&#x14b;" horiz-adv-x="663" 
d="M375 -148h39q56 0 77.5 23t21.5 87v319q0 89 -45 141t-122 52q-54 0 -96 -26t-65.5 -72.5t-23.5 -107.5v-268h-58v517h49l6 -98q30 54 81.5 82.5t113.5 28.5q101 0 159.5 -66t58.5 -178v-325q0 -87 -34.5 -125.5t-118.5 -38.5h-43v55z" />
    <glyph glyph-name="Omacron" unicode="&#x14c;" horiz-adv-x="850" 
d="M238 33q-82 46 -128 128.5t-46 188.5t46 188.5t128 128.5t187 46q106 0 188 -46t127.5 -128.5t45.5 -188.5t-45.5 -188.5t-127.5 -128.5t-188 -46q-105 0 -187 46zM164 193q38 -69 105.5 -107t155.5 -38t156 38t106 106.5t38 157.5t-38 157.5t-106 106.5t-156 38
t-155.5 -38t-105.5 -106.5t-38 -157.5q0 -88 38 -157zM279 861h292v-49h-292v49z" />
    <glyph glyph-name="omacron" unicode="&#x14d;" horiz-adv-x="659" 
d="M189 21.5q-62 34.5 -96.5 96.5t-34.5 141t34.5 140.5t96.5 96t141 34.5t140.5 -34.5t96 -96t34.5 -140.5t-34.5 -141t-96 -96.5t-140.5 -34.5t-141 34.5zM143 147q27 -49 75.5 -76.5t111.5 -27.5q62 0 110.5 27.5t75.5 76.5t27 112t-27 112t-75.5 76t-110.5 27
q-63 0 -111.5 -27t-75.5 -76t-27 -112t27 -112zM190 687h279v-48h-279v48z" />
    <glyph glyph-name="Obreve" unicode="&#x14e;" horiz-adv-x="850" 
d="M238 33q-82 46 -128 128.5t-46 188.5t46 188.5t128 128.5t187 46q106 0 188 -46t127.5 -128.5t45.5 -188.5t-45.5 -188.5t-127.5 -128.5t-188 -46q-105 0 -187 46zM164 193q38 -69 105.5 -107t155.5 -38t156 38t106 106.5t38 157.5t-38 157.5t-106 106.5t-156 38
t-155.5 -38t-105.5 -106.5t-38 -157.5q0 -88 38 -157zM295 906h49v-16q0 -38 21.5 -59.5t59.5 -21.5t59.5 21.5t21.5 59.5v16h49v-19q0 -55 -35.5 -88.5t-94.5 -33.5t-94.5 33.5t-35.5 88.5v19z" />
    <glyph glyph-name="obreve" unicode="&#x14f;" horiz-adv-x="659" 
d="M189 21.5q-62 34.5 -96.5 96.5t-34.5 141t34.5 140.5t96.5 96t141 34.5t140.5 -34.5t96 -96t34.5 -140.5t-34.5 -141t-96 -96.5t-140.5 -34.5t-141 34.5zM143 147q27 -49 75.5 -76.5t111.5 -27.5q62 0 110.5 27.5t75.5 76.5t27 112t-27 112t-75.5 76t-110.5 27
q-63 0 -111.5 -27t-75.5 -76t-27 -112t27 -112zM191 754h49v-22q0 -42 24.5 -66.5t65.5 -24.5t65 24.5t24 66.5v22h49v-25q0 -59 -38 -95.5t-100 -36.5t-100.5 36.5t-38.5 95.5v25z" />
    <glyph glyph-name="Ohungarumlaut" unicode="&#x150;" horiz-adv-x="850" 
d="M238 33q-82 46 -128 128.5t-46 188.5t46 188.5t128 128.5t187 46q106 0 188 -46t127.5 -128.5t45.5 -188.5t-45.5 -188.5t-127.5 -128.5t-188 -46q-105 0 -187 46zM164 193q38 -69 105.5 -107t155.5 -38t156 38t106 106.5t38 157.5t-38 157.5t-106 106.5t-156 38
t-155.5 -38t-105.5 -106.5t-38 -157.5q0 -88 38 -157zM380 906h60l-67 -136h-53zM532 906h64l-77 -136h-55z" />
    <glyph glyph-name="ohungarumlaut" unicode="&#x151;" horiz-adv-x="659" 
d="M189 21.5q-62 34.5 -96.5 96.5t-34.5 141t34.5 140.5t96.5 96t141 34.5t140.5 -34.5t96 -96t34.5 -140.5t-34.5 -141t-96 -96.5t-140.5 -34.5t-141 34.5zM143 147q27 -49 75.5 -76.5t111.5 -27.5q62 0 110.5 27.5t75.5 76.5t27 112t-27 112t-75.5 76t-110.5 27
q-63 0 -111.5 -27t-75.5 -76t-27 -112t27 -112zM275 754h58l-53 -151h-51zM409 754h59l-63 -151h-49z" />
    <glyph glyph-name="OE" unicode="&#x152;" horiz-adv-x="1018" 
d="M239 33q-84 46 -129.5 128.5t-45.5 188.5t45.5 188.5t129.5 128.5t195 46q61 0 113 -13h387v-57h-331v-258h305v-56h-305v-272h342v-57h-398q-52 -13 -113 -13q-111 0 -195 46zM163.5 191q37.5 -68 108 -105.5t166.5 -37.5q55 0 104 12v580q-49 12 -104 12
q-96 0 -166.5 -37.5t-108 -105.5t-37.5 -159t37.5 -159z" />
    <glyph glyph-name="oe" unicode="&#x153;" horiz-adv-x="1116" 
d="M187 22q-61 35 -95 96.5t-34 140.5q0 78 34 140t95 96.5t138 34.5q82 0 145 -38.5t96 -106.5q30 68 91.5 106.5t142.5 38.5q79 0 138.5 -37t91.5 -104t30 -154h-464q7 -88 62 -140.5t141 -52.5q61 0 108.5 27.5t72.5 78.5h65q-29 -75 -94.5 -118t-151.5 -43
q-80 0 -141.5 38.5t-91.5 106.5q-33 -68 -96 -106.5t-145 -38.5q-77 0 -138 35zM143 147q27 -49 75 -76.5t110 -27.5t110 27.5t74.5 76.5t26.5 112t-26.5 112t-74.5 76t-110 27t-110 -27t-75 -76t-27 -112t27 -112zM1003 286q-10 88 -65 138.5t-139 50.5t-139.5 -52
t-63.5 -137h407z" />
    <glyph glyph-name="Racute" unicode="&#x154;" horiz-adv-x="684" 
d="M113 700h259q70 0 122.5 -27t81.5 -76t29 -115q0 -86 -48 -143t-131 -71l190 -268h-73l-188 263h-181v-263h-61v700zM366 321q83 0 130 43t47 118q0 74 -47 117t-130 43h-192v-321h192zM338 906h62l-70 -136h-54z" />
    <glyph glyph-name="racute" unicode="&#x155;" horiz-adv-x="434" 
d="M103 517h49l6 -116q26 59 72.5 87.5t117.5 28.5h43v-54h-45q-87 0 -136 -55.5t-49 -169.5v-238h-58v517zM270 754h62l-63 -151h-54z" />
    <glyph glyph-name="uni0156" unicode="&#x156;" horiz-adv-x="684" 
d="M113 700h259q70 0 122.5 -27t81.5 -76t29 -115q0 -86 -48 -143t-131 -71l190 -268h-73l-188 263h-181v-263h-61v700zM366 321q83 0 130 43t47 118q0 74 -47 117t-130 43h-192v-321h192zM302.5 -83q13.5 13 35.5 13q27 0 44 -21t17 -56q0 -48 -25 -86t-61 -46v34
q23 11 35.5 36t9.5 54q-12 -6 -24 -6q-19 0 -32 13t-13 32q0 20 13.5 33z" />
    <glyph glyph-name="uni0157" unicode="&#x157;" horiz-adv-x="434" 
d="M103 517h49l6 -116q26 59 72.5 87.5t117.5 28.5h43v-54h-45q-87 0 -136 -55.5t-49 -169.5v-238h-58v517zM95.5 -83q13.5 13 34.5 13q27 0 44 -21t17 -56q0 -48 -24.5 -86t-61.5 -46v34q23 11 35.5 36t10.5 54q-12 -6 -25 -6q-19 0 -31.5 13t-12.5 32q0 20 13.5 33z" />
    <glyph glyph-name="Rcaron" unicode="&#x158;" horiz-adv-x="684" 
d="M113 700h259q70 0 122.5 -27t81.5 -76t29 -115q0 -86 -48 -143t-131 -71l190 -268h-73l-188 263h-181v-263h-61v700zM226 906l82 -93l82 93h65l-123 -136h-48l-123 136h65zM366 321q83 0 130 43t47 118q0 74 -47 117t-130 43h-192v-321h192z" />
    <glyph glyph-name="rcaron" unicode="&#x159;" horiz-adv-x="434" 
d="M103 517h49l6 -116q26 59 72.5 87.5t117.5 28.5h43v-54h-45q-87 0 -136 -55.5t-49 -169.5v-238h-58v517zM169 754l83 -105l84 105h63l-124 -151h-46l-124 151h64z" />
    <glyph glyph-name="Sacute" unicode="&#x15a;" horiz-adv-x="657" 
d="M199 14q-60 27 -93.5 77t-35.5 117h60q4 -77 60 -120t148 -43q86 0 136 35.5t50 96.5q0 55 -46.5 89.5t-151.5 57.5q-130 30 -187.5 77.5t-57.5 125.5q0 85 64.5 135.5t175.5 50.5q116 0 182.5 -56t70.5 -157h-60q-4 74 -54.5 114.5t-138.5 40.5q-84 0 -131.5 -35
t-47.5 -93q0 -53 45.5 -87.5t153.5 -58.5q131 -30 188 -78.5t57 -124.5q0 -88 -67 -139.5t-181 -51.5q-79 0 -139 27zM353 906h63l-70 -136h-55z" />
    <glyph glyph-name="sacute" unicode="&#x15b;" horiz-adv-x="550" 
d="M124.5 32.5q-58.5 45.5 -61.5 123.5h57q5 -55 46.5 -85.5t115.5 -30.5q68 0 107 24.5t39 67.5q0 41 -38.5 66.5t-120.5 39.5q-101 17 -148.5 53.5t-47.5 96.5q0 66 52.5 104t143.5 38q92 0 146.5 -41.5t60.5 -115.5h-58q-4 51 -42.5 78t-106.5 27q-64 0 -101 -24.5
t-37 -66.5q0 -38 36 -61.5t122 -39.5q196 -37 196 -155q0 -65 -55.5 -104.5t-148.5 -39.5q-98 0 -156.5 45.5zM286 754h62l-63 -151h-54z" />
    <glyph glyph-name="Scircumflex" unicode="&#x15c;" horiz-adv-x="657" 
d="M199 14q-60 27 -93.5 77t-35.5 117h60q4 -77 60 -120t148 -43q86 0 136 35.5t50 96.5q0 55 -46.5 89.5t-151.5 57.5q-130 30 -187.5 77.5t-57.5 125.5q0 85 64.5 135.5t175.5 50.5q116 0 182.5 -56t70.5 -157h-60q-4 74 -54.5 114.5t-138.5 40.5q-84 0 -131.5 -35
t-47.5 -93q0 -53 45.5 -87.5t153.5 -58.5q131 -30 188 -78.5t57 -124.5q0 -88 -67 -139.5t-181 -51.5q-79 0 -139 27zM299 906h49l122 -136h-64l-82 93l-82 -93h-65z" />
    <glyph glyph-name="scircumflex" unicode="&#x15d;" horiz-adv-x="550" 
d="M124.5 32.5q-58.5 45.5 -61.5 123.5h57q5 -55 46.5 -85.5t115.5 -30.5q68 0 107 24.5t39 67.5q0 41 -38.5 66.5t-120.5 39.5q-101 17 -148.5 53.5t-47.5 96.5q0 66 52.5 104t143.5 38q92 0 146.5 -41.5t60.5 -115.5h-58q-4 51 -42.5 78t-106.5 27q-64 0 -101 -24.5
t-37 -66.5q0 -38 36 -61.5t122 -39.5q196 -37 196 -155q0 -65 -55.5 -104.5t-148.5 -39.5q-98 0 -156.5 45.5zM245 754h47l123 -151h-63l-83 105l-84 -105h-63z" />
    <glyph glyph-name="Scedilla" unicode="&#x15e;" horiz-adv-x="657" 
d="M273 -202h55q29 0 44.5 12.5t15.5 35.5t-15.5 35.5t-44.5 12.5h-32l-8 11l30 82q-112 6 -178 65t-70 156h60q4 -77 60 -120t148 -43q86 0 136 35.5t50 96.5q0 55 -46.5 89.5t-151.5 57.5q-130 30 -187.5 77.5t-57.5 125.5q0 85 64.5 135.5t175.5 50.5q116 0 182.5 -56
t70.5 -157h-60q-4 74 -54.5 114.5t-138.5 40.5q-84 0 -131.5 -35t-47.5 -93q0 -53 45.5 -87.5t153.5 -58.5q131 -30 188 -78.5t57 -124.5q0 -83 -60 -134t-163 -56l-20 -53q45 -3 70.5 -27.5t25.5 -64.5q0 -43 -28.5 -67.5t-78.5 -24.5h-59v47z" />
    <glyph glyph-name="scedilla" unicode="&#x15f;" horiz-adv-x="550" 
d="M220 -198h53q29 0 44 12.5t15 35.5t-15.5 35t-43.5 12h-31l-7 11l28 79q-90 4 -143.5 49.5t-56.5 119.5h57q5 -55 46.5 -85.5t115.5 -30.5q68 0 107 24.5t39 67.5q0 41 -38.5 66.5t-120.5 39.5q-101 17 -148.5 53.5t-47.5 96.5q0 66 52.5 104t143.5 38q92 0 146.5 -41.5
t60.5 -115.5h-58q-4 51 -42.5 78t-106.5 27q-64 0 -101 -24.5t-37 -66.5q0 -38 36 -61.5t122 -39.5q196 -37 196 -155q0 -61 -48 -99.5t-131 -43.5l-19 -51q44 -3 69 -26.5t25 -63.5q0 -42 -27.5 -65.5t-76.5 -23.5h-57v44z" />
    <glyph glyph-name="Scaron" unicode="&#x160;" horiz-adv-x="657" 
d="M199 14q-60 27 -93.5 77t-35.5 117h60q4 -77 60 -120t148 -43q86 0 136 35.5t50 96.5q0 55 -46.5 89.5t-151.5 57.5q-130 30 -187.5 77.5t-57.5 125.5q0 85 64.5 135.5t175.5 50.5q116 0 182.5 -56t70.5 -157h-60q-4 74 -54.5 114.5t-138.5 40.5q-84 0 -131.5 -35
t-47.5 -93q0 -53 45.5 -87.5t153.5 -58.5q131 -30 188 -78.5t57 -124.5q0 -88 -67 -139.5t-181 -51.5q-79 0 -139 27zM241 906l82 -93l82 93h65l-123 -136h-48l-123 136h65z" />
    <glyph glyph-name="scaron" unicode="&#x161;" horiz-adv-x="550" 
d="M124.5 32.5q-58.5 45.5 -61.5 123.5h57q5 -55 46.5 -85.5t115.5 -30.5q68 0 107 24.5t39 67.5q0 41 -38.5 66.5t-120.5 39.5q-101 17 -148.5 53.5t-47.5 96.5q0 66 52.5 104t143.5 38q92 0 146.5 -41.5t60.5 -115.5h-58q-4 51 -42.5 78t-106.5 27q-64 0 -101 -24.5
t-37 -66.5q0 -38 36 -61.5t122 -39.5q196 -37 196 -155q0 -65 -55.5 -104.5t-148.5 -39.5q-98 0 -156.5 45.5zM185 754l83 -105l84 105h63l-124 -151h-46l-124 151h64z" />
    <glyph glyph-name="uni0162" unicode="&#x162;" horiz-adv-x="619" 
d="M279 642h-241v58h543v-58h-242v-642h-6l-24 -65q45 -3 71 -27.5t26 -64.5q0 -43 -28.5 -67.5t-78.5 -24.5h-59v47h54q29 0 44.5 12.5t15.5 35.5t-15.5 35.5t-44.5 12.5h-31l-8 11l34 95h-10v642z" />
    <glyph glyph-name="uni0163" unicode="&#x163;" horiz-adv-x="440" 
d="M308 0l-23 -63q44 -3 69 -26.5t25 -63.5q0 -42 -27.5 -65.5t-76.5 -23.5h-58v44h53q29 0 44.5 12.5t15.5 35.5q0 22 -15.5 34.5t-44.5 12.5h-30l-8 11l35 96q-61 12 -92 56.5t-31 118.5v285h-113v53h66q29 0 40 9.5t14 38.5l5 79h46v-127h179v-53h-179v-283
q0 -64 27.5 -94.5t85.5 -30.5h73v-56h-75h-5z" />
    <glyph glyph-name="Tcaron" unicode="&#x164;" horiz-adv-x="619" 
d="M279 642h-241v58h543v-58h-242v-642h-60v642zM227 906l82 -93l82 93h65l-123 -136h-48l-123 136h65z" />
    <glyph glyph-name="tcaron" unicode="&#x165;" horiz-adv-x="439" 
d="M187 45.5q-43 45.5 -43 133.5v285h-113v53h66q29 0 40 9.5t14 38.5l5 79h46v-127h179v-53h-179v-283q0 -64 27.5 -94.5t85.5 -30.5h73v-56h-75q-83 0 -126 45.5zM326 740h54l-27 -170h-49z" />
    <glyph glyph-name="Tbar" unicode="&#x166;" horiz-adv-x="624" 
d="M282 321h-170v50h170v271h-242v58h543v-58h-241v-271h170v-50h-170v-321h-60v321z" />
    <glyph glyph-name="tbar" unicode="&#x167;" horiz-adv-x="449" 
d="M190 46.5q-43 46.5 -43 137.5v68h-107v52h107v160h-113v53h67q28 0 39.5 9.5t13.5 38.5l5 79h46v-127h179v-53h-179v-160h173v-52h-173v-66q0 -68 27.5 -99t86.5 -31h73v-56h-75q-84 0 -127 46.5z" />
    <glyph glyph-name="Utilde" unicode="&#x168;" horiz-adv-x="736" 
d="M174.5 64.5q-70.5 76.5 -70.5 211.5v424h60v-421q0 -112 53 -172t151 -60t151 60t53 172v421h60v-424q0 -135 -70.5 -211.5t-193.5 -76.5t-193.5 76.5zM223 801q0 40 21 63.5t57 23.5q24 0 40.5 -9t35.5 -26q17 -14 27.5 -20t24.5 -6q18 0 28 11.5t10 32.5v14h47v-19
q0 -40 -21 -63t-57 -23q-24 0 -40.5 9t-35.5 26q-17 14 -27.5 20t-24.5 6q-18 0 -28 -12t-10 -32v-15h-47v19z" />
    <glyph glyph-name="utilde" unicode="&#x169;" horiz-adv-x="657" 
d="M150 53q-58 66 -58 178v286h58v-281q0 -89 44.5 -141t120.5 -52q53 0 94 26t64 73t23 108v267h58v-517h-48l-6 101q-30 -55 -80.5 -84.5t-112.5 -29.5q-99 0 -157 66zM177 635q0 40 21 63.5t57 23.5q24 0 40 -8.5t36 -25.5q16 -14 26.5 -20.5t25.5 -6.5q18 0 28 11.5
t10 32.5v15h47v-19q0 -40 -21 -63.5t-57 -23.5q-24 0 -40 8.5t-36 25.5q-16 14 -26.5 20.5t-25.5 6.5q-19 0 -28.5 -11.5t-9.5 -32.5v-15h-47v19z" />
    <glyph glyph-name="Umacron" unicode="&#x16a;" horiz-adv-x="736" 
d="M174.5 64.5q-70.5 76.5 -70.5 211.5v424h60v-421q0 -112 53 -172t151 -60t151 60t53 172v421h60v-424q0 -135 -70.5 -211.5t-193.5 -76.5t-193.5 76.5zM222 861h292v-49h-292v49z" />
    <glyph glyph-name="umacron" unicode="&#x16b;" horiz-adv-x="657" 
d="M150 53q-58 66 -58 178v286h58v-281q0 -89 44.5 -141t120.5 -52q53 0 94 26t64 73t23 108v267h58v-517h-48l-6 101q-30 -55 -80.5 -84.5t-112.5 -29.5q-99 0 -157 66zM183 687h279v-48h-279v48z" />
    <glyph glyph-name="Ubreve" unicode="&#x16c;" horiz-adv-x="736" 
d="M174.5 64.5q-70.5 76.5 -70.5 211.5v424h60v-421q0 -112 53 -172t151 -60t151 60t53 172v421h60v-424q0 -135 -70.5 -211.5t-193.5 -76.5t-193.5 76.5zM238 906h49v-16q0 -38 21.5 -59.5t59.5 -21.5t59.5 21.5t21.5 59.5v16h49v-19q0 -55 -35.5 -88.5t-94.5 -33.5
t-94.5 33.5t-35.5 88.5v19z" />
    <glyph glyph-name="ubreve" unicode="&#x16d;" horiz-adv-x="657" 
d="M150 53q-58 66 -58 178v286h58v-281q0 -89 44.5 -141t120.5 -52q53 0 94 26t64 73t23 108v267h58v-517h-48l-6 101q-30 -55 -80.5 -84.5t-112.5 -29.5q-99 0 -157 66zM184 754h49v-22q0 -42 24.5 -66.5t65.5 -24.5t65.5 24.5t24.5 66.5v22h48v-25q0 -59 -38 -95.5
t-100 -36.5t-100.5 36.5t-38.5 95.5v25z" />
    <glyph glyph-name="Uring" unicode="&#x16e;" horiz-adv-x="736" 
d="M174.5 64.5q-70.5 76.5 -70.5 211.5v424h60v-421q0 -112 53 -172t151 -60t151 60t53 172v421h60v-424q0 -135 -70.5 -211.5t-193.5 -76.5t-193.5 76.5zM288.5 931q30.5 30 79.5 30t79.5 -30t30.5 -77t-30.5 -77t-79.5 -30t-79.5 30t-30.5 77t30.5 77zM320 805.5
q19 -19.5 48 -19.5t48 19.5t19 48.5t-19 48t-48 19t-48 -19t-19 -48t19 -48.5z" />
    <glyph glyph-name="uring" unicode="&#x16f;" horiz-adv-x="657" 
d="M150 53q-58 66 -58 178v286h58v-281q0 -89 44.5 -141t120.5 -52q53 0 94 26t64 73t23 108v267h58v-517h-48l-6 101q-30 -55 -80.5 -84.5t-112.5 -29.5q-99 0 -157 66zM244 772q31 30 79 30t79 -30t31 -77t-31 -76.5t-79 -29.5t-79 29.5t-31 76.5t31 77zM275 647
q19 -19 48 -19t47.5 19t18.5 48q0 30 -18.5 49t-47.5 19t-48 -19t-19 -49q0 -29 19 -48z" />
    <glyph glyph-name="Uhungarumlaut" unicode="&#x170;" horiz-adv-x="736" 
d="M174.5 64.5q-70.5 76.5 -70.5 211.5v424h60v-421q0 -112 53 -172t151 -60t151 60t53 172v421h60v-424q0 -135 -70.5 -211.5t-193.5 -76.5t-193.5 76.5zM322 906h61l-68 -136h-53zM475 906h64l-77 -136h-55z" />
    <glyph glyph-name="uhungarumlaut" unicode="&#x171;" horiz-adv-x="657" 
d="M150 53q-58 66 -58 178v286h58v-281q0 -89 44.5 -141t120.5 -52q53 0 94 26t64 73t23 108v267h58v-517h-48l-6 101q-30 -55 -80.5 -84.5t-112.5 -29.5q-99 0 -157 66zM268 754h58l-53 -151h-50zM402 754h59l-63 -151h-49z" />
    <glyph glyph-name="Uogonek" unicode="&#x172;" horiz-adv-x="736" 
d="M371 -173.5q-27 21.5 -27 60.5q0 53 47 102q-7 -1 -21 -1q-127 0 -196.5 76.5t-69.5 212.5v423h60v-419q0 -112 52.5 -173t151.5 -61t151.5 61t52.5 173v419h60v-423q0 -97 -33.5 -162t-105.5 -101q-48 -24 -73 -54t-25 -60q0 -47 58 -47h32v-48h-38q-49 0 -76 21.5z" />
    <glyph glyph-name="uogonek" unicode="&#x173;" horiz-adv-x="657" 
d="M150 53q-58 66 -58 178v286h58v-281q0 -89 44.5 -141t120.5 -52q53 0 94 26t64 73t23 108v267h58v-517q-77 -48 -77 -100q0 -45 56 -45h32v-46h-37q-49 0 -75 21t-26 60q0 66 78 124l-5 87q-30 -55 -80.5 -84.5t-112.5 -29.5q-99 0 -157 66z" />
    <glyph glyph-name="Wcircumflex" unicode="&#x174;" horiz-adv-x="1069" 
d="M24 700h64l104 -319l92 -286l105 286l116 319h58l222 -606l93 287l103 319h64l-230 -700h-57l-224 608l-124 -338l-99 -270h-58zM511 906h48l123 -136h-65l-82 93l-82 -93h-65z" />
    <glyph glyph-name="wcircumflex" unicode="&#x175;" horiz-adv-x="861" 
d="M22 517h62l153 -430l73 188l93 242h54l94 -242l73 -188l154 430h61l-187 -517h-56l-89 231l-77 201l-166 -432h-56zM407 754h46l124 -151h-63l-84 105l-84 -105h-63z" />
    <glyph glyph-name="Ycircumflex" unicode="&#x176;" horiz-adv-x="634" 
d="M287 257l-265 443h70l226 -378l225 378h69l-265 -441v-259h-60v257zM294 906h48l123 -136h-65l-82 93l-82 -93h-65z" />
    <glyph glyph-name="ycircumflex" unicode="&#x177;" horiz-adv-x="557" 
d="M71 -145h43q38 0 59.5 6.5t35.5 23t28 50.5l29 73l-246 509h65l122 -255l89 -184l74 184l105 255h61l-247 -604q-18 -45 -39.5 -69.5t-51.5 -34t-78 -9.5h-49v55zM261 754h47l123 -151h-63l-83 105l-84 -105h-63z" />
    <glyph glyph-name="Ydieresis" unicode="&#x178;" horiz-adv-x="634" 
d="M287 257l-265 443h70l226 -378l225 378h69l-265 -441v-259h-60v257zM183.5 871q14.5 14 36.5 14q23 0 37 -14t14 -36q0 -23 -14 -37t-37 -14q-22 0 -36.5 14.5t-14.5 36.5t14.5 36zM378.5 871q14.5 14 36.5 14t36.5 -14t14.5 -36t-14 -36.5t-37 -14.5q-22 0 -36.5 14.5
t-14.5 36.5t14.5 36z" />
    <glyph glyph-name="Zacute" unicode="&#x179;" horiz-adv-x="602" 
d="M58 45l399 597h-390v58h470v-46l-399 -596h408v-58h-488v45zM327 906h62l-70 -136h-55z" />
    <glyph glyph-name="zacute" unicode="&#x17a;" horiz-adv-x="524" 
d="M53 45l336 419h-324v53h402v-44l-334 -419h341v-54h-421v45zM279 754h63l-63 -151h-55z" />
    <glyph glyph-name="Zdotaccent" unicode="&#x17b;" horiz-adv-x="602" 
d="M58 45l399 597h-390v58h470v-46l-399 -596h408v-58h-488v45zM257.5 874.5q15.5 15.5 39.5 15.5t39 -15.5t15 -38.5t-15 -38.5t-39 -15.5t-39.5 15.5t-15.5 38.5t15.5 38.5z" />
    <glyph glyph-name="zdotaccent" unicode="&#x17c;" horiz-adv-x="524" 
d="M53 45l336 419h-324v53h402v-44l-334 -419h341v-54h-421v45zM223.5 701q14.5 15 38.5 15t38.5 -15t14.5 -37q0 -23 -14.5 -38t-38.5 -15t-38.5 15t-14.5 38q0 22 14.5 37z" />
    <glyph glyph-name="Zcaron" unicode="&#x17d;" horiz-adv-x="602" 
d="M58 45l399 597h-390v58h470v-46l-399 -596h408v-58h-488v45zM214 906l82 -93l82 93h65l-123 -136h-48l-123 136h65z" />
    <glyph glyph-name="zcaron" unicode="&#x17e;" horiz-adv-x="524" 
d="M53 45l336 419h-324v53h402v-44l-334 -419h341v-54h-421v45zM179 754l83 -105l84 105h63l-124 -151h-46l-124 151h64z" />
    <glyph glyph-name="longs" unicode="&#x17f;" horiz-adv-x="343" 
d="M327 753h51v-55h-46q-65 0 -93 -29.5t-28 -95.5v-573h-58v464h-118v53h118v60q0 176 174 176z" />
    <glyph glyph-name="uni018F" unicode="&#x18f;" horiz-adv-x="836" 
d="M230.5 35q-80.5 48 -124 135.5t-42.5 202.5h649q-5 85 -43.5 149t-103.5 99.5t-148 35.5q-92 0 -163 -41.5t-105 -115.5h-64q41 100 128.5 156.5t203.5 56.5q104 0 184.5 -46t125 -129t44.5 -190q0 -106 -44.5 -188t-125 -127.5t-184.5 -45.5q-107 0 -187.5 48z
M167 172.5q39 -62.5 103.5 -96t147.5 -33.5t148 34.5t103.5 97.5t43.5 146h-592q7 -86 46 -148.5z" />
    <glyph glyph-name="florin" unicode="&#x192;" horiz-adv-x="444" 
d="M-57 -146h55q51 0 74.5 24.5t32.5 80.5l78 505h-121v53h129l10 63q14 90 55 131.5t120 41.5h58v-55h-64q-53 0 -78 -29t-35 -94l-8 -58h169v-53h-176l-79 -505q-12 -82 -50.5 -120.5t-117.5 -38.5h-52v54z" />
    <glyph glyph-name="uni01CD" unicode="&#x1cd;" horiz-adv-x="683" 
d="M312 700h58l290 -700h-64l-73 176h-364l-72 -176h-65zM500 232l-159 385l-158 -385h317zM259 906l82 -93l82 93h65l-123 -136h-48l-123 136h65z" />
    <glyph glyph-name="uni01CE" unicode="&#x1ce;" horiz-adv-x="624" 
d="M122.5 33.5q-52.5 41.5 -52.5 112.5q0 69 48 109.5t128 40.5h228v37q0 65 -43.5 104t-115.5 39q-58 0 -101 -27.5t-59 -74.5h-59q19 72 77.5 114t140.5 42q64 0 113.5 -24.5t77 -68.5t27.5 -101v-336h-48l-6 89q-34 -47 -89 -72t-124 -25q-90 0 -142.5 41.5zM165.5 72
q37.5 -28 101.5 -28q59 0 106.5 23t74.5 64t27 92v22h-227q-53 0 -86.5 -27t-33.5 -71q0 -47 37.5 -75zM231 754l83 -105l84 105h63l-124 -151h-46l-124 151h64z" />
    <glyph glyph-name="Gcaron" unicode="&#x1e6;" horiz-adv-x="832" 
d="M235.5 33.5q-80.5 46.5 -126 129t-45.5 187.5t45 187.5t125.5 129t181.5 46.5q120 0 210 -63t124 -166h-66q-33 79 -102.5 123.5t-162.5 44.5q-86 0 -152.5 -38t-103.5 -106.5t-37 -157.5q0 -88 37 -157t103.5 -107t152.5 -38q80 0 143 33.5t100.5 93t43.5 135.5h-310v58
h375q1 -110 -43 -196.5t-124.5 -135.5t-185.5 -49q-102 0 -182.5 46.5zM334 906l82 -93l82 93h65l-123 -136h-48l-123 136h65z" />
    <glyph glyph-name="gcaron" unicode="&#x1e7;" horiz-adv-x="686" 
d="M169.5 -166.5q-65.5 46.5 -80.5 125.5h59q13 -54 62 -85.5t120 -31.5q89 0 142 49t53 132v84q-35 -48 -89 -74.5t-119 -26.5q-75 0 -134 33.5t-92 93.5t-33 135t33 135t92.5 93.5t133.5 33.5q67 0 122 -28t90 -78l5 93h49v-496q0 -69 -31.5 -122t-89 -82.5t-132.5 -29.5
q-95 0 -160.5 46.5zM142.5 161.5q26.5 -46.5 73.5 -72.5t107 -26t107 26t73 72.5t26 106.5t-26 107t-73 73t-107 26t-107 -26t-73.5 -73t-26.5 -107t26.5 -106.5zM261 754l83 -105l84 105h63l-124 -151h-46l-124 151h64z" />
    <glyph glyph-name="AEacute" unicode="&#x1fc;" horiz-adv-x="974" 
d="M484 700h407v-57h-328v-258h302v-56h-302v-272h339v-57h-400v175h-296l-115 -175h-71zM502 232v393l-259 -393h259zM563 906h62l-70 -136h-55z" />
    <glyph glyph-name="aeacute" unicode="&#x1fd;" horiz-adv-x="1053" 
d="M607.5 23.5q-58.5 36.5 -88.5 101.5q-30 -64 -94.5 -101t-149.5 -37q-93 0 -149 43t-56 112q0 67 50.5 108t131.5 41h236v41q0 64 -46 104t-119 40q-60 0 -105.5 -27.5t-60.5 -73.5h-59q18 71 79 113t145 42q73 0 127 -33t77 -91q32 59 88 91.5t129 32.5q77 0 135 -36.5
t89 -102.5t31 -152h-453q5 -90 58.5 -143.5t137.5 -53.5q59 0 105.5 28.5t71.5 78.5h65q-29 -75 -92.5 -118.5t-147.5 -43.5q-77 0 -135.5 36.5zM169 69.5q41 -27.5 108 -27.5q60 0 108 22.5t75.5 63t27.5 90.5v22h-234q-56 0 -91 -27t-35 -70q0 -46 41 -73.5zM540 754h62
l-63 -151h-54zM940 291q-11 85 -65 134.5t-134 49.5q-81 0 -134 -50t-61 -134h394z" />
    <glyph glyph-name="Oslashacute" unicode="&#x1fe;" horiz-adv-x="850" 
d="M192 63q-61 50 -94.5 123.5t-33.5 163.5q0 106 46 188.5t128 128.5t187 46q102 0 184 -44l49 70h71l-71 -102q61 -49 94.5 -123t33.5 -164q0 -106 -45.5 -188.5t-127.5 -128.5t-188 -46q-102 0 -184 44l-49 -70h-71zM152.5 215.5q26.5 -60.5 75.5 -101.5l347 504
q-66 34 -150 34q-88 0 -155.5 -38t-105.5 -106.5t-38 -157.5q0 -74 26.5 -134.5zM425 48q88 0 156 38t106 106.5t38 157.5q0 75 -27 135.5t-76 100.5l-346 -503q64 -35 149 -35zM455 906h63l-70 -136h-55z" />
    <glyph glyph-name="oslashacute" unicode="&#x1ff;" horiz-adv-x="659" 
d="M150 48q-44 37 -68 91.5t-24 119.5q0 79 34.5 140.5t96.5 96t141 34.5q73 0 133 -31l39 56h68l-61 -86q44 -36 68 -90.5t24 -119.5q0 -79 -34.5 -141t-96 -96.5t-140.5 -34.5q-75 0 -134 31l-39 -55h-68zM133.5 166q17.5 -42 50.5 -71l247 357q-46 22 -101 22
q-63 0 -111.5 -27t-75.5 -76t-27 -112q0 -51 17.5 -93zM330 43q62 0 110.5 27.5t75.5 76.5t27 112q0 50 -17.5 92t-50.5 71l-247 -357q47 -22 102 -22zM347 754h62l-63 -151h-54z" />
    <glyph glyph-name="uni0218" unicode="&#x218;" horiz-adv-x="657" 
d="M199 14q-60 27 -93.5 77t-35.5 117h60q4 -77 60 -120t148 -43q86 0 136 35.5t50 96.5q0 55 -46.5 89.5t-151.5 57.5q-130 30 -187.5 77.5t-57.5 125.5q0 85 64.5 135.5t175.5 50.5q116 0 182.5 -56t70.5 -157h-60q-4 74 -54.5 114.5t-138.5 40.5q-84 0 -131.5 -35
t-47.5 -93q0 -53 45.5 -87.5t153.5 -58.5q131 -30 188 -78.5t57 -124.5q0 -88 -67 -139.5t-181 -51.5q-79 0 -139 27zM305.5 -83q13.5 13 35.5 13q27 0 44 -21t17 -56q0 -48 -25 -86t-61 -46v34q23 11 35.5 36t9.5 54q-12 -6 -24 -6q-19 0 -32 12.5t-13 32.5t13.5 33z" />
    <glyph glyph-name="uni0219" unicode="&#x219;" horiz-adv-x="550" 
d="M124.5 32.5q-58.5 45.5 -61.5 123.5h57q5 -55 46.5 -85.5t115.5 -30.5q68 0 107 24.5t39 67.5q0 41 -38.5 66.5t-120.5 39.5q-101 17 -148.5 53.5t-47.5 96.5q0 66 52.5 104t143.5 38q92 0 146.5 -41.5t60.5 -115.5h-58q-4 51 -42.5 78t-106.5 27q-64 0 -101 -24.5
t-37 -66.5q0 -38 36 -61.5t122 -39.5q196 -37 196 -155q0 -65 -55.5 -104.5t-148.5 -39.5q-98 0 -156.5 45.5zM243.5 -83q13.5 13 35.5 13q27 0 44 -21t17 -56q0 -48 -25 -86t-61 -46v34q23 11 35 35.5t10 54.5q-12 -6 -24 -6q-19 0 -32 12.5t-13 32.5t13.5 33z" />
    <glyph glyph-name="uni021A" unicode="&#x21a;" horiz-adv-x="619" 
d="M279 642h-241v58h543v-58h-242v-642h-60v642zM272.5 -83q13.5 13 35.5 13q27 0 44 -21t17 -56q0 -48 -25 -86t-62 -46v34q23 11 35.5 36t10.5 54q-12 -6 -24 -6q-19 0 -32 12.5t-13 32.5t13.5 33z" />
    <glyph glyph-name="uni021B" unicode="&#x21b;" horiz-adv-x="440" 
d="M187 45.5q-43 45.5 -43 133.5v285h-113v53h66q29 0 40 9.5t14 38.5l5 79h46v-127h179v-53h-179v-283q0 -64 27.5 -94.5t85.5 -30.5h73v-56h-75q-83 0 -126 45.5zM241.5 -83q13.5 13 34.5 13q28 0 44.5 -21t16.5 -56q0 -48 -24.5 -86t-61.5 -46v34q23 11 35.5 36t10.5 54
q-12 -6 -25 -6q-19 0 -31.5 13t-12.5 32q0 20 13.5 33z" />
    <glyph glyph-name="uni0237" unicode="&#x237;" horiz-adv-x="265" 
d="M-44 -148h49q56 0 77.5 23t21.5 87v555h58v-556q0 -87 -35 -125.5t-119 -38.5h-52v55z" />
    <glyph glyph-name="uni0259" unicode="&#x259;" horiz-adv-x="643" 
d="M459 495.5q60 -34.5 93 -96t33 -141.5q0 -79 -33.5 -140.5t-93.5 -96t-138 -34.5q-80 0 -141 37t-93 104t-30 154h470q-8 88 -63.5 140.5t-141.5 52.5q-63 0 -111 -28t-74 -78l-65 1q30 74 96.5 117t153.5 43q78 0 138 -34.5zM179 92.5q56 -50.5 141 -50.5q86 0 142 51.5
t64 137.5h-413q10 -88 66 -138.5z" />
    <glyph glyph-name="uni02BC" unicode="&#x2bc;" horiz-adv-x="258" 
d="M132.5 593q13.5 26 11.5 58q-12 -6 -26 -6q-22 0 -36.5 14.5t-14.5 35.5q0 22 15.5 37t39.5 15q30 0 49 -23.5t19 -62.5q0 -53 -27.5 -94.5t-68.5 -50.5v39q25 12 38.5 38z" />
    <glyph glyph-name="circumflex" unicode="&#x2c6;" horiz-adv-x="394" 
d="M174 754h46l124 -151h-63l-84 105l-84 -105h-63z" />
    <glyph glyph-name="caron" unicode="&#x2c7;" horiz-adv-x="394" 
d="M220 603h-46l-124 151h63l84 -105l84 105h63z" />
    <glyph glyph-name="breve" unicode="&#x2d8;" horiz-adv-x="377" 
d="M88 633.5q-38 36.5 -38 95.5v25h49v-22q0 -42 24 -66.5t65 -24.5q42 0 66 24.5t24 66.5v22h49v-25q0 -59 -38 -95.5t-101 -36.5q-62 0 -100 36.5z" />
    <glyph glyph-name="dotaccent" unicode="&#x2d9;" horiz-adv-x="306" 
d="M114.5 626q-14.5 15 -14.5 38q0 22 14.5 37t38.5 15t38.5 -15t14.5 -37q0 -23 -14.5 -38t-38.5 -15t-38.5 15z" />
    <glyph glyph-name="ring" unicode="&#x2da;" horiz-adv-x="320" 
d="M81 618.5q-31 29.5 -31 76.5t31 77t79 30t79 -30t31 -77t-31 -76.5t-79 -29.5t-79 29.5zM112 647q19 -19 48 -19t48 19t19 48q0 30 -19 49t-48 19t-48 -19t-19 -49q0 -29 19 -48z" />
    <glyph glyph-name="ogonek" unicode="&#x2db;" horiz-adv-x="238" 
d="M76 -170q-26 21 -26 60q0 37 26 73.5t80 68.5l21 -32q-77 -48 -77 -100q0 -45 56 -45h32v-46h-37q-49 0 -75 21z" />
    <glyph glyph-name="tilde" unicode="&#x2dc;" horiz-adv-x="391" 
d="M223 622.5q-16 8.5 -36 25.5q-16 14 -26.5 20.5t-25.5 6.5q-18 0 -28 -11.5t-10 -32.5v-15h-47v19q0 40 21 63.5t57 23.5q24 0 40 -8.5t36 -25.5q16 -14 26.5 -20.5t25.5 -6.5q18 0 28 11.5t10 32.5v15h47v-19q0 -40 -21 -63.5t-57 -23.5q-24 0 -40 8.5z" />
    <glyph glyph-name="hungarumlaut" unicode="&#x2dd;" horiz-adv-x="339" 
d="M230 754h59l-64 -151h-49zM96 754h57l-53 -151h-50z" />
    <glyph glyph-name="gravecomb" unicode="&#x300;" 
d="M50 754h62l55 -151h-54z" />
    <glyph glyph-name="acutecomb" unicode="&#x301;" 
d="M105 754h62l-62 -151h-55z" />
    <glyph glyph-name="uni0302" unicode="&#x302;" 
d="M174 754h46l124 -151h-63l-84 105l-84 -105h-63z" />
    <glyph glyph-name="tildecomb" unicode="&#x303;" 
d="M223 622.5q-16 8.5 -36 25.5q-16 14 -26.5 20.5t-25.5 6.5q-18 0 -28 -11.5t-10 -32.5v-15h-47v19q0 40 21 63.5t57 23.5q24 0 40 -8.5t36 -25.5q16 -14 26.5 -20.5t25.5 -6.5q18 0 28 11.5t10 32.5v15h47v-19q0 -40 -21 -63.5t-57 -23.5q-24 0 -40 8.5z" />
    <glyph glyph-name="uni0304" unicode="&#x304;" 
d="M50 687h279v-48h-279v48z" />
    <glyph glyph-name="uni0306" unicode="&#x306;" 
d="M88 633.5q-38 36.5 -38 95.5v25h49v-22q0 -42 24 -66.5t65 -24.5q42 0 66 24.5t24 66.5v22h49v-25q0 -59 -38 -95.5t-101 -36.5q-62 0 -100 36.5z" />
    <glyph glyph-name="uni0307" unicode="&#x307;" 
d="M64.5 626q-14.5 15 -14.5 38q0 22 14.5 37t38.5 15t38.5 -15t14.5 -37q0 -23 -14.5 -38t-38.5 -15t-38.5 15z" />
    <glyph glyph-name="uni0308" unicode="&#x308;" 
d="M258.5 627.5q-14.5 14.5 -14.5 36.5t14.5 36t36.5 14q23 0 37 -14t14 -36q0 -23 -14 -37t-37 -14q-22 0 -36.5 14.5zM64.5 700q14.5 14 36.5 14t36.5 -14t14.5 -36t-14 -36.5t-37 -14.5q-22 0 -36.5 14.5t-14.5 36.5t14.5 36z" />
    <glyph glyph-name="uni030A" unicode="&#x30a;" 
d="M81 618.5q-31 29.5 -31 76.5t31 77t79 30t79 -30t31 -77t-31 -76.5t-79 -29.5t-79 29.5zM112 647q19 -19 48 -19t48 19t19 48q0 30 -19 49t-48 19t-48 -19t-19 -49q0 -29 19 -48z" />
    <glyph glyph-name="uni030B" unicode="&#x30b;" 
d="M230 754h59l-64 -151h-49zM96 754h57l-53 -151h-50z" />
    <glyph glyph-name="uni030C" unicode="&#x30c;" 
d="M220 603h-46l-124 151h63l84 -105l84 105h63z" />
    <glyph glyph-name="uni0312" unicode="&#x312;" 
d="M101.5 726q-12.5 -25 -10.5 -54q12 6 24 6q20 0 32.5 -12.5t12.5 -32.5t-13.5 -33t-35.5 -13q-27 0 -44 21t-17 56q0 48 25 86t62 46v-34q-23 -11 -35.5 -36z" />
    <glyph glyph-name="uni0326" unicode="&#x326;" 
d="M108.5 -209q12.5 25 10.5 54q-12 -6 -24 -6q-19 0 -32 12.5t-13 32.5t13.5 33t35.5 13q27 0 44 -21t17 -56q0 -48 -25 -86t-62 -46v34q23 11 35.5 36z" />
    <glyph glyph-name="uni0327" unicode="&#x327;" 
d="M50 -198h53q29 0 44.5 12.5t15.5 35.5q0 22 -15.5 34.5t-44.5 12.5h-30l-8 11l37 106l44 -1l-28 -76q44 -3 69 -27t25 -63q0 -42 -28 -65.5t-77 -23.5h-57v44z" />
    <glyph glyph-name="uni0328" unicode="&#x328;" 
d="M76 -170q-26 21 -26 60q0 37 26 73.5t80 68.5l21 -32q-77 -48 -77 -100q0 -45 56 -45h32v-46h-37q-49 0 -75 21z" />
    <glyph glyph-name="uni0394" unicode="&#x394;" horiz-adv-x="728" 
d="M335 700h58l313 -700h-684zM616 58l-189 418l-63 143l-64 -143l-188 -418h504z" />
    <glyph glyph-name="uni03A9" unicode="&#x3a9;" horiz-adv-x="879" 
d="M86 57h155q-76 51 -117.5 129.5t-41.5 174.5q0 103 45 183t126.5 124.5t186.5 44.5t186 -44.5t126 -124.5t45 -183q0 -96 -41.5 -174.5t-117.5 -129.5h155v-57h-266v44q101 54 154 135.5t53 182.5q0 84 -37 150t-104 103t-153 37t-153 -37t-104.5 -103t-37.5 -150
q0 -101 53.5 -182.5t154.5 -135.5v-44h-267v57z" />
    <glyph glyph-name="uni03BC" unicode="&#x3bc;" horiz-adv-x="674" 
d="M103 517h58v-272q0 -96 46.5 -148.5t128.5 -52.5q80 0 128.5 54.5t48.5 148.5v270h58v-517h-48l-7 89q-28 -50 -76.5 -76t-104.5 -26q-57 0 -105 26t-73 76v-289h-54v717z" />
    <glyph glyph-name="pi" unicode="&#x3c0;" horiz-adv-x="662" 
d="M103 517h456v-517h-58v463h-340v-463h-58v517z" />
    <glyph glyph-name="uni0400" unicode="&#x400;" horiz-adv-x="609" 
d="M113 700h412v-57h-351v-258h325v-56h-325v-272h362v-57h-423v700zM289 906l62 -136h-54l-70 136h62z" />
    <glyph glyph-name="uni0401" unicode="&#x401;" horiz-adv-x="609" 
d="M113 700h412v-57h-351v-258h325v-56h-325v-272h362v-57h-423v700zM185.5 871q14.5 14 36.5 14t36.5 -14t14.5 -36t-14 -36.5t-37 -14.5q-22 0 -36.5 14.5t-14.5 36.5t14.5 36zM380 871q14 14 37 14q22 0 36.5 -14t14.5 -36t-14 -36.5t-37 -14.5t-37 14t-14 37q0 22 14 36
z" />
    <glyph glyph-name="uni0402" unicode="&#x402;" horiz-adv-x="819" 
d="M535 -145h46q54 0 75.5 22.5t21.5 82.5v222q0 105 -44 148.5t-147 43.5h-148v-374h-60v642h-241v58h570v-58h-269v-210h151q127 0 187.5 -60t60.5 -188v-226q0 -83 -35 -120.5t-121 -37.5h-47v55z" />
    <glyph glyph-name="uni0403" unicode="&#x403;" horiz-adv-x="572" 
d="M113 700h423v-58h-362v-642h-61v700zM345 906h62l-70 -136h-54z" />
    <glyph glyph-name="uni0404" unicode="&#x404;" horiz-adv-x="822" 
d="M236 33.5q-81 46.5 -126.5 129t-45.5 187.5t45.5 187.5t126.5 129t183 46.5q120 0 211.5 -65t125.5 -175h-64q-30 83 -103 131t-169 48q-80 0 -144 -34t-103.5 -95.5t-45.5 -142.5h383v-57h-383q6 -81 45 -143.5t103.5 -97t144.5 -34.5q99 0 174 50t104 137h64
q-21 -75 -71 -131t-120 -86.5t-152 -30.5q-102 0 -183 46.5z" />
    <glyph glyph-name="uni0405" unicode="&#x405;" horiz-adv-x="657" 
d="M199 14q-60 27 -93.5 77t-35.5 117h60q4 -77 60 -120t148 -43q86 0 136 35.5t50 96.5q0 55 -46.5 89.5t-151.5 57.5q-130 30 -187.5 77.5t-57.5 125.5q0 85 64.5 135.5t175.5 50.5q116 0 182.5 -56t70.5 -157h-60q-4 74 -54.5 114.5t-138.5 40.5q-84 0 -131.5 -35
t-47.5 -93q0 -53 45.5 -87.5t153.5 -58.5q131 -30 188 -78.5t57 -124.5q0 -88 -67 -139.5t-181 -51.5q-79 0 -139 27z" />
    <glyph glyph-name="uni0406" unicode="&#x406;" horiz-adv-x="287" 
d="M113 700h61v-700h-61v700z" />
    <glyph glyph-name="uni0407" unicode="&#x407;" horiz-adv-x="287" 
d="M113 700h61v-700h-61v700zM9.5 871q14.5 14 36.5 14t36.5 -14t14.5 -36t-14 -36.5t-37 -14.5q-22 0 -36.5 14.5t-14.5 36.5t14.5 36zM204 871q14 14 37 14q22 0 36.5 -14t14.5 -36t-14 -36.5t-37 -14.5t-37 14t-14 37q0 22 14 36z" />
    <glyph glyph-name="uni0408" unicode="&#x408;" horiz-adv-x="479" 
d="M47 58h101q83 0 121.5 41.5t38.5 121.5v479h60v-482q0 -104 -55.5 -161t-164.5 -57h-101v58z" />
    <glyph glyph-name="uni0409" unicode="&#x409;" horiz-adv-x="1099" 
d="M20 58h31q50 0 74.5 24.5t29.5 83.5l46 534h438v-261h174q72 0 126 -27t83.5 -76.5t29.5 -115.5q0 -101 -65 -160.5t-174 -59.5h-234v642h-323l-40 -481q-7 -83 -45.5 -122t-114.5 -39h-36v58zM810 58q84 0 132 43t48 119q0 75 -48.5 118t-131.5 43h-171v-323h171z" />
    <glyph glyph-name="uni040A" unicode="&#x40a;" horiz-adv-x="1105" 
d="M584 342h-410v-342h-61v700h61v-300h410v300h61v-290h183q69 0 121 -25.5t80.5 -72t28.5 -107.5t-28.5 -107.5t-80.5 -72t-121 -25.5h-244v342zM824 58q80 0 126 39.5t46 107.5t-46 107.5t-126 39.5h-179v-294h179z" />
    <glyph glyph-name="uni040B" unicode="&#x40b;" horiz-adv-x="819" 
d="M634 330.5q-44 43.5 -147 43.5h-148v-374h-60v642h-241v58h570v-58h-269v-210h151q127 0 187.5 -60t60.5 -188v-184h-60v182q0 105 -44 148.5z" />
    <glyph glyph-name="uni040C" unicode="&#x40c;" horiz-adv-x="682" 
d="M113 700h61v-315h111q80 0 121 28t66 92l74 195h64l-84 -219q-17 -44 -40 -74t-56 -48l209 -359h-70l-195 337q-37 -10 -89 -10h-111v-327h-61v700zM351 906h62l-70 -136h-54z" />
    <glyph glyph-name="uni040D" unicode="&#x40d;" horiz-adv-x="769" 
d="M113 700h61v-596l425 596h57v-700h-60v599l-426 -599h-57v700zM355 906l62 -136h-55l-70 136h63z" />
    <glyph glyph-name="uni040E" unicode="&#x40e;" horiz-adv-x="636" 
d="M107 58h65q45 0 71.5 18t48.5 64l20 42l-279 518h69l182 -338l59 -112l51 116l156 334h65l-272 -586q-28 -61 -66 -87.5t-97 -26.5h-73v58zM205 906h49v-16q0 -38 21.5 -59.5t59.5 -21.5t59.5 21.5t21.5 59.5v16h49v-19q0 -55 -35.5 -88.5t-94.5 -33.5t-94.5 33.5
t-35.5 88.5v19z" />
    <glyph glyph-name="uni040F" unicode="&#x40f;" horiz-adv-x="758" 
d="M113 700h61v-642h410v642h61v-700h-236v-152h-60v152h-236v700z" />
    <glyph glyph-name="uni0410" unicode="&#x410;" horiz-adv-x="683" 
d="M312 700h58l290 -700h-64l-73 176h-364l-72 -176h-65zM500 232l-159 385l-158 -385h317z" />
    <glyph glyph-name="uni0411" unicode="&#x411;" horiz-adv-x="662" 
d="M113 700h439v-58h-378v-218h190q109 0 171.5 -58t62.5 -154t-62.5 -154t-171.5 -58h-251v700zM360 58q83 0 130 42t47 112t-47 112t-130 42h-186v-308h186z" />
    <glyph glyph-name="uni0412" unicode="&#x412;" horiz-adv-x="676" 
d="M113 700h266q97 0 154.5 -49.5t57.5 -132.5q0 -57 -28.5 -98t-79.5 -59q61 -18 94.5 -62.5t33.5 -107.5q0 -88 -59.5 -139.5t-161.5 -51.5h-277v700zM388 57q76 0 118.5 36t42.5 100q0 65 -43 100.5t-121 35.5h-211v-272h214zM377 385q72 0 112 34t40 95q0 60 -40 94.5
t-111 34.5h-204v-258h203z" />
    <glyph glyph-name="uni0413" unicode="&#x413;" horiz-adv-x="572" 
d="M113 700h423v-58h-362v-642h-61v700z" />
    <glyph glyph-name="uni0414" unicode="&#x414;" horiz-adv-x="775" 
d="M20 59h79q27 19 40.5 48.5t18.5 82.5l43 510h432v-641h106v-211h-59v152h-601v-152h-59v211zM572 58v584h-316l-39 -459q-4 -44 -13.5 -73.5t-29.5 -51.5h398z" />
    <glyph glyph-name="uni0415" unicode="&#x415;" horiz-adv-x="609" 
d="M113 700h412v-57h-351v-258h325v-56h-325v-272h362v-57h-423v700z" />
    <glyph glyph-name="uni0416" unicode="&#x416;" horiz-adv-x="1049" 
d="M309 336l-195 -336h-70l208 359q-33 18 -56 48t-40 74l-84 219h64l75 -195q24 -64 65.5 -92t121.5 -28h96v315h61v-315h96q80 0 121 28t66 92l75 195h64l-84 -219q-33 -86 -96 -123l208 -358h-70l-195 337q-37 -10 -89 -10h-96v-327h-61v327h-96q-50 0 -89 9z" />
    <glyph glyph-name="uni0417" unicode="&#x417;" horiz-adv-x="646" 
d="M143.5 42q-69.5 55 -76.5 154h62q5 -70 58 -109.5t140 -39.5t139.5 39t52.5 103q0 63 -50.5 101t-133.5 38h-110v57h110q75 0 119 36t44 97q0 63 -47 99t-128 36t-131.5 -36t-57.5 -100h-60q3 59 35.5 103.5t87.5 68.5t126 24q70 0 124 -23.5t83.5 -67t29.5 -100.5
q0 -55 -29.5 -96.5t-82.5 -64.5q61 -21 97 -68t36 -109q0 -58 -31 -103t-89 -69.5t-134 -24.5q-114 0 -183.5 55z" />
    <glyph glyph-name="uni0418" unicode="&#x418;" horiz-adv-x="769" 
d="M113 700h61v-596l425 596h57v-700h-60v599l-426 -599h-57v700z" />
    <glyph glyph-name="uni0419" unicode="&#x419;" horiz-adv-x="769" 
d="M113 700h61v-596l425 596h57v-700h-60v599l-426 -599h-57v700zM255 906h49v-16q0 -38 21.5 -59.5t59.5 -21.5t59.5 21.5t21.5 59.5v16h49v-19q0 -55 -35.5 -88.5t-94.5 -33.5t-94.5 33.5t-35.5 88.5v19z" />
    <glyph glyph-name="uni041A" unicode="&#x41a;" horiz-adv-x="682" 
d="M113 700h61v-315h111q80 0 121 28t66 92l74 195h64l-84 -219q-17 -44 -40 -74t-56 -48l209 -359h-70l-195 337q-37 -10 -89 -10h-111v-327h-61v700z" />
    <glyph glyph-name="uni041B" unicode="&#x41b;" horiz-adv-x="759" 
d="M20 58h31q50 0 74.5 24.5t29.5 83.5l46 534h445v-700h-61v642h-329l-41 -481q-7 -84 -45 -122.5t-114 -38.5h-36v58z" />
    <glyph glyph-name="uni041C" unicode="&#x41c;" horiz-adv-x="921" 
d="M113 700h57l291 -438l291 438h56v-700h-60v588l-262 -393h-50l-262 393v-588h-61v700z" />
    <glyph glyph-name="uni041D" unicode="&#x41d;" horiz-adv-x="758" 
d="M584 328h-410v-328h-61v700h61v-314h410v314h61v-700h-61v328z" />
    <glyph glyph-name="uni041E" unicode="&#x41e;" horiz-adv-x="850" 
d="M238 33q-82 46 -128 128.5t-46 188.5t46 188.5t128 128.5t187 46q106 0 188 -46t127.5 -128.5t45.5 -188.5t-45.5 -188.5t-127.5 -128.5t-188 -46q-105 0 -187 46zM164 193q38 -69 105.5 -107t155.5 -38t156 38t106 106.5t38 157.5t-38 157.5t-106 106.5t-156 38
t-155.5 -38t-105.5 -106.5t-38 -157.5q0 -88 38 -157z" />
    <glyph glyph-name="uni041F" unicode="&#x41f;" horiz-adv-x="758" 
d="M113 700h532v-700h-61v642h-410v-642h-61v700z" />
    <glyph glyph-name="uni0420" unicode="&#x420;" horiz-adv-x="640" 
d="M113 700h222q122 0 190 -60.5t68 -169.5t-68 -169.5t-190 -60.5h-161v-240h-61v700zM334 296q98 0 148 43.5t50 129.5t-50 129.5t-148 43.5h-160v-346h160z" />
    <glyph glyph-name="uni0421" unicode="&#x421;" horiz-adv-x="822" 
d="M236 33.5q-81 46.5 -126.5 129t-45.5 187.5t45.5 187.5t126.5 129t183 46.5q120 0 211.5 -65t125.5 -175h-64q-30 83 -103 131t-169 48q-85 0 -152 -38t-104.5 -107t-37.5 -157t37.5 -157t104.5 -107t152 -38q99 0 174 50t104 137h64q-21 -75 -71 -131t-120 -86.5
t-152 -30.5q-102 0 -183 46.5z" />
    <glyph glyph-name="uni0422" unicode="&#x422;" horiz-adv-x="619" 
d="M279 642h-241v58h543v-58h-242v-642h-60v642z" />
    <glyph glyph-name="uni0423" unicode="&#x423;" horiz-adv-x="636" 
d="M107 58h65q45 0 71.5 18t48.5 64l20 42l-279 518h69l182 -338l59 -112l51 116l156 334h65l-272 -586q-28 -61 -66 -87.5t-97 -26.5h-73v58z" />
    <glyph glyph-name="uni0424" unicode="&#x424;" horiz-adv-x="846" 
d="M393 42q-99 2 -174 40t-116.5 107.5t-41.5 163.5q0 91 41.5 160t116.5 107t174 40v88h60v-88q99 -1 174 -39t116.5 -107t41.5 -161q0 -94 -41.5 -163.5t-116.5 -108t-174 -39.5v-85h-60v85zM156 220q34 -56 95 -86.5t143 -32.5v500q-81 -1 -142.5 -31.5t-95.5 -86.5
t-34 -130q0 -77 34 -133zM649.5 171q73.5 67 73.5 182q0 74 -33.5 129.5t-95 86t-141.5 32.5v-500q123 3 196.5 70z" />
    <glyph glyph-name="uni0425" unicode="&#x425;" horiz-adv-x="681" 
d="M302 358l-247 342h72l157 -217l57 -80l56 80l157 217h71l-247 -342l259 -358h-72l-170 234l-54 77l-55 -77l-169 -234h-73z" />
    <glyph glyph-name="uni0426" unicode="&#x426;" horiz-adv-x="787" 
d="M692 0h-579v700h61v-642h410v642h61v-641h106v-211h-59v152z" />
    <glyph glyph-name="uni0427" unicode="&#x427;" horiz-adv-x="693" 
d="M149.5 305q-68.5 68 -68.5 202v193h60v-191q0 -112 51 -163t162 -51h166v405h60v-700h-60v237h-168q-134 0 -202.5 68z" />
    <glyph glyph-name="uni0428" unicode="&#x428;" horiz-adv-x="1190" 
d="M113 700h61v-642h391v642h60v-642h392v642h60v-700h-964v700z" />
    <glyph glyph-name="uni0429" unicode="&#x429;" horiz-adv-x="1219" 
d="M1124 0h-1011v700h61v-642h391v642h60v-642h392v642h60v-641h106v-211h-59v152z" />
    <glyph glyph-name="uni042A" unicode="&#x42a;" horiz-adv-x="762" 
d="M235 642h-215v58h275v-258h181q110 0 174.5 -60t64.5 -161q0 -67 -29 -117t-83 -77t-127 -27h-241v642zM472 58q85 0 133 44t48 119q0 76 -48 119.5t-133 43.5h-177v-326h177z" />
    <glyph glyph-name="uni042B" unicode="&#x42b;" horiz-adv-x="927" 
d="M113 700h61v-258h180q110 0 174.5 -60t64.5 -161q0 -67 -29 -117t-83 -77t-127 -27h-241v700zM350 58q85 0 133 44t48 119q0 76 -48 119.5t-133 43.5h-176v-326h176zM753 700h61v-700h-61v700z" />
    <glyph glyph-name="uni042C" unicode="&#x42c;" horiz-adv-x="640" 
d="M113 700h61v-258h180q110 0 174.5 -60t64.5 -161q0 -67 -29 -117t-83 -77t-127 -27h-241v700zM350 58q85 0 133 44t48 119q0 76 -48 119.5t-133 43.5h-176v-326h176z" />
    <glyph glyph-name="uni042D" unicode="&#x42d;" horiz-adv-x="822" 
d="M251.5 17.5q-70.5 30.5 -120.5 86.5t-71 131h64q30 -87 104.5 -137t173.5 -50q80 0 144.5 34.5t103.5 97t45 143.5h-383v57h383q-6 81 -45.5 142.5t-103.5 95.5t-144 34q-95 0 -168 -48t-104 -131h-64q34 110 125.5 175t212.5 65q102 0 182.5 -46.5t126 -129t45.5 -187.5
t-45.5 -187.5t-126 -129t-182.5 -46.5q-82 0 -152.5 30.5z" />
    <glyph glyph-name="uni042E" unicode="&#x42e;" horiz-adv-x="1114" 
d="M513 29.5q-79 42.5 -125.5 119t-51.5 176.5h-162v-325h-61v700h61v-317h162q7 97 53.5 172t125 116.5t177.5 41.5q105 0 186.5 -46t126.5 -128.5t45 -188.5t-45 -188.5t-126.5 -128.5t-186.5 -46q-100 0 -179 42.5zM432.5 192.5q37.5 -68.5 105 -106.5t154.5 -38t154 38
t104.5 106.5t37.5 157.5t-37 157.5t-104.5 106.5t-154.5 38t-154.5 -38t-105 -106.5t-37.5 -157.5t37.5 -157.5z" />
    <glyph glyph-name="uni042F" unicode="&#x42f;" horiz-adv-x="681" 
d="M507 263h-186l-183 -263h-71l187 268q-82 14 -130 71t-48 143q0 100 63 159t169 59h260v-700h-61v263zM185.5 364q46.5 -43 128.5 -43h193v321h-193q-82 0 -128.5 -42.5t-46.5 -117.5t46.5 -118z" />
    <glyph glyph-name="uni0430" unicode="&#x430;" horiz-adv-x="624" 
d="M122.5 33.5q-52.5 41.5 -52.5 112.5q0 69 48 109.5t128 40.5h228v37q0 65 -43.5 104t-115.5 39q-58 0 -101 -27.5t-59 -74.5h-59q19 72 77.5 114t140.5 42q64 0 113.5 -24.5t77 -68.5t27.5 -101v-336h-48l-6 89q-34 -47 -89 -72t-124 -25q-90 0 -142.5 41.5zM165.5 72
q37.5 -28 101.5 -28q59 0 106.5 23t74.5 64t27 92v22h-227q-53 0 -86.5 -27t-33.5 -71q0 -47 37.5 -75z" />
    <glyph glyph-name="uni0431" unicode="&#x431;" horiz-adv-x="687" 
d="M213 21.5q-62 34.5 -96.5 96.5t-34.5 141v69q0 118 24 195.5t76 123t138 66.5l265 63v-62l-251 -58q-90 -21 -136.5 -80t-53.5 -164q34 54 91 83.5t128 29.5q77 0 137.5 -34.5t94.5 -95.5t34 -139t-35 -139.5t-97.5 -95.5t-142.5 -34q-79 0 -141 34.5zM167 145.5
q27 -48.5 76 -75.5t112 -27t112 27t76.5 75.5t27.5 110.5q0 63 -27.5 111.5t-76.5 75.5t-112 27t-112 -27t-76 -75.5t-27 -111.5q0 -62 27 -110.5z" />
    <glyph glyph-name="uni0432" unicode="&#x432;" horiz-adv-x="581" 
d="M103 517h245q72 0 116.5 -38t44.5 -99q0 -40 -21 -71.5t-57 -45.5q43 -16 67 -48.5t24 -76.5q0 -62 -45.5 -100t-120.5 -38h-253v517zM356 53q50 0 78.5 24.5t28.5 67.5q0 42 -29 66.5t-78 24.5h-195v-183h195zM353 287q43 0 70 24.5t27 64.5t-27 64.5t-70 24.5h-192
v-178h192z" />
    <glyph glyph-name="uni0433" unicode="&#x433;" horiz-adv-x="462" 
d="M103 517h327v-54h-269v-463h-58v517z" />
    <glyph glyph-name="uni0434" unicode="&#x434;" horiz-adv-x="658" 
d="M18 55h63q23 11 34.5 35t15.5 67l29 360h374v-462h91v-196h-57v141h-494v-141h-56v196zM476 54v409h-263l-25 -313q-6 -65 -30 -96h318z" />
    <glyph glyph-name="uni0435" unicode="&#x435;" horiz-adv-x="643" 
d="M184 21.5q-60 34.5 -93 96t-33 141.5q0 79 33.5 140.5t93.5 96t138 34.5q80 0 141 -37t93 -104t30 -154h-470q8 -88 63.5 -140.5t141.5 -52.5q63 0 111 28t74 78l65 -1q-30 -74 -96.5 -117t-153.5 -43q-78 0 -138 34.5zM530 286q-10 88 -66 138.5t-141 50.5
q-86 0 -142 -51.5t-64 -137.5h413z" />
    <glyph glyph-name="uni0436" unicode="&#x436;" horiz-adv-x="873" 
d="M263 243l-154 -243h-69l167 263q-30 16 -51.5 44.5t-38.5 72.5l-52 137h62l43 -115q25 -65 61.5 -88.5t109.5 -23.5h67v227h58v-227h66q50 0 81 9.5t52 33.5t38 69l43 115h63l-53 -137q-17 -44 -38.5 -72.5t-51.5 -44.5l168 -263h-70l-154 243q-32 -7 -80 -7h-64v-236
h-58v236h-64q-49 0 -81 7z" />
    <glyph glyph-name="uni0437" unicode="&#x437;" horiz-adv-x="544" 
d="M123.5 31.5q-57.5 44.5 -62.5 121.5h58q6 -54 45.5 -82.5t111.5 -28.5q69 0 109 26.5t40 71.5q0 43 -36 69t-96 26h-95v54h95q52 0 83 25t31 67q0 44 -35.5 69t-96.5 25q-65 0 -104.5 -27.5t-44.5 -74.5h-58q5 71 61.5 114t145.5 43q86 0 138.5 -39.5t52.5 -104.5
q0 -40 -21 -72t-57 -49q44 -16 70.5 -50.5t26.5 -78.5q0 -67 -57.5 -108t-151.5 -41q-95 0 -152.5 44.5z" />
    <glyph glyph-name="uni0438" unicode="&#x438;" horiz-adv-x="673" 
d="M103 517h58v-427l353 427h56v-517h-58v429l-354 -429h-55v517z" />
    <glyph glyph-name="uni0439" unicode="&#x439;" horiz-adv-x="673" 
d="M103 517h58v-427l353 427h56v-517h-58v429l-354 -429h-55v517zM198 754h49v-22q0 -42 24 -66.5t65 -24.5q42 0 66 24.5t24 66.5v22h49v-25q0 -59 -38 -95.5t-101 -36.5q-62 0 -100 36.5t-38 95.5v25z" />
    <glyph glyph-name="uni043A" unicode="&#x43a;" horiz-adv-x="579" 
d="M103 517h58v-227h76q73 0 110 23.5t61 88.5l44 115h62l-52 -137q-17 -44 -38.5 -72.5t-51.5 -44.5l167 -263h-69l-154 243q-32 -7 -81 -7h-74v-236h-58v517z" />
    <glyph glyph-name="uni043B" unicode="&#x43b;" horiz-adv-x="640" 
d="M18 55h26q40 0 59.5 21t22.5 69l30 372h381v-517h-58v463h-269l-26 -323q-6 -71 -39.5 -105.5t-97.5 -34.5h-29v55z" />
    <glyph glyph-name="uni043C" unicode="&#x43c;" horiz-adv-x="758" 
d="M103 517h54l222 -307l221 307h55v-517h-58v420l-197 -274h-41l-198 274v-420h-58v517z" />
    <glyph glyph-name="uni043D" unicode="&#x43d;" horiz-adv-x="662" 
d="M501 234h-340v-234h-58v517h58v-228h340v228h58v-517h-58v234z" />
    <glyph glyph-name="uni043E" unicode="&#x43e;" horiz-adv-x="659" 
d="M189 21.5q-62 34.5 -96.5 96.5t-34.5 141t34.5 140.5t96.5 96t141 34.5t140.5 -34.5t96 -96t34.5 -140.5t-34.5 -141t-96 -96.5t-140.5 -34.5t-141 34.5zM143 147q27 -49 75.5 -76.5t111.5 -27.5q62 0 110.5 27.5t75.5 76.5t27 112t-27 112t-75.5 76t-110.5 27
q-63 0 -111.5 -27t-75.5 -76t-27 -112t27 -112z" />
    <glyph glyph-name="uni043F" unicode="&#x43f;" horiz-adv-x="662" 
d="M103 517h456v-517h-58v463h-340v-463h-58v517z" />
    <glyph glyph-name="uni0440" unicode="&#x440;" horiz-adv-x="702" 
d="M252.5 16.5q-56.5 29.5 -91.5 81.5v-298h-58v717h49l6 -103q34 55 91.5 85.5t129.5 30.5q77 0 137.5 -35t94 -96.5t33.5 -139.5t-33.5 -140t-94 -97t-137.5 -35q-70 0 -126.5 29.5zM186 147q27 -49 75.5 -76.5t111.5 -27.5t111 27.5t75 76.5t27 112q0 62 -27 111
t-75 76.5t-111 27.5t-111.5 -27.5t-75.5 -76.5t-27 -111q0 -63 27 -112z" />
    <glyph glyph-name="uni0441" unicode="&#x441;" horiz-adv-x="636" 
d="M185 22q-60 35 -93.5 96.5t-33.5 140.5t33.5 140.5t93.5 96t137 34.5q92 0 162 -50.5t92 -134.5h-59q-25 61 -76.5 95t-118.5 34q-60 0 -107 -27t-73 -76t-26 -112t26 -112t73 -76.5t107 -27.5q71 0 123.5 37t74.5 101h61q-26 -91 -95 -142.5t-164 -51.5q-77 0 -137 35z
" />
    <glyph glyph-name="uni0442" unicode="&#x442;" horiz-adv-x="532" 
d="M237 463h-202v54h462v-54h-202v-463h-58v463z" />
    <glyph glyph-name="uni0443" unicode="&#x443;" horiz-adv-x="557" 
d="M71 -145h43q38 0 59.5 6.5t35.5 23t28 50.5l29 73l-246 509h65l122 -255l89 -184l74 184l105 255h61l-247 -604q-18 -45 -39.5 -69.5t-51.5 -34t-78 -9.5h-49v55z" />
    <glyph glyph-name="uni0444" unicode="&#x444;" horiz-adv-x="737" 
d="M339 -13q-83 1 -146.5 36t-99 96t-35.5 140t35.5 140t99 95.5t146.5 35.5v210h58v-210q83 -1 147 -35.5t99.5 -95.5t35.5 -140t-35.5 -140.5t-99.5 -96t-147 -35.5v-187h-58v187zM143.5 147q27.5 -49 78.5 -76t118 -28v431q-67 -1 -118 -28t-78.5 -75.5t-27.5 -111.5
t27.5 -112zM560 104q61 59 61 155t-61 154.5t-163 60.5v-431q102 2 163 61z" />
    <glyph glyph-name="uni0445" unicode="&#x445;" horiz-adv-x="565" 
d="M244 265l-191 252h69l105 -137l55 -74l55 74l105 137h70l-191 -252l204 -265h-71l-113 147l-58 77l-59 -77l-113 -147h-71z" />
    <glyph glyph-name="uni0446" unicode="&#x446;" horiz-adv-x="683" 
d="M594 0h-491v517h58v-462h340v462h58v-462h92v-196h-57v141z" />
    <glyph glyph-name="uni0447" unicode="&#x447;" horiz-adv-x="595" 
d="M125.5 220.5q-52.5 52.5 -52.5 159.5v137h58v-136q0 -86 37 -122t125 -36h141v294h58v-517h-58v168h-148q-108 0 -160.5 52.5z" />
    <glyph glyph-name="uni0448" unicode="&#x448;" horiz-adv-x="1003" 
d="M103 517h58v-462h312v462h57v-462h312v462h58v-517h-797v517z" />
    <glyph glyph-name="uni0449" unicode="&#x449;" horiz-adv-x="1024" 
d="M934 0h-831v517h58v-462h312v462h57v-462h312v462h58v-462h91v-196h-57v141z" />
    <glyph glyph-name="uni044A" unicode="&#x44a;" horiz-adv-x="649" 
d="M197 463h-179v54h237v-170h163q86 0 137.5 -47t51.5 -126t-51.5 -126.5t-137.5 -47.5h-221v463zM417 55q61 0 96.5 32t35.5 87t-35.5 87t-96.5 32h-162v-238h162z" />
    <glyph glyph-name="uni044B" unicode="&#x44b;" horiz-adv-x="818" 
d="M103 517h58v-170h163q86 0 137 -47t51 -126q0 -80 -51 -127t-137 -47h-221v517zM323 55q61 0 96 32t35 87t-35 87t-96 32h-162v-238h162zM657 517h58v-517h-58v517z" />
    <glyph glyph-name="uni044C" unicode="&#x44c;" horiz-adv-x="554" 
d="M103 517h58v-170h163q86 0 137 -47t51 -126q0 -80 -51 -127t-137 -47h-221v517zM323 55q61 0 96 32t35 87t-35 87t-96 32h-162v-238h162z" />
    <glyph glyph-name="uni044D" unicode="&#x44d;" horiz-adv-x="636" 
d="M150 38.5q-69 51.5 -95 142.5h61q21 -64 74 -101t124 -37q85 0 141 53t64 139h-266v52h266q-9 84 -65 135.5t-140 51.5q-67 0 -118 -33.5t-77 -95.5h-59q23 84 92 134.5t162 50.5q77 0 137 -34.5t93.5 -96t33.5 -140.5t-33.5 -140.5t-93.5 -96.5t-137 -35
q-95 0 -164 51.5z" />
    <glyph glyph-name="uni044E" unicode="&#x44e;" horiz-adv-x="893" 
d="M103 517h58v-228h134q7 70 43 125t94.5 85.5t131.5 30.5q78 0 140 -34.5t96.5 -96.5t34.5 -140t-34.5 -140t-96.5 -97t-140 -35q-74 0 -133 31t-95 87.5t-41 128.5h-134v-234h-58v517zM378 147q27 -49 75.5 -76.5t110.5 -27.5t110.5 27.5t75.5 76.5t27 112t-27 112
t-75.5 76t-110.5 27t-110.5 -27t-75.5 -76t-27 -112t27 -112z" />
    <glyph glyph-name="uni044F" unicode="&#x44f;" horiz-adv-x="579" 
d="M418 183h-157l-131 -183h-70l137 189q-60 14 -95 56.5t-35 104.5q0 76 51.5 121.5t134.5 45.5h223v-517h-58v183zM160 267q35 -30 94 -30h165v226h-165q-59 0 -94 -29.5t-35 -83.5q0 -53 35 -83z" />
    <glyph glyph-name="uni0450" unicode="&#x450;" horiz-adv-x="643" 
d="M184 21.5q-60 34.5 -93 96t-33 141.5q0 79 33.5 140.5t93.5 96t138 34.5q80 0 141 -37t93 -104t30 -154h-470q8 -88 63.5 -140.5t141.5 -52.5q63 0 111 28t74 78l65 -1q-30 -74 -96.5 -117t-153.5 -43q-78 0 -138 34.5zM530 286q-10 88 -66 138.5t-141 50.5
q-86 0 -142 -51.5t-64 -137.5h413zM306 754l55 -151h-55l-63 151h63z" />
    <glyph glyph-name="uni0451" unicode="&#x451;" horiz-adv-x="643" 
d="M184 21.5q-60 34.5 -93 96t-33 141.5q0 79 33.5 140.5t93.5 96t138 34.5q80 0 141 -37t93 -104t30 -154h-470q8 -88 63.5 -140.5t141.5 -52.5q63 0 111 28t74 78l65 -1q-30 -74 -96.5 -117t-153.5 -43q-78 0 -138 34.5zM530 286q-10 88 -66 138.5t-141 50.5
q-86 0 -142 -51.5t-64 -137.5h413zM189.5 700q14.5 14 36.5 14t36.5 -14t14.5 -36t-14 -36.5t-37 -14.5q-22 0 -36.5 14.5t-14.5 36.5t14.5 36zM383.5 700q14.5 14 36.5 14t36.5 -14t14.5 -36t-14 -36.5t-37 -14.5q-22 0 -36.5 14.5t-14.5 36.5t14.5 36z" />
    <glyph glyph-name="uni0452" unicode="&#x452;" horiz-adv-x="686" 
d="M398 -148h39q56 0 77.5 23t21.5 87v318q0 90 -44.5 140.5t-121.5 50.5q-54 0 -96.5 -25.5t-66 -71.5t-23.5 -107v-267h-58v617h-116v50h116v73h58v-73h203v-50h-203v-198q29 52 80.5 80t112.5 28q101 0 159 -64.5t58 -177.5v-324q0 -87 -34.5 -125.5t-119.5 -38.5h-42v55
z" />
    <glyph glyph-name="uni0453" unicode="&#x453;" horiz-adv-x="462" 
d="M103 517h327v-54h-269v-463h-58v517zM279 754h63l-63 -151h-55z" />
    <glyph glyph-name="uni0454" unicode="&#x454;" horiz-adv-x="636" 
d="M185 22q-60 35 -93.5 96.5t-33.5 140.5t33.5 140.5t93.5 96t137 34.5q92 0 162 -50.5t92 -134.5h-59q-25 61 -76.5 95t-118.5 34q-84 0 -140 -51.5t-65 -135.5h266v-52h-266q8 -86 64 -139t141 -53q71 0 123.5 37t74.5 101h61q-26 -91 -95 -142.5t-164 -51.5
q-77 0 -137 35z" />
    <glyph glyph-name="uni0455" unicode="&#x455;" horiz-adv-x="550" 
d="M124.5 32.5q-58.5 45.5 -61.5 123.5h57q5 -55 46.5 -85.5t115.5 -30.5q68 0 107 24.5t39 67.5q0 41 -38.5 66.5t-120.5 39.5q-101 17 -148.5 53.5t-47.5 96.5q0 66 52.5 104t143.5 38q92 0 146.5 -41.5t60.5 -115.5h-58q-4 51 -42.5 78t-106.5 27q-64 0 -101 -24.5
t-37 -66.5q0 -38 36 -61.5t122 -39.5q196 -37 196 -155q0 -65 -55.5 -104.5t-148.5 -39.5q-98 0 -156.5 45.5z" />
    <glyph glyph-name="uni0456" unicode="&#x456;" horiz-adv-x="264" 
d="M103 517h58v-517h-58v517zM93.5 701q14.5 15 38.5 15t38.5 -15t14.5 -37q0 -23 -14.5 -38t-38.5 -15t-38.5 15t-14.5 38q0 22 14.5 37z" />
    <glyph glyph-name="uni0457" unicode="&#x457;" horiz-adv-x="264" 
d="M103 517h58v-517h-58v517zM6.5 700q13.5 14 35.5 14t35.5 -14t13.5 -36q0 -23 -13.5 -37t-35.5 -14t-35.5 14t-13.5 37q0 22 13.5 36zM186.5 700q13.5 14 35.5 14t35.5 -14t13.5 -36q0 -23 -13.5 -37t-35.5 -14t-35.5 14t-13.5 37q0 22 13.5 36z" />
    <glyph glyph-name="uni0458" unicode="&#x458;" horiz-adv-x="265" 
d="M-44 -148h49q56 0 77.5 23t21.5 87v555h58v-556q0 -87 -35 -125.5t-119 -38.5h-52v55zM94.5 701q14.5 15 38.5 15t38.5 -15t14.5 -37q0 -23 -14.5 -38t-38.5 -15t-38.5 15t-14.5 38q0 22 14.5 37z" />
    <glyph glyph-name="uni0459" unicode="&#x459;" horiz-adv-x="918" 
d="M18 55h26q40 0 59.5 21t22.5 69l30 372h371v-170h160q86 0 137.5 -47t51.5 -126t-51.5 -126.5t-137.5 -47.5h-218v463h-260l-25 -323q-6 -71 -39.5 -105.5t-97.5 -34.5h-29v55zM686 55q61 0 96.5 32t35.5 87t-35.5 87t-96.5 32h-159v-238h159z" />
    <glyph glyph-name="uni045A" unicode="&#x45a;" horiz-adv-x="944" 
d="M501 250h-340v-250h-58v517h58v-212h340v212h58v-205h167q80 0 128 -42.5t48 -113.5t-48 -113.5t-128 -42.5h-225v250zM725 55q55 0 87 27t32 74t-32 74t-87 27h-166v-202h166z" />
    <glyph glyph-name="uni045B" unicode="&#x45b;" horiz-adv-x="686" 
d="M126 617h-116v50h116v73h58v-73h203v-50h-203v-197q30 52 80.5 79.5t112.5 27.5q101 0 159 -64.5t58 -177.5v-285h-58v280q0 90 -44.5 140.5t-121.5 50.5q-54 0 -96.5 -25.5t-66 -71.5t-23.5 -107v-267h-58v617z" />
    <glyph glyph-name="uni045C" unicode="&#x45c;" horiz-adv-x="579" 
d="M103 517h58v-227h76q73 0 110 23.5t61 88.5l44 115h62l-52 -137q-17 -44 -38.5 -72.5t-51.5 -44.5l167 -263h-69l-154 243q-32 -7 -81 -7h-74v-236h-58v517zM324 754h62l-63 -151h-54z" />
    <glyph glyph-name="uni045D" unicode="&#x45d;" horiz-adv-x="673" 
d="M103 517h58v-427l353 427h56v-517h-58v429l-354 -429h-55v517zM319 754l55 -151h-54l-63 151h62z" />
    <glyph glyph-name="uni045E" unicode="&#x45e;" horiz-adv-x="557" 
d="M71 -145h43q38 0 59.5 6.5t35.5 23t28 50.5l29 73l-246 509h65l122 -255l89 -184l74 184l105 255h61l-247 -604q-18 -45 -39.5 -69.5t-51.5 -34t-78 -9.5h-49v55zM146 754h49v-22q0 -42 24 -66.5t65 -24.5q42 0 66 24.5t24 66.5v22h49v-25q0 -59 -38 -95.5t-101 -36.5
q-62 0 -100 36.5t-38 95.5v25z" />
    <glyph glyph-name="uni045F" unicode="&#x45f;" horiz-adv-x="663" 
d="M103 517h58v-462h341v462h58v-517h-200v-141h-57v141h-200v517z" />
    <glyph glyph-name="uni0490" unicode="&#x490;" horiz-adv-x="572" 
d="M113 700h366v135h57v-193h-362v-642h-61v700z" />
    <glyph glyph-name="uni0491" unicode="&#x491;" horiz-adv-x="464" 
d="M103 517h272v128h57v-182h-271v-463h-58v517z" />
    <glyph glyph-name="uni04D4" unicode="&#x4d4;" horiz-adv-x="974" 
d="M484 700h407v-57h-328v-258h302v-56h-302v-272h339v-57h-400v175h-296l-115 -175h-71zM502 232v393l-259 -393h259z" />
    <glyph glyph-name="uni04D5" unicode="&#x4d5;" horiz-adv-x="1053" 
d="M607.5 23.5q-58.5 36.5 -88.5 101.5q-30 -64 -94.5 -101t-149.5 -37q-93 0 -149 43t-56 112q0 67 50.5 108t131.5 41h236v41q0 64 -46 104t-119 40q-60 0 -105.5 -27.5t-60.5 -73.5h-59q18 71 79 113t145 42q73 0 127 -33t77 -91q32 59 88 91.5t129 32.5q77 0 135 -36.5
t89 -102.5t31 -152h-453q5 -90 58.5 -143.5t137.5 -53.5q59 0 105.5 28.5t71.5 78.5h65q-29 -75 -92.5 -118.5t-147.5 -43.5q-77 0 -135.5 36.5zM169 69.5q41 -27.5 108 -27.5q60 0 108 22.5t75.5 63t27.5 90.5v22h-234q-56 0 -91 -27t-35 -70q0 -46 41 -73.5zM940 291
q-11 85 -65 134.5t-134 49.5q-81 0 -134 -50t-61 -134h394z" />
    <glyph glyph-name="Wgrave" unicode="&#x1e80;" horiz-adv-x="1069" 
d="M24 700h64l104 -319l92 -286l105 286l116 319h58l222 -606l93 287l103 319h64l-230 -700h-57l-224 608l-124 -338l-99 -270h-58zM504 906l63 -136h-55l-70 136h62z" />
    <glyph glyph-name="wgrave" unicode="&#x1e81;" horiz-adv-x="861" 
d="M22 517h62l153 -430l73 188l93 242h54l94 -242l73 -188l154 430h61l-187 -517h-56l-89 231l-77 201l-166 -432h-56zM413 754l55 -151h-55l-62 151h62z" />
    <glyph glyph-name="Wacute" unicode="&#x1e82;" horiz-adv-x="1069" 
d="M24 700h64l104 -319l92 -286l105 286l116 319h58l222 -606l93 287l103 319h64l-230 -700h-57l-224 608l-124 -338l-99 -270h-58zM565 906h62l-70 -136h-55z" />
    <glyph glyph-name="wacute" unicode="&#x1e83;" horiz-adv-x="861" 
d="M22 517h62l153 -430l73 188l93 242h54l94 -242l73 -188l154 430h61l-187 -517h-56l-89 231l-77 201l-166 -432h-56zM447 754h63l-63 -151h-55z" />
    <glyph glyph-name="Wdieresis" unicode="&#x1e84;" horiz-adv-x="1069" 
d="M24 700h64l104 -319l92 -286l105 286l116 319h58l222 -606l93 287l103 319h64l-230 -700h-57l-224 608l-124 -338l-99 -270h-58zM400.5 871q14.5 14 36.5 14q23 0 37 -14t14 -36q0 -23 -14 -37t-37 -14q-22 0 -36.5 14.5t-14.5 36.5t14.5 36zM595.5 871q14.5 14 36.5 14
t36.5 -14t14.5 -36t-14 -36.5t-37 -14.5q-22 0 -36.5 14.5t-14.5 36.5t14.5 36z" />
    <glyph glyph-name="wdieresis" unicode="&#x1e85;" horiz-adv-x="861" 
d="M22 517h62l153 -430l73 188l93 242h54l94 -242l73 -188l154 430h61l-187 -517h-56l-89 231l-77 201l-166 -432h-56zM296.5 700q14.5 14 36.5 14t36.5 -14t14.5 -36t-14 -36.5t-37 -14.5q-22 0 -36.5 14.5t-14.5 36.5t14.5 36zM490.5 700q14.5 14 36.5 14t36.5 -14
t14.5 -36t-14 -36.5t-37 -14.5q-22 0 -36.5 14.5t-14.5 36.5t14.5 36z" />
    <glyph glyph-name="uni1E9E" unicode="&#x1e9e;" horiz-adv-x="694" 
d="M336 700h243v-47l-181 -233h10q103 0 164.5 -57t61.5 -153t-61.5 -153t-164.5 -57h-115v57h112q76 0 121.5 41.5t45.5 112.5q0 70 -45 111.5t-122 41.5h-83v47l181 233h-161q-90 0 -134 -42.5t-44 -139.5v-462h-60v468q0 232 232 232z" />
    <glyph glyph-name="Ygrave" unicode="&#x1ef2;" horiz-adv-x="634" 
d="M287 257l-265 443h70l226 -378l225 378h69l-265 -441v-259h-60v257zM287 906l63 -136h-55l-70 136h62z" />
    <glyph glyph-name="ygrave" unicode="&#x1ef3;" horiz-adv-x="557" 
d="M71 -145h43q38 0 59.5 6.5t35.5 23t28 50.5l29 73l-246 509h65l122 -255l89 -184l74 184l105 255h61l-247 -604q-18 -45 -39.5 -69.5t-51.5 -34t-78 -9.5h-49v55zM267 754l55 -151h-54l-63 151h62z" />
    <glyph glyph-name="uni2009" unicode="&#x2009;" horiz-adv-x="204" 
 />
    <glyph glyph-name="uni200B" unicode="&#x200b;" 
 />
    <glyph glyph-name="endash" unicode="&#x2013;" horiz-adv-x="573" 
d="M80 281h413v-54h-413v54z" />
    <glyph glyph-name="emdash" unicode="&#x2014;" horiz-adv-x="691" 
d="M80 281h531v-54h-531v54z" />
    <glyph glyph-name="quoteleft" unicode="&#x2018;" horiz-adv-x="258" 
d="M125.5 670q-13.5 -26 -11.5 -58q14 6 26 6q22 0 36.5 -14.5t14.5 -35.5q0 -22 -15.5 -37t-39.5 -15q-30 0 -49 23.5t-19 62.5q0 53 27.5 94.5t68.5 50.5v-39q-25 -12 -38.5 -38z" />
    <glyph glyph-name="quoteright" unicode="&#x2019;" horiz-adv-x="258" 
d="M132.5 593q13.5 26 11.5 58q-12 -6 -26 -6q-22 0 -36.5 14.5t-14.5 35.5q0 22 15.5 37t39.5 15q30 0 49 -23.5t19 -62.5q0 -53 -27.5 -94.5t-68.5 -50.5v39q25 12 38.5 38z" />
    <glyph glyph-name="quotesinglbase" unicode="&#x201a;" horiz-adv-x="258" 
d="M132.5 -57q13.5 26 11.5 58q-12 -6 -26 -6q-22 0 -36.5 14.5t-14.5 35.5q0 22 15.5 37t39.5 15q30 0 49 -23.5t19 -62.5q0 -53 -27.5 -94.5t-68.5 -50.5v39q25 12 38.5 38z" />
    <glyph glyph-name="quotedblleft" unicode="&#x201c;" horiz-adv-x="419" 
d="M286.5 670q-13.5 -26 -11.5 -58q14 6 27 6q21 0 35.5 -14.5t14.5 -35.5q0 -22 -15 -37t-39 -15q-31 0 -49.5 23.5t-18.5 62.5q0 53 27 94.5t68 50.5v-39q-25 -12 -38.5 -38zM95.5 696.5q27.5 41.5 68.5 50.5v-39q-25 -12 -38.5 -38t-11.5 -58q14 6 26 6q22 0 36.5 -14.5
t14.5 -35.5q0 -22 -15.5 -37t-39.5 -15q-30 0 -49 23.5t-19 62.5q0 53 27.5 94.5z" />
    <glyph glyph-name="quotedblright" unicode="&#x201d;" horiz-adv-x="419" 
d="M132.5 593q13.5 26 11.5 58q-12 -6 -26 -6q-22 0 -36.5 14.5t-14.5 35.5q0 22 15.5 37t39.5 15q30 0 49 -23.5t19 -62.5q0 -53 -27.5 -94.5t-68.5 -50.5v39q25 12 38.5 38zM293.5 593q13.5 26 11.5 58q-12 -6 -26 -6q-22 0 -36.5 14.5t-14.5 35.5q0 22 15.5 37t39.5 15
q30 0 49 -23.5t19 -62.5q0 -53 -27.5 -94.5t-68.5 -50.5v39q25 12 38.5 38z" />
    <glyph glyph-name="quotedblbase" unicode="&#x201e;" horiz-adv-x="419" 
d="M132.5 -57q13.5 26 11.5 58q-12 -6 -26 -6q-22 0 -36.5 14.5t-14.5 35.5q0 22 15.5 37t39.5 15q30 0 49 -23.5t19 -62.5q0 -53 -27.5 -94.5t-68.5 -50.5v39q25 12 38.5 38zM293.5 -57q13.5 26 11.5 58q-12 -6 -26 -6q-22 0 -36.5 14.5t-14.5 35.5q0 22 15.5 37t39.5 15
q30 0 49 -23.5t19 -62.5q0 -53 -27.5 -94.5t-68.5 -50.5v39q25 12 38.5 38z" />
    <glyph glyph-name="dagger" unicode="&#x2020;" horiz-adv-x="587" 
d="M266 362h-204v55h204v220h55v-220h204v-55h-204v-562h-55v562z" />
    <glyph glyph-name="daggerdbl" unicode="&#x2021;" horiz-adv-x="587" 
d="M266 69h-204v55h204v238h-204v55h204v220h55v-220h204v-55h-204v-238h204v-55h-204v-269h-55v269z" />
    <glyph glyph-name="bullet" unicode="&#x2022;" horiz-adv-x="324" 
d="M94 178.5q-26 26.5 -26 66.5q0 41 26 67t68 26q43 0 69 -26t26 -67q0 -40 -26 -66.5t-69 -26.5q-42 0 -68 26.5z" />
    <glyph glyph-name="ellipsis" unicode="&#x2026;" horiz-adv-x="654" 
d="M82.5 8.5q-14.5 14.5 -14.5 37.5t14.5 37.5t38.5 14.5t38.5 -14.5t14.5 -37.5t-14.5 -37.5t-38.5 -14.5t-38.5 14.5zM288.5 83.5q14.5 14.5 38.5 14.5t38.5 -14.5t14.5 -37.5t-14.5 -37.5t-38.5 -14.5t-38.5 14.5t-14.5 37.5t14.5 37.5zM494.5 83.5q14.5 14.5 38.5 14.5
t38.5 -14.5t14.5 -37.5t-14.5 -37.5t-38.5 -14.5t-38.5 14.5t-14.5 37.5t14.5 37.5z" />
    <glyph glyph-name="perthousand" unicode="&#x2030;" horiz-adv-x="1211" 
d="M604 700h64l-429 -700h-65zM96.5 669.5q42.5 41.5 106.5 41.5t106 -41.5t42 -104.5q0 -64 -41.5 -105t-106.5 -41t-107 41t-42 105q0 63 42.5 104.5zM134 496q27 -27 69 -27t68.5 27t26.5 69q0 41 -26.5 68t-68.5 27t-69 -27t-27 -68q0 -42 27 -69zM533 240q42 41 107 41
t107 -41t42 -105q0 -63 -42.5 -104.5t-106.5 -41.5t-106.5 41.5t-42.5 104.5q0 64 42 105zM571.5 67q27.5 -27 68.5 -27q42 0 69 27t27 68q0 42 -27 69t-69 27q-41 0 -68.5 -27t-27.5 -69q0 -41 27.5 -68zM908 240q42 41 107 41t107 -41t42 -105q0 -63 -42.5 -104.5
t-106.5 -41.5t-106.5 41.5t-42.5 104.5q0 64 42 105zM946 67q27 -27 69 -27t69 27t27 68q0 42 -27 69t-69 27t-69 -27t-27 -69q0 -41 27 -68z" />
    <glyph glyph-name="minute" unicode="&#x2032;" horiz-adv-x="256" 
d="M140 740h56l-80 -312h-56z" />
    <glyph glyph-name="second" unicode="&#x2033;" horiz-adv-x="429" 
d="M140 740h55l-81 -312h-54zM315 740h54l-81 -312h-54z" />
    <glyph glyph-name="guilsinglleft" unicode="&#x2039;" horiz-adv-x="371" 
d="M71 278l179 234h72l-178 -234l179 -234h-73z" />
    <glyph glyph-name="guilsinglright" unicode="&#x203a;" horiz-adv-x="371" 
d="M300 278l-179 -234h-72l178 234l-179 234h73z" />
    <glyph glyph-name="uni203D" unicode="&#x203d;" horiz-adv-x="609" 
d="M263 527h63l-2 -184q22 23 47 42q50 38 71 67t21 71q0 57 -42.5 95.5t-124.5 38.5q-78 0 -120.5 -39t-47.5 -101h-58q7 91 67 143.5t159 52.5q72 0 123 -26t76.5 -69.5t25.5 -94.5q0 -57 -29.5 -99.5t-93.5 -88.5q-42 -29 -58.5 -53t-16.5 -58v-32h-58zM256 83.5
q15 14.5 38 14.5q24 0 39 -14.5t15 -37.5t-15 -37.5t-39 -14.5q-23 0 -38 14.5t-15 37.5t15 37.5z" />
    <glyph glyph-name="fraction" unicode="&#x2044;" horiz-adv-x="205" 
d="M291 700h58l-436 -700h-57z" />
    <glyph glyph-name="uni2070" unicode="&#x2070;" horiz-adv-x="404" 
d="M99 504.5q-38 48.5 -38 132.5t38 132.5t103 48.5t103 -48.5t38 -132.5t-38 -132.5t-103 -48.5t-103 48.5zM134.5 537.5q24.5 -35.5 67.5 -35.5t67 35.5t24 99.5t-24 99.5t-67 35.5t-67.5 -35.5t-24.5 -99.5t24.5 -99.5z" />
    <glyph glyph-name="uni2074" unicode="&#x2074;" horiz-adv-x="341" 
d="M213 536h-180v34l123 242h56l-119 -233h122l8 109h40v-108h47v-44h-47v-74h-50v74z" />
    <glyph glyph-name="uni2075" unicode="&#x2075;" horiz-adv-x="350" 
d="M91 485q-33 29 -36 77h49q2 -28 22 -44.5t51 -16.5q33 0 53 19t20 50q0 30 -20 49t-53 19h-114l18 174h198v-44h-155l-8 -91h69q51 0 82.5 -30.5t31.5 -79.5q0 -50 -33.5 -80.5t-87.5 -30.5t-87 29z" />
    <glyph glyph-name="uni2076" unicode="&#x2076;" horiz-adv-x="368" 
d="M89.5 489.5q-36.5 33.5 -36.5 86.5q0 22 7 42.5t24 47.5l96 146h58l-83 -125q15 7 37 7q52 0 86 -33.5t34 -84.5q0 -52 -36.5 -86t-92.5 -34q-57 0 -93.5 33.5zM125 520.5q23 -21.5 58 -21.5t57.5 21.5t22.5 55.5t-22.5 55.5t-57.5 21.5t-58 -21.5t-23 -55.5t23 -55.5z
" />
    <glyph glyph-name="uni2077" unicode="&#x2077;" horiz-adv-x="304" 
d="M210 768h-175v44h231v-35l-133 -315h-53z" />
    <glyph glyph-name="uni2078" unicode="&#x2078;" horiz-adv-x="364" 
d="M89 483q-35 27 -35 72q0 31 16.5 54t46.5 34q-26 11 -40 31.5t-14 48.5q0 42 33 68.5t86 26.5t86 -26.5t33 -68.5q0 -27 -14.5 -48t-39.5 -32q30 -11 46.5 -34.5t16.5 -53.5q0 -45 -35 -72t-93 -27t-93 27zM124 511.5q22 -17.5 58 -17.5t58 17.5t22 46.5t-22 46.5
t-58 17.5t-58 -17.5t-22 -46.5t22 -46.5zM128.5 675.5q20.5 -17.5 53.5 -17.5t53.5 17.5t20.5 44.5t-20.5 44t-53.5 17t-53.5 -17t-20.5 -44t20.5 -44.5z" />
    <glyph glyph-name="uni2079" unicode="&#x2079;" horiz-adv-x="368" 
d="M278.5 784.5q36.5 -33.5 36.5 -86.5q0 -22 -7 -42.5t-24 -47.5l-96 -146h-58l83 125q-15 -7 -37 -7q-52 0 -86 33.5t-34 84.5q0 52 36.5 86t92.5 34q57 0 93.5 -33.5zM127.5 642.5q22.5 -21.5 57.5 -21.5t58 21.5t23 55.5t-23 55.5t-58 21.5t-57.5 -21.5t-22.5 -55.5
t22.5 -55.5z" />
    <glyph glyph-name="uni2080" unicode="&#x2080;" horiz-adv-x="404" 
d="M99 -95.5q-38 48.5 -38 132.5t38 132.5t103 48.5t103 -48.5t38 -132.5t-38 -132.5t-103 -48.5t-103 48.5zM134.5 -62.5q24.5 -35.5 67.5 -35.5t67 35.5t24 99.5t-24 99.5t-67 35.5t-67.5 -35.5t-24.5 -99.5t24.5 -99.5z" />
    <glyph glyph-name="uni2081" unicode="&#x2081;" horiz-adv-x="254" 
d="M112 111h-78v45h47q16 0 25.5 5t12.5 24l4 27h39v-350h-50v249z" />
    <glyph glyph-name="uni2082" unicode="&#x2082;" horiz-adv-x="387" 
d="M67 -101l148 134q22 19 33 37t11 39q0 29 -19 47t-49 18t-50 -19t-21 -52h-47q1 53 34 84t85 31q51 0 83.5 -30t32.5 -77q0 -32 -15.5 -58t-47.5 -55l-99 -91h172v-45h-251v37z" />
    <glyph glyph-name="uni2083" unicode="&#x2083;" horiz-adv-x="357" 
d="M88 -115.5q-33 28.5 -35 77.5h48q3 -28 22.5 -44.5t50.5 -16.5q33 0 53.5 18.5t20.5 49.5q0 29 -20.5 48t-53.5 19h-53v31l94 102h-154v43h221v-35l-102 -107h11q45 0 75 -29t30 -75q0 -48 -33.5 -79t-87.5 -31t-87 28.5z" />
    <glyph glyph-name="uni2084" unicode="&#x2084;" horiz-adv-x="341" 
d="M213 -64h-180v34l123 242h56l-119 -233h122l8 109h40v-108h47v-44h-47v-74h-50v74z" />
    <glyph glyph-name="uni2085" unicode="&#x2085;" horiz-adv-x="350" 
d="M91 -115q-33 29 -36 77h49q2 -28 22 -44.5t51 -16.5q33 0 53 19t20 50q0 30 -20 49t-53 19h-114l18 174h198v-44h-155l-8 -91h69q51 0 82.5 -30.5t31.5 -79.5q0 -50 -33.5 -80.5t-87.5 -30.5t-87 29z" />
    <glyph glyph-name="uni2086" unicode="&#x2086;" horiz-adv-x="368" 
d="M89.5 -110.5q-36.5 33.5 -36.5 86.5q0 22 7 42.5t24 47.5l96 146h58l-83 -125q15 7 37 7q52 0 86 -33.5t34 -84.5q0 -52 -36.5 -86t-92.5 -34q-57 0 -93.5 33.5zM125 -79.5q23 -21.5 58 -21.5t57.5 21.5t22.5 55.5t-22.5 55.5t-57.5 21.5t-58 -21.5t-23 -55.5t23 -55.5z
" />
    <glyph glyph-name="uni2087" unicode="&#x2087;" horiz-adv-x="304" 
d="M210 168h-175v44h231v-35l-133 -315h-53z" />
    <glyph glyph-name="uni2088" unicode="&#x2088;" horiz-adv-x="364" 
d="M89 -117q-35 27 -35 72q0 31 16.5 54t46.5 34q-26 11 -40 31.5t-14 48.5q0 42 33 68.5t86 26.5t86 -26.5t33 -68.5q0 -27 -14.5 -48t-39.5 -32q30 -11 46.5 -34.5t16.5 -53.5q0 -45 -35 -72t-93 -27t-93 27zM124 -88.5q22 -17.5 58 -17.5t58 17.5t22 46.5t-22 46.5
t-58 17.5t-58 -17.5t-22 -46.5t22 -46.5zM128.5 75.5q20.5 -17.5 53.5 -17.5t53.5 17.5t20.5 44.5t-20.5 44t-53.5 17t-53.5 -17t-20.5 -44t20.5 -44.5z" />
    <glyph glyph-name="uni2089" unicode="&#x2089;" horiz-adv-x="368" 
d="M278.5 184.5q36.5 -33.5 36.5 -86.5q0 -22 -7 -42.5t-24 -47.5l-96 -146h-58l83 125q-15 -7 -37 -7q-52 0 -86 33.5t-34 84.5q0 52 36.5 86t92.5 34q57 0 93.5 -33.5zM127.5 42.5q22.5 -21.5 57.5 -21.5t58 21.5t23 55.5t-23 55.5t-58 21.5t-57.5 -21.5t-22.5 -55.5
t22.5 -55.5z" />
    <glyph glyph-name="Euro" unicode="&#x20ac;" horiz-adv-x="910" 
d="M353.5 18.5q-70.5 31.5 -119 89t-68.5 134.5h-134v55h123q-3 26 -3 53q0 33 4 58h-124v54h135q32 115 123.5 183t216.5 68q121 0 212 -65t126 -175h-65q-30 83 -102.5 131t-169.5 48q-99 0 -173 -52t-104 -140h323v-52h-335q-5 -32 -5 -58q0 -30 4 -53h336v-53h-324
q29 -90 103.5 -143t174.5 -53q99 0 174 50t104 137h64q-21 -75 -70.5 -131t-120 -86.5t-152.5 -30.5q-83 0 -153.5 31.5z" />
    <glyph glyph-name="uni20B4" unicode="&#x20b4;" horiz-adv-x="667" 
d="M210.5 8q-48.5 21 -74.5 57.5t-26 82.5q0 54 35 97h-74v52h525v-52h-389q-41 -37 -41 -87q0 -49 39.5 -83t120.5 -34q74 0 116.5 35.5t46.5 89.5h54q-3 -81 -60.5 -130t-158.5 -49q-65 0 -113.5 21zM71 455h370q37 36 37 89q0 49 -37 82.5t-110 33.5q-70 0 -109.5 -35.5
t-43.5 -91.5h-55q7 84 60.5 132t146.5 48q66 0 112 -22.5t69 -61t23 -84.5q0 -53 -30 -90h92v-53h-525v53z" />
    <glyph glyph-name="uni20BA" unicode="&#x20ba;" horiz-adv-x="631" 
d="M151 234l-106 -40v53l106 40v104l-106 -40v54l106 40v255h60v-233l215 80v-54l-215 -80v-104l215 80v-53l-215 -80v-198h174q66 0 97 34t31 101v36h59v-36q0 -193 -184 -193h-237v234z" />
    <glyph glyph-name="uni20BD" unicode="&#x20bd;" horiz-adv-x="661" 
d="M166 125h-120v58h120v104h-120v59h120v354h213q109 0 172 -56t63 -150t-63 -150.5t-172 -56.5h-152v-104h205v-56h-205v-127h-61v125zM377 345q86 0 130.5 38.5t44.5 109.5t-44.5 110t-130.5 39h-150v-297h150z" />
    <glyph glyph-name="uni2103" unicode="&#x2103;" horiz-adv-x="1160" 
d="M80 494.5q-41 40.5 -41 102.5t41 102.5t105 40.5t105 -40.5t41 -102.5t-41 -102.5t-105 -40.5t-105 40.5zM116 527.5q28 -27.5 69 -27.5t68.5 27.5t27.5 69.5q0 43 -27 70t-69 27t-69.5 -27.5t-27.5 -69.5t28 -69.5zM574 33.5q-81 46.5 -126.5 129t-45.5 187.5
t45.5 187.5t126.5 129t183 46.5q120 0 211.5 -65t125.5 -175h-64q-30 83 -103 131t-169 48q-85 0 -152 -38t-104.5 -107t-37.5 -157t37.5 -157t104.5 -107t152 -38q99 0 174 50t104 137h64q-21 -75 -71 -131t-120 -86.5t-152 -30.5q-102 0 -183 46.5z" />
    <glyph glyph-name="uni2109" unicode="&#x2109;" horiz-adv-x="874" 
d="M80 494.5q-41 40.5 -41 102.5t41 102.5t105 40.5t105 -40.5t41 -102.5t-41 -102.5t-105 -40.5t-105 40.5zM116 527.5q28 -27.5 69 -27.5t68.5 27.5t27.5 69.5q0 43 -27 70t-69 27t-69.5 -27.5t-27.5 -69.5t28 -69.5zM427 700h386v-57h-325v-275h299v-56h-299v-312h-61
v700z" />
    <glyph glyph-name="uni2113" unicode="&#x2113;" horiz-adv-x="556" 
d="M189.5 35q-45.5 45 -45.5 133v92l-108 -44v52l108 44v263q0 83 43.5 130t113.5 47q41 0 76 -19.5t56 -58.5t21 -96q0 -89 -62 -165.5t-198 -132.5v-112q0 -68 32.5 -99t84.5 -31q119 0 119 138h48q0 -95 -47.5 -140.5t-121.5 -45.5t-119.5 45zM352 440.5
q53 63.5 53 137.5q0 64 -30.5 94.5t-75.5 30.5q-47 0 -76 -31t-29 -96v-244q105 45 158 108.5z" />
    <glyph glyph-name="uni2116" unicode="&#x2116;" horiz-adv-x="1169" 
d="M113 700h57l426 -595v595h60v-700h-57l-426 596v-596h-60v700zM854 668.5q45 44.5 115 44.5t115 -44.5t45 -112.5q0 -69 -45 -113t-115 -44t-115 44t-45 113q0 68 45 112.5zM830 310h278v-43h-278v43zM888 475q31 -31 81 -31t81 31t31 81t-31 81t-81 31t-81 -31t-31 -81
t31 -81z" />
    <glyph glyph-name="uni2117" unicode="&#x2117;" horiz-adv-x="898" 
d="M339 562h128q65 0 104.5 -35t39.5 -94t-39.5 -94t-104.5 -35h-77v-127h-51v385zM113.5 567.5q49.5 87.5 137 136.5t198.5 49t198.5 -49t137 -136.5t49.5 -197.5t-49.5 -197.5t-137 -136.5t-198.5 -49t-198.5 49t-137 136.5t-49.5 197.5t49.5 197.5zM162 200.5
q43 -75.5 118 -118.5t169 -43t169 43t118 118.5t43 169.5t-43 169.5t-118 118.5t-169 43t-169 -43t-118 -118.5t-43 -169.5t43 -169.5zM467 352q44 0 68 22t24 59t-24 58.5t-68 21.5h-77v-161h77z" />
    <glyph glyph-name="trademark" unicode="&#x2122;" horiz-adv-x="563" 
d="M263 700h33l99 -152l99 152h33v-238h-36v168l-84 -126h-22l-86 127v-169h-36v238zM30 700h197v-35h-80v-203h-37v203h-80v35z" />
    <glyph glyph-name="uni2126" unicode="&#x2126;" horiz-adv-x="879" 
d="M86 57h155q-76 51 -117.5 129.5t-41.5 174.5q0 103 45 183t126.5 124.5t186.5 44.5t186 -44.5t126 -124.5t45 -183q0 -96 -41.5 -174.5t-117.5 -129.5h155v-57h-266v44q101 54 154 135.5t53 182.5q0 84 -37 150t-104 103t-153 37t-153 -37t-104.5 -103t-37.5 -150
q0 -101 53.5 -182.5t154.5 -135.5v-44h-267v57z" />
    <glyph glyph-name="estimated" unicode="&#x212e;" horiz-adv-x="826" 
d="M109.5 537.5q45.5 82.5 126.5 128.5t183 46q100 0 178 -46t121.5 -128t43.5 -187v-44h-563v-171q36 -44 92 -68t123 -24q78 0 144.5 35.5t115.5 103.5h68q-125 -195 -328 -195q-101 0 -180.5 46.5t-124.5 129t-45 186.5q0 105 45.5 187.5zM631 363v205q-81 88 -212 88
q-132 0 -220 -89v-204h432z" />
    <glyph glyph-name="uni2150" unicode="&#x2150;" horiz-adv-x="763" 
d="M112 599h-78v45h47q16 0 25.5 5t12.5 24l4 27h39v-350h-50v249zM545 700h58l-436 -700h-57zM669 306h-175v44h231v-35l-133 -315h-53z" />
    <glyph glyph-name="uni2151" unicode="&#x2151;" horiz-adv-x="827" 
d="M112 599h-78v45h47q16 0 25.5 5t12.5 24l4 27h39v-350h-50v249zM545 700h58l-436 -700h-57zM737.5 322.5q36.5 -33.5 36.5 -86.5q0 -22 -7 -42.5t-24 -47.5l-96 -146h-58l83 125q-15 -7 -37 -7q-52 0 -86 33.5t-34 84.5q0 52 36.5 86t92.5 34q57 0 93.5 -33.5z
M586.5 180.5q22.5 -21.5 57.5 -21.5t58 21.5t23 55.5t-23 55.5t-58 21.5t-57.5 -21.5t-22.5 -55.5t22.5 -55.5z" />
    <glyph glyph-name="uni2153" unicode="&#x2153;" horiz-adv-x="815" 
d="M112 599h-78v45h47q16 0 25.5 5t12.5 24l4 27h39v-350h-50v249zM545 700h58l-436 -700h-57zM547 22.5q-33 28.5 -35 77.5h48q3 -28 22.5 -44.5t50.5 -16.5q33 0 53.5 18.5t20.5 49.5q0 29 -20.5 48t-53.5 19h-53v31l94 102h-154v43h221v-35l-102 -107h11q45 0 75 -29
t30 -75q0 -48 -33.5 -79t-87.5 -31t-87 28.5z" />
    <glyph glyph-name="uni2154" unicode="&#x2154;" horiz-adv-x="948" 
d="M67 387l148 134q22 19 33 37t11 39q0 29 -19 47t-49 18t-50 -19t-21 -52h-47q1 53 34 84t85 31q51 0 83.5 -30t32.5 -77q0 -32 -15.5 -58t-47.5 -55l-99 -91h172v-45h-251v37zM678 700h58l-436 -700h-57zM680 22.5q-33 28.5 -35 77.5h48q3 -28 22.5 -44.5t50.5 -16.5
q33 0 53.5 18.5t20.5 49.5q0 29 -20.5 48t-53.5 19h-53v31l94 102h-154v43h221v-35l-102 -107h11q45 0 75 -29t30 -75q0 -48 -33.5 -79t-87.5 -31t-87 28.5z" />
    <glyph glyph-name="uni2155" unicode="&#x2155;" horiz-adv-x="809" 
d="M112 599h-78v45h47q16 0 25.5 5t12.5 24l4 27h39v-350h-50v249zM545 700h58l-436 -700h-57zM550 23q-33 29 -36 77h49q2 -28 22 -44.5t51 -16.5q33 0 53 19t20 50q0 30 -20 49t-53 19h-114l18 174h198v-44h-155l-8 -91h69q51 0 82.5 -30.5t31.5 -79.5q0 -50 -33.5 -80.5
t-87.5 -30.5t-87 29z" />
    <glyph glyph-name="uni2156" unicode="&#x2156;" horiz-adv-x="942" 
d="M67 387l148 134q22 19 33 37t11 39q0 29 -19 47t-49 18t-50 -19t-21 -52h-47q1 53 34 84t85 31q51 0 83.5 -30t32.5 -77q0 -32 -15.5 -58t-47.5 -55l-99 -91h172v-45h-251v37zM678 700h58l-436 -700h-57zM683 23q-33 29 -36 77h49q2 -28 22 -44.5t51 -16.5q33 0 53 19
t20 50q0 30 -20 49t-53 19h-114l18 174h198v-44h-155l-8 -91h69q51 0 82.5 -30.5t31.5 -79.5q0 -50 -33.5 -80.5t-87.5 -30.5t-87 29z" />
    <glyph glyph-name="uni2157" unicode="&#x2157;" horiz-adv-x="911" 
d="M88 372.5q-33 28.5 -35 77.5h48q3 -28 22.5 -44.5t50.5 -16.5q33 0 53.5 18.5t20.5 49.5q0 29 -20.5 48t-53.5 19h-53v31l94 102h-154v43h221v-35l-102 -107h11q45 0 75 -29t30 -75q0 -48 -33.5 -79t-87.5 -31t-87 28.5zM648 700h58l-436 -700h-57zM652 23q-33 29 -36 77
h49q2 -28 22 -44.5t51 -16.5q33 0 53 19t20 50q0 30 -20 49t-53 19h-114l18 174h198v-44h-155l-8 -91h69q51 0 82.5 -30.5t31.5 -79.5q0 -50 -33.5 -80.5t-87.5 -30.5t-87 29z" />
    <glyph glyph-name="uni2158" unicode="&#x2158;" horiz-adv-x="895" 
d="M213 424h-180v34l123 242h56l-119 -233h122l8 109h40v-108h47v-44h-47v-74h-50v74zM632 700h58l-436 -700h-57zM636 23q-33 29 -36 77h49q2 -28 22 -44.5t51 -16.5q33 0 53 19t20 50q0 30 -20 49t-53 19h-114l18 174h198v-44h-155l-8 -91h69q51 0 82.5 -30.5t31.5 -79.5
q0 -50 -33.5 -80.5t-87.5 -30.5t-87 29z" />
    <glyph glyph-name="uni2159" unicode="&#x2159;" horiz-adv-x="827" 
d="M112 599h-78v45h47q16 0 25.5 5t12.5 24l4 27h39v-350h-50v249zM545 700h58l-436 -700h-57zM548.5 27.5q-36.5 33.5 -36.5 86.5q0 22 7 42.5t24 47.5l96 146h58l-83 -125q15 7 37 7q52 0 86 -33.5t34 -84.5q0 -52 -36.5 -86t-92.5 -34q-57 0 -93.5 33.5zM584 58.5
q23 -21.5 58 -21.5t57.5 21.5t22.5 55.5t-22.5 55.5t-57.5 21.5t-58 -21.5t-23 -55.5t23 -55.5z" />
    <glyph glyph-name="uni215A" unicode="&#x215a;" horiz-adv-x="922" 
d="M91 373q-33 29 -36 77h49q2 -28 22 -44.5t51 -16.5q33 0 53 19t20 50q0 30 -20 49t-53 19h-114l18 174h198v-44h-155l-8 -91h69q51 0 82.5 -30.5t31.5 -79.5q0 -50 -33.5 -80.5t-87.5 -30.5t-87 29zM641 700h58l-436 -700h-57zM644.5 27.5q-36.5 33.5 -36.5 86.5
q0 22 7 42.5t24 47.5l96 146h58l-83 -125q15 7 37 7q52 0 86 -33.5t34 -84.5q0 -52 -36.5 -86t-92.5 -34q-57 0 -93.5 33.5zM680 58.5q23 -21.5 58 -21.5t57.5 21.5t22.5 55.5t-22.5 55.5t-57.5 21.5t-58 -21.5t-23 -55.5t23 -55.5z" />
    <glyph glyph-name="oneeighth" unicode="&#x215b;" horiz-adv-x="823" 
d="M112 599h-78v45h47q16 0 25.5 5t12.5 24l4 27h39v-350h-50v249zM545 700h58l-436 -700h-57zM548 21q-35 27 -35 72q0 31 16.5 54t46.5 34q-26 11 -40 31.5t-14 48.5q0 42 33 68.5t86 26.5t86 -26.5t33 -68.5q0 -27 -14.5 -48t-39.5 -32q30 -11 46.5 -34.5t16.5 -53.5
q0 -45 -35 -72t-93 -27t-93 27zM583 49.5q22 -17.5 58 -17.5t58 17.5t22 46.5t-22 46.5t-58 17.5t-58 -17.5t-22 -46.5t22 -46.5zM587.5 213.5q20.5 -17.5 53.5 -17.5t53.5 17.5t20.5 44.5t-20.5 44t-53.5 17t-53.5 -17t-20.5 -44t20.5 -44.5z" />
    <glyph glyph-name="threeeighths" unicode="&#x215c;" horiz-adv-x="925" 
d="M88 372.5q-33 28.5 -35 77.5h48q3 -28 22.5 -44.5t50.5 -16.5q33 0 53.5 18.5t20.5 49.5q0 29 -20.5 48t-53.5 19h-53v31l94 102h-154v43h221v-35l-102 -107h11q45 0 75 -29t30 -75q0 -48 -33.5 -79t-87.5 -31t-87 28.5zM648 700h58l-436 -700h-57zM650 21q-35 27 -35 72
q0 31 16.5 54t46.5 34q-26 11 -40 31.5t-14 48.5q0 42 33 68.5t86 26.5t86 -26.5t33 -68.5q0 -27 -14.5 -48t-39.5 -32q30 -11 46.5 -34.5t16.5 -53.5q0 -45 -35 -72t-93 -27t-93 27zM685 49.5q22 -17.5 58 -17.5t58 17.5t22 46.5t-22 46.5t-58 17.5t-58 -17.5t-22 -46.5
t22 -46.5zM689.5 213.5q20.5 -17.5 53.5 -17.5t53.5 17.5t20.5 44.5t-20.5 44t-53.5 17t-53.5 -17t-20.5 -44t20.5 -44.5z" />
    <glyph glyph-name="fiveeighths" unicode="&#x215d;" horiz-adv-x="919" 
d="M91 373q-33 29 -36 77h49q2 -28 22 -44.5t51 -16.5q33 0 53 19t20 50q0 30 -20 49t-53 19h-114l18 174h198v-44h-155l-8 -91h69q51 0 82.5 -30.5t31.5 -79.5q0 -50 -33.5 -80.5t-87.5 -30.5t-87 29zM641 700h58l-436 -700h-57zM644 21q-35 27 -35 72q0 31 16.5 54
t46.5 34q-26 11 -40 31.5t-14 48.5q0 42 33 68.5t86 26.5t86 -26.5t33 -68.5q0 -27 -14.5 -48t-39.5 -32q30 -11 46.5 -34.5t16.5 -53.5q0 -45 -35 -72t-93 -27t-93 27zM679 49.5q22 -17.5 58 -17.5t58 17.5t22 46.5t-22 46.5t-58 17.5t-58 -17.5t-22 -46.5t22 -46.5z
M683.5 213.5q20.5 -17.5 53.5 -17.5t53.5 17.5t20.5 44.5t-20.5 44t-53.5 17t-53.5 -17t-20.5 -44t20.5 -44.5z" />
    <glyph glyph-name="seveneighths" unicode="&#x215e;" horiz-adv-x="873" 
d="M210 656h-175v44h231v-35l-133 -315h-53zM595 700h58l-436 -700h-57zM598 21q-35 27 -35 72q0 31 16.5 54t46.5 34q-26 11 -40 31.5t-14 48.5q0 42 33 68.5t86 26.5t86 -26.5t33 -68.5q0 -27 -14.5 -48t-39.5 -32q30 -11 46.5 -34.5t16.5 -53.5q0 -45 -35 -72t-93 -27
t-93 27zM633 49.5q22 -17.5 58 -17.5t58 17.5t22 46.5t-22 46.5t-58 17.5t-58 -17.5t-22 -46.5t22 -46.5zM637.5 213.5q20.5 -17.5 53.5 -17.5t53.5 17.5t20.5 44.5t-20.5 44t-53.5 17t-53.5 -17t-20.5 -44t20.5 -44.5z" />
    <glyph glyph-name="arrowleft" unicode="&#x2190;" horiz-adv-x="900" 
d="M359 63l-266 265l266 265h76l-240 -238h612v-54h-612l240 -238h-76z" />
    <glyph glyph-name="arrowup" unicode="&#x2191;" horiz-adv-x="716" 
d="M93 436l265 266l265 -266v-76l-238 240v-612h-54v612l-238 -240v76z" />
    <glyph glyph-name="arrowright" unicode="&#x2192;" horiz-adv-x="900" 
d="M541 592l266 -265l-266 -265h-76l240 238h-612v54h612l-240 238h76z" />
    <glyph glyph-name="arrowdown" unicode="&#x2193;" horiz-adv-x="716" 
d="M623 215l-265 -266l-265 266v76l238 -240v612h54v-612l238 240v-76z" />
    <glyph glyph-name="arrowboth" unicode="&#x2194;" horiz-adv-x="1200" 
d="M1005 301h-810l240 -239h-76l-266 266l266 265h76l-241 -239h812l-241 239h76l266 -265l-266 -266h-76z" />
    <glyph glyph-name="arrowupdn" unicode="&#x2195;" horiz-adv-x="716" 
d="M332 -55v810l-239 -240v76l266 266l265 -266v-76l-239 241v-812l239 241v-76l-265 -266l-266 266v76z" />
    <glyph glyph-name="uni2196" unicode="&#x2196;" horiz-adv-x="710" 
d="M94 261l-1 375h375l54 -54l-337 1l432 -432l-38 -39l-433 433l1 -338z" />
    <glyph glyph-name="uni2197" unicode="&#x2197;" horiz-adv-x="710" 
d="M242 600l375 1l-1 -376l-53 -53l1 337l-433 -432l-38 38l433 433l-338 -2z" />
    <glyph glyph-name="uni2198" unicode="&#x2198;" horiz-adv-x="710" 
d="M616 445v-375l-375 1l-54 53l338 -1l-432 433l38 38l432 -432l-1 337z" />
    <glyph glyph-name="uni2199" unicode="&#x2199;" horiz-adv-x="710" 
d="M469 106l-376 -1l1 376l54 53l-2 -338l433 433l38 -38l-433 -433l338 2z" />
    <glyph glyph-name="uni21A9" unicode="&#x21a9;" horiz-adv-x="1175" 
d="M93 273l266 266h76l-240 -239h648q56 0 97.5 24t63.5 66t22 93q0 52 -22.5 93.5t-64 65.5t-96.5 24h-126v54h126q71 0 125.5 -31.5t84 -85.5t29.5 -120t-29.5 -119.5t-84 -85t-125.5 -31.5h-649l241 -239h-76z" />
    <glyph glyph-name="uni21AA" unicode="&#x21aa;" horiz-adv-x="1175" 
d="M206.5 278.5q-54.5 31.5 -84 85t-29.5 119.5t29.5 120t84 85.5t125.5 31.5h126v-54h-126q-55 0 -96.5 -24t-64 -65.5t-22.5 -93.5q0 -51 22 -93t63.5 -66t97.5 -24h648l-240 239h76l266 -266l-266 -265h-76l241 239h-649q-71 0 -125.5 31.5z" />
    <glyph glyph-name="uni21B0" unicode="&#x21b0;" horiz-adv-x="1061" 
d="M914 438h-720l241 -239h-76l-266 266l266 265h76l-240 -239h773v-521h-54v468z" />
    <glyph glyph-name="uni21B1" unicode="&#x21b1;" horiz-adv-x="1061" 
d="M93 -30v521h773l-240 239h76l266 -265l-266 -266h-76l241 239h-720v-468h-54z" />
    <glyph glyph-name="uni21B3" unicode="&#x21b3;" horiz-adv-x="1061" 
d="M147 262h720l-241 239h76l266 -266l-266 -265h-76l240 239h-773v521h54v-468z" />
    <glyph glyph-name="uni21B4" unicode="&#x21b4;" horiz-adv-x="1161" 
d="M514 253v76l238 -240v559h-659v53h713v-612l238 240v-76l-265 -266z" />
    <glyph glyph-name="carriagereturn" unicode="&#x21b5;" horiz-adv-x="1061" 
d="M968 730v-521h-773l240 -239h-76l-266 265l266 266h76l-241 -239h720v468h54z" />
    <glyph glyph-name="uni21BA" unicode="&#x21ba;" horiz-adv-x="832" 
d="M249.5 -19.5q-73.5 41.5 -115 114.5t-41.5 164h59q0 -77 33.5 -136.5t93 -92.5t136.5 -33q76 0 136 33t94 91.5t34 133.5q0 74 -33.5 133.5t-93.5 93.5t-137 34h-62l143 -145h-77l-166 171l166 166h77l-140 -138h58q93 0 167 -41t116 -113t42 -161q0 -90 -41.5 -162
t-115 -113t-166.5 -41t-166.5 41.5z" />
    <glyph glyph-name="uni21BB" unicode="&#x21bb;" horiz-adv-x="832" 
d="M249.5 -20q-73.5 41 -115 113t-41.5 162q0 89 42 161t116 113t167 41h58l-140 138h77l166 -166l-166 -171h-77l143 145h-62q-77 0 -137 -34t-93.5 -93.5t-33.5 -133.5q0 -75 34 -133.5t94 -91.5t136 -33q77 0 136.5 33t93 92.5t33.5 136.5h59q0 -91 -41.5 -164
t-115 -114.5t-166.5 -41.5t-166.5 41z" />
    <glyph glyph-name="uni21E4" unicode="&#x21e4;" horiz-adv-x="936" 
d="M395 113l-249 248v-245l-53 -1v524l53 1v-245l249 248h76l-240 -238h612v-54h-612l240 -238h-76z" />
    <glyph glyph-name="uni21E5" unicode="&#x21e5;" horiz-adv-x="936" 
d="M705 351h-612v54h612l-240 238h76l249 -248v245l53 -1v-524l-53 1v245l-249 -248h-76z" />
    <glyph glyph-name="uni21E7" unicode="&#x21e7;" horiz-adv-x="869" 
d="M283 284h-190l342 424l342 -424h-190v-284h-304v284zM339 331v-276h191v276h135l-230 286l-230 -286h134z" />
    <glyph glyph-name="uni21EA" unicode="&#x21ea;" horiz-adv-x="869" 
d="M272 412h-179l342 423l341 -423h-179v-127h-325v127zM329 464v-122h211v122h119l-224 278l-225 -278h119zM272 212h325v-229h-325v229zM540 36v123h-211v-123h211z" />
    <glyph glyph-name="partialdiff" unicode="&#x2202;" horiz-adv-x="602" 
d="M128 13.5q-52 26.5 -80 75t-28 112.5q0 30 6 61q15 76 60 135.5t110.5 92.5t140.5 33q70 0 119.5 -30t69.5 -83q-3 80 -44 144.5t-118 106.5t-184 53l6 53q195 -27 295.5 -125.5t100.5 -254.5q0 -56 -11 -110q-17 -88 -62.5 -153.5t-112 -101t-146.5 -35.5
q-70 0 -122 26.5zM77 203q0 -73 46 -116.5t125 -43.5q63 0 117.5 27.5t92 77t49.5 111.5q5 28 5 49q0 72 -46 115.5t-124 43.5q-63 0 -118 -28t-92.5 -77t-49.5 -111q-5 -28 -5 -48z" />
    <glyph glyph-name="emptyset" unicode="&#x2205;" horiz-adv-x="752" 
d="M166 76q-48 44 -75 105.5t-27 133.5q0 89 40.5 161t111.5 113.5t160 41.5q92 0 168 -46l44 61h66l-68 -92q49 -43 75.5 -105t26.5 -134q0 -89 -40.5 -161.5t-111.5 -113.5t-160 -41q-94 0 -167 45l-45 -60h-65zM142 207q21 -50 59 -86l309 420q-61 36 -134 36
q-71 0 -129.5 -34.5t-92 -94.5t-33.5 -133q0 -58 21 -108zM376 53q72 0 130.5 34.5t92 94.5t33.5 133q0 58 -21.5 108t-59.5 87l-309 -420q60 -37 134 -37z" />
    <glyph glyph-name="uni2206" unicode="&#x2206;" horiz-adv-x="728" 
d="M335 700h58l313 -700h-684zM616 58l-189 418l-63 143l-64 -143l-188 -418h504z" />
    <glyph glyph-name="product" unicode="&#x220f;" horiz-adv-x="762" 
d="M531 642h-299v-785h-60v785h-110v58h639v-58h-110v-785h-60v785z" />
    <glyph glyph-name="summation" unicode="&#x2211;" horiz-adv-x="563" 
d="M61 45l237 306l-236 304v45h433v-57h-351l217 -280v-23l-218 -283h362v-57h-444v45z" />
    <glyph glyph-name="minus" unicode="&#x2212;" horiz-adv-x="592" 
d="M93 356h406v-54h-406v54z" />
    <glyph glyph-name="uni2215" unicode="&#x2215;" horiz-adv-x="560" 
d="M406 764h59l-311 -828h-59z" />
    <glyph glyph-name="uni2219" unicode="&#x2219;" horiz-adv-x="324" 
d="M94 178q-26 26 -26 66t26 66t68 26t68 -26t26 -66t-26 -66t-68 -26t-68 26z" />
    <glyph glyph-name="radical" unicode="&#x221a;" horiz-adv-x="560" 
d="M22 517h63l98 -269l57 -158l51 158l219 656h447v-56h-403l-285 -848h-57z" />
    <glyph glyph-name="infinity" unicode="&#x221e;" horiz-adv-x="915" 
d="M555 150q-52 30 -87 83l-10 16l-11 -16q-35 -53 -87 -83t-112 -30q-79 0 -128 49.5t-49 128.5t49 128.5t128 49.5q60 0 112 -29.5t87 -83.5l11 -16l10 16q35 53 87 83t112 30q79 0 128 -49.5t49 -128.5t-49 -128.5t-128 -49.5q-60 0 -112 30zM162.5 208.5
q34.5 -34.5 89.5 -34.5q45 0 85 24.5t69 69.5l20 30l-20 30q-29 45 -69 69.5t-85 24.5q-55 0 -89.5 -34.5t-34.5 -89.5t34.5 -89.5zM509 268q29 -46 69 -70t85 -24q56 0 90 34.5t34 89.5q0 56 -34 90t-90 34q-45 0 -85 -24.5t-69 -69.5l-20 -30z" />
    <glyph glyph-name="integral" unicode="&#x222b;" horiz-adv-x="449" 
d="M29 -146h66q101 0 101 112v608q0 166 157 166h68v-54h-67q-51 0 -75.5 -27.5t-24.5 -84.5v-608q0 -166 -158 -166h-67v54z" />
    <glyph glyph-name="approxequal" unicode="&#x2248;" horiz-adv-x="606" 
d="M338.5 354q-22.5 11 -48.5 31q-23 17 -38.5 25t-35.5 8q-29 0 -46.5 -19t-18.5 -53h-58q1 61 32 94.5t86 33.5q32 0 53.5 -10.5t49.5 -30.5q23 -17 38.5 -25t35.5 -8q30 0 46.5 18t17.5 53h58q-1 -62 -31 -95t-85 -33q-33 0 -55.5 11zM125 225q31 34 86 34
q33 0 55.5 -10.5t50.5 -31.5q24 -18 38.5 -25.5t34.5 -7.5q29 0 46 19t19 53h58q-2 -61 -32.5 -94.5t-86.5 -33.5q-32 0 -54.5 10.5t-50.5 31.5q-23 16 -38 24t-35 8q-29 0 -46.5 -18.5t-18.5 -52.5h-58q1 60 32 94z" />
    <glyph glyph-name="notequal" unicode="&#x2260;" horiz-adv-x="588" 
d="M192 220h-99v53h129l87 155h-216v52h245l58 103h62l-58 -103h95v-52h-124l-86 -155h210v-53h-240l-57 -102h-63z" />
    <glyph glyph-name="lessequal" unicode="&#x2264;" horiz-adv-x="575" 
d="M92 356v57l390 143v-59l-303 -113l121 -44l182 -69v-59zM92 129h390v-57h-390v57z" />
    <glyph glyph-name="greaterequal" unicode="&#x2265;" horiz-adv-x="575" 
d="M93 271l182 69l121 44l-303 113v59l390 -143v-57l-390 -144v59zM93 129h390v-57h-390v57z" />
    <glyph glyph-name="uni2303" unicode="&#x2303;" horiz-adv-x="672" 
d="M68 426l268 280l268 -280v-77l-268 282l-268 -282v77z" />
    <glyph glyph-name="uni2305" unicode="&#x2305;" horiz-adv-x="683" 
d="M73 332l261 273h-261v54h537v-54h-260l260 -273v-76l-268 281l-269 -281v76z" />
    <glyph glyph-name="uni2318" unicode="&#x2318;" horiz-adv-x="823" 
d="M107.5 50.5q-39.5 39.5 -39.5 100.5q0 37 17.5 69t51 51.5t78.5 19.5h80v117h-80q-45 0 -78.5 19.5t-51 52t-17.5 68.5q0 62 39.5 101t101.5 39q66 0 104 -39t38 -105v-80h120v80q0 66 38 105t104 39q62 0 102 -39t40 -101q0 -36 -18 -68.5t-51.5 -52t-78.5 -19.5h-80
v-117h80q45 0 78.5 -19.5t51.5 -51.5t18 -69q0 -61 -40 -100.5t-102 -39.5q-65 0 -103.5 39.5t-38.5 104.5v80h-120v-80q0 -65 -38.5 -104.5t-103.5 -39.5q-62 0 -101.5 39.5zM148.5 90q23.5 -23 60.5 -23q39 0 62.5 23t23.5 65v80h-80q-42 0 -66 -24.5t-24 -59.5
q0 -38 23.5 -61zM149 488.5q24 -24.5 66 -24.5h80v80q0 42 -24 65.5t-62 23.5q-37 0 -60.5 -23.5t-23.5 -61.5q0 -35 24 -59.5zM471 291v117h-120v-117h120zM550.5 90q23.5 -23 62.5 -23q37 0 61 23t24 61q0 35 -24.5 59.5t-66.5 24.5h-80v-80q0 -42 23.5 -65zM607 464
q42 0 66.5 24.5t24.5 59.5q0 38 -24 61.5t-61 23.5q-38 0 -62 -23.5t-24 -65.5v-80h80z" />
    <glyph glyph-name="uni2325" unicode="&#x2325;" horiz-adv-x="880" 
d="M340 680l242 -643h204v-57h-244l-244 643h-214v57h256zM518 680h268v-57h-268v57z" />
    <glyph glyph-name="uni2326" unicode="&#x2326;" horiz-adv-x="1030" 
d="M136 15v669h562l270 -334l-270 -335h-562zM668 67l230 283l-230 282h-477v-565h477zM434 349l-137 137l39 39l137 -137l137 137l38 -39l-136 -136l136 -137l-39 -39l-136 137l-137 -137l-39 39z" />
    <glyph glyph-name="uni2327" unicode="&#x2327;" horiz-adv-x="946" 
d="M136 684h674v-669h-674v669zM755 67v565h-564v-565h564zM434 349l-137 137l39 39l137 -137l137 137l38 -39l-136 -137l136 -136l-39 -39l-136 136l-136 -136l-40 39z" />
    <glyph glyph-name="uni232B" unicode="&#x232b;" horiz-adv-x="1030" 
d="M62 350l270 334h562v-669h-562zM362 67h477v565h-477l-230 -282zM519 350l-137 136l38 39l137 -137l137 137l39 -39l-137 -137l137 -136l-39 -39l-136 137l-137 -137l-39 39z" />
    <glyph glyph-name="uni2387" unicode="&#x2387;" horiz-adv-x="880" 
d="M84 57h214l244 643h244v-57h-204l-242 -643h-256v57zM518 57h268v-57h-268v57z" />
    <glyph glyph-name="uni238B" unicode="&#x238b;" horiz-adv-x="831" 
d="M233 37.5q-80 44.5 -124.5 126t-44.5 188.5h62q0 -89 36 -157t102 -105t152 -37t151.5 36.5t101.5 102.5t36 153q0 88 -37.5 154t-105.5 102t-156 36v60q104 0 186 -43t128.5 -122.5t46.5 -186.5q0 -106 -45 -185.5t-124.5 -123t-181.5 -43.5q-103 0 -183 44.5zM72 689
h205l54 -53h-167l274 -275l-39 -39l-274 276v-172l-53 55v208z" />
    <glyph glyph-name="uni23CE" unicode="&#x23ce;" horiz-adv-x="1120" 
d="M93 264l266 265h76l-241 -239h686v314h-265v54h319v-421h-739l240 -238h-76z" />
    <glyph glyph-name="uni23CF" unicode="&#x23cf;" horiz-adv-x="915" 
d="M458 725l364 -406h-729zM107 231h701v-240h-701v240zM750 47v128h-585v-128h585zM698 373l-240 267l-240 -267h480z" />
    <glyph glyph-name="uni2423" unicode="&#x2423;" horiz-adv-x="461" 
d="M16 96h58v-109h315v109h57v-164h-430v164z" />
    <glyph glyph-name="uni2460" unicode="&#x2460;" horiz-adv-x="1031" 
d="M500 413h-78v45h47q16 0 25.5 5t13.5 24l3 27h39v-350h-50v249zM140.5 556.5q54.5 96.5 152 150.5t222.5 54q126 0 223.5 -54t151.5 -150.5t54 -217.5t-54 -217.5t-151.5 -150.5t-223.5 -54q-125 0 -222.5 54t-152 150.5t-54.5 217.5t54.5 217.5zM189.5 149.5
q46.5 -83.5 131 -130.5t194.5 -47t194.5 47t131 130.5t46.5 189.5t-46.5 189.5t-131 130.5t-194.5 47t-194.5 -47t-131 -130.5t-46.5 -189.5t46.5 -189.5z" />
    <glyph glyph-name="uni2461" unicode="&#x2461;" horiz-adv-x="1031" 
d="M391 201l149 134q21 19 32 37t11 39q0 29 -18.5 47t-49.5 18q-30 0 -49.5 -19t-20.5 -52h-47q1 53 34 84t85 31q51 0 83.5 -30t32.5 -77q0 -32 -16 -57.5t-48 -55.5l-98 -91h172v-45h-252v37zM140.5 556.5q54.5 96.5 152 150.5t222.5 54q126 0 223.5 -54t151.5 -150.5
t54 -217.5t-54 -217.5t-151.5 -150.5t-223.5 -54q-125 0 -222.5 54t-152 150.5t-54.5 217.5t54.5 217.5zM189.5 149.5q46.5 -83.5 131 -130.5t194.5 -47t194.5 47t131 130.5t46.5 189.5t-46.5 189.5t-131 130.5t-194.5 47t-194.5 -47t-131 -130.5t-46.5 -189.5t46.5 -189.5z
" />
    <glyph glyph-name="uni2462" unicode="&#x2462;" horiz-adv-x="1031" 
d="M292.5 -29q-97.5 54 -152 150.5t-54.5 217.5t54.5 217.5t152 150.5t222.5 54q126 0 223.5 -54t151.5 -150.5t54 -217.5t-54 -217.5t-151.5 -150.5t-223.5 -54q-125 0 -222.5 54zM189.5 149.5q46.5 -83.5 131 -130.5t194.5 -47t194.5 47t131 130.5t46.5 189.5t-46.5 189.5
t-131 130.5t-194.5 47t-194.5 -47t-131 -130.5t-46.5 -189.5t46.5 -189.5zM444 264q2 -28 21.5 -44.5t50.5 -16.5q33 0 53.5 18.5t20.5 49.5q0 29 -20.5 48t-52.5 19h-54v31l94 102h-154v43h221v-35l-101 -107h11q45 0 75 -29t30 -75q0 -48 -34 -79t-88 -31
q-53 0 -86.5 28.5t-35.5 77.5h49z" />
    <glyph glyph-name="uni2463" unicode="&#x2463;" horiz-adv-x="1031" 
d="M641 282v-44h-47v-74h-50v74h-180v34l123 242h55l-118 -233h122l8 109h40v-108h47zM140.5 556.5q54.5 96.5 152 150.5t222.5 54q126 0 223.5 -54t151.5 -150.5t54 -217.5t-54 -217.5t-151.5 -150.5t-223.5 -54q-125 0 -222.5 54t-152 150.5t-54.5 217.5t54.5 217.5z
M189.5 149.5q46.5 -83.5 131 -130.5t194.5 -47t194.5 47t131 130.5t46.5 189.5t-46.5 189.5t-131 130.5t-194.5 47t-194.5 -47t-131 -130.5t-46.5 -189.5t46.5 -189.5z" />
    <glyph glyph-name="uni2464" unicode="&#x2464;" horiz-adv-x="1031" 
d="M430 187q-33 29 -35 77h49q2 -28 21.5 -44.5t50.5 -16.5q33 0 53.5 19t20.5 50q0 30 -20.5 49t-53.5 19h-113l18 174h198v-44h-155l-9 -91h70q51 0 82.5 -30.5t31.5 -79.5q0 -50 -33.5 -80.5t-88.5 -30.5q-54 0 -87 29zM140.5 556.5q54.5 96.5 152 150.5t222.5 54
q126 0 223.5 -54t151.5 -150.5t54 -217.5t-54 -217.5t-151.5 -150.5t-223.5 -54q-125 0 -222.5 54t-152 150.5t-54.5 217.5t54.5 217.5zM189.5 149.5q46.5 -83.5 131 -130.5t194.5 -47t194.5 47t131 130.5t46.5 189.5t-46.5 189.5t-131 130.5t-194.5 47t-194.5 -47
t-131 -130.5t-46.5 -189.5t46.5 -189.5z" />
    <glyph glyph-name="uni2465" unicode="&#x2465;" horiz-adv-x="1031" 
d="M292.5 -29.5q-97.5 53.5 -152 149.5t-54.5 219t54.5 219t152 149.5t222.5 53.5t222.5 -53.5t152 -149.5t54.5 -219t-54.5 -219t-152 -149.5t-222.5 -53.5t-222.5 53.5zM190 148.5q47 -83.5 131.5 -130t193.5 -46.5t193.5 46.5t131.5 130t47 190.5t-47 190.5t-131.5 130
t-193.5 46.5t-193.5 -46.5t-131.5 -130t-47 -190.5t47 -190.5zM393 321.5q7 20.5 23 46.5l97 146h57l-83 -125q15 7 38 7q51 0 85 -33.5t34 -84.5q0 -52 -36.5 -86t-92.5 -34q-57 0 -93 33.5t-36 86.5q0 23 7 43.5zM457 222.5q23 -21.5 58 -21.5t57.5 21.5t22.5 55.5
t-22.5 55.5t-57.5 21.5t-58 -21.5t-23 -55.5t23 -55.5z" />
    <glyph glyph-name="uni2466" unicode="&#x2466;" horiz-adv-x="1031" 
d="M401 514h230v-35l-133 -315h-53l130 306h-174v44zM140.5 556.5q54.5 96.5 152 150.5t222.5 54q126 0 223.5 -54t151.5 -150.5t54 -217.5t-54 -217.5t-151.5 -150.5t-223.5 -54q-125 0 -222.5 54t-152 150.5t-54.5 217.5t54.5 217.5zM189.5 149.5q46.5 -83.5 131 -130.5
t194.5 -47t194.5 47t131 130.5t46.5 189.5t-46.5 189.5t-131 130.5t-194.5 47t-194.5 -47t-131 -130.5t-46.5 -189.5t46.5 -189.5z" />
    <glyph glyph-name="uni2467" unicode="&#x2467;" horiz-adv-x="1031" 
d="M422 185q-35 27 -35 72q0 31 17 54t47 34q-26 11 -40.5 32t-14.5 48q0 42 33 68.5t86 26.5t86.5 -26.5t33.5 -68.5q0 -27 -15 -48t-40 -32q30 -11 47 -34.5t17 -53.5q0 -45 -35 -72t-94 -27q-58 0 -93 27zM140.5 556.5q54.5 96.5 152 150.5t222.5 54q126 0 223.5 -54
t151.5 -150.5t54 -217.5t-54 -217.5t-151.5 -150.5t-223.5 -54q-125 0 -222.5 54t-152 150.5t-54.5 217.5t54.5 217.5zM189.5 149.5q46.5 -83.5 131 -130.5t194.5 -47t194.5 47t131 130.5t46.5 189.5t-46.5 189.5t-131 130.5t-194.5 47t-194.5 -47t-131 -130.5t-46.5 -189.5
t46.5 -189.5zM457.5 214q22.5 -18 57.5 -18q36 0 58 17.5t22 46.5t-22 46.5t-58 17.5q-35 0 -57.5 -18t-22.5 -46t22.5 -46zM462 377.5q21 -17.5 53 -17.5q33 0 53.5 17.5t20.5 44.5t-20.5 44t-53.5 17q-32 0 -53 -17t-21 -44t21 -44.5z" />
    <glyph glyph-name="uni2468" unicode="&#x2468;" horiz-adv-x="1031" 
d="M738.5 707.5q97.5 -53.5 152 -149.5t54.5 -219t-54.5 -219t-152 -149.5t-222.5 -53.5t-222.5 53.5t-152 149.5t-54.5 219t54.5 219t152 149.5t222.5 53.5t222.5 -53.5zM191 148.5q47 -83.5 131.5 -130t193.5 -46.5t193.5 46.5t131.5 130t47 190.5t-47 190.5t-131.5 130
t-193.5 46.5t-193.5 -46.5t-131.5 -130t-47 -190.5t47 -190.5zM423.5 486q36.5 34 92.5 34q57 0 93 -33.5t36 -86.5q0 -23 -7 -43.5t-23 -46.5l-97 -146h-57l83 125q-15 -7 -38 -7q-51 0 -85 33.5t-34 84.5q0 52 36.5 86zM458.5 344.5q22.5 -21.5 57.5 -21.5t58 21.5
t23 55.5t-23 55.5t-58 21.5t-57.5 -21.5t-22.5 -55.5t22.5 -55.5z" />
    <glyph glyph-name="uni2469" unicode="&#x2469;" horiz-adv-x="1031" 
d="M356 413h-78v45h47q17 0 26.5 5t12.5 24l3 27h39v-350h-50v249zM140.5 556.5q54.5 96.5 152 150.5t222.5 54q126 0 223.5 -54t151.5 -150.5t54 -217.5t-54 -217.5t-151.5 -150.5t-223.5 -54q-125 0 -222.5 54t-152 150.5t-54.5 217.5t54.5 217.5zM189.5 149.5
q46.5 -83.5 131 -130.5t194.5 -47t194.5 47t131 130.5t46.5 189.5t-46.5 189.5t-131 130.5t-194.5 47t-194.5 -47t-131 -130.5t-46.5 -189.5t46.5 -189.5zM519.5 471.5q38.5 48.5 104.5 48.5q65 0 103.5 -48.5t38.5 -132.5t-38.5 -132.5t-103.5 -48.5q-66 0 -104.5 48.5
t-38.5 132.5t38.5 132.5zM555.5 239.5q24.5 -35.5 68.5 -35.5q43 0 67.5 35.5t24.5 99.5t-24.5 99.5t-67.5 35.5q-44 0 -68.5 -35.5t-24.5 -99.5t24.5 -99.5z" />
    <glyph glyph-name="uni24EA" unicode="&#x24ea;" horiz-adv-x="1031" 
d="M292.5 -29q-97.5 54 -152 150.5t-54.5 217.5t54.5 217.5t152 150.5t222.5 54q126 0 223.5 -54t151.5 -150.5t54 -217.5t-54 -217.5t-151.5 -150.5t-223.5 -54q-125 0 -222.5 54zM189.5 149.5q46.5 -83.5 131 -130.5t194.5 -47t194.5 47t131 130.5t46.5 189.5t-46.5 189.5
t-131 130.5t-194.5 47t-194.5 -47t-131 -130.5t-46.5 -189.5t46.5 -189.5zM412 471.5q38 48.5 103 48.5t103.5 -48.5t38.5 -132.5t-38.5 -132.5t-103.5 -48.5t-103 48.5t-38 132.5t38 132.5zM448 239.5q24 -35.5 67 -35.5t67.5 35.5t24.5 99.5t-24.5 99.5t-67.5 35.5
t-67 -35.5t-24 -99.5t24 -99.5z" />
    <glyph glyph-name="uni24FF" unicode="&#x24ff;" horiz-adv-x="1031" 
d="M292.5 -29q-97.5 54 -152 150.5t-54.5 217.5t54.5 217.5t152 150.5t222.5 54q126 0 223.5 -54t151.5 -150.5t54 -217.5t-54 -217.5t-151.5 -150.5t-223.5 -54q-125 0 -222.5 54zM412 206.5q38 -48.5 103 -48.5t103.5 48.5t38.5 132.5t-38.5 132.5t-103.5 48.5t-103 -48.5
t-38 -132.5t38 -132.5zM448 438.5q24 35.5 67 35.5t67.5 -35.5t24.5 -99.5t-24.5 -99.5t-67.5 -35.5t-67 35.5t-24 99.5t24 99.5z" />
    <glyph glyph-name="filledbox" unicode="&#x25a0;" horiz-adv-x="878" 
d="M136 606h606v-606h-606v606z" />
    <glyph glyph-name="uni25A1" unicode="&#x25a1;" horiz-adv-x="878" 
d="M136 606h606v-606h-606v606zM687 53v501h-496v-501h496z" />
    <glyph glyph-name="triagup" unicode="&#x25b2;" horiz-adv-x="760" 
d="M380 700l351 -700h-702z" />
    <glyph glyph-name="uni25B3" unicode="&#x25b3;" horiz-adv-x="760" 
d="M380 700l351 -700h-702zM639 57l-259 516l-258 -516h517z" />
    <glyph glyph-name="uni25B6" unicode="&#x25b6;" horiz-adv-x="918" 
d="M847 368l-700 -351v702z" />
    <glyph glyph-name="uni25BB" unicode="&#x25bb;" horiz-adv-x="918" 
d="M771 23l-700 351l700 351v-702zM714 115v518l-516 -259z" />
    <glyph glyph-name="triagdn" unicode="&#x25bc;" horiz-adv-x="760" 
d="M380 -20l-351 700h702z" />
    <glyph glyph-name="uni25BD" unicode="&#x25bd;" horiz-adv-x="760" 
d="M731 680l-351 -700l-351 700h702zM380 107l259 516h-517z" />
    <glyph glyph-name="triaglf" unicode="&#x25c4;" horiz-adv-x="918" 
d="M771 23l-700 351l700 351v-702z" />
    <glyph glyph-name="uni25C5" unicode="&#x25c5;" horiz-adv-x="918" 
d="M847 374l-700 -351v702zM720 374l-516 259v-518z" />
    <glyph glyph-name="uni25C6" unicode="&#x25c6;" horiz-adv-x="928" 
d="M79 365l385 386l385 -386l-385 -386z" />
    <glyph glyph-name="uni25C7" unicode="&#x25c7;" horiz-adv-x="928" 
d="M79 365l385 386l385 -386l-385 -386zM464 56l308 309l-308 309l-308 -309z" />
    <glyph glyph-name="lozenge" unicode="&#x25ca;" horiz-adv-x="628" 
d="M66 350l225 346h46l225 -346l-225 -347h-46zM280 117l34 -53l34 53l152 233l-152 232l-34 54l-34 -54l-152 -232z" />
    <glyph glyph-name="circle" unicode="&#x25cb;" horiz-adv-x="1031" 
d="M292.5 -29q-97.5 54 -152 150.5t-54.5 217.5t54.5 217.5t152 150.5t222.5 54q126 0 223.5 -54t151.5 -150.5t54 -217.5t-54 -217.5t-151.5 -150.5t-223.5 -54q-125 0 -222.5 54zM189.5 149.5q46.5 -83.5 131 -130.5t194.5 -47t194.5 47t131 130.5t46.5 189.5t-46.5 189.5
t-131 130.5t-194.5 47t-194.5 -47t-131 -130.5t-46.5 -189.5t46.5 -189.5z" />
    <glyph glyph-name="uni25CF" unicode="&#x25cf;" horiz-adv-x="1031" 
d="M292.5 -29q-97.5 54 -152 150.5t-54.5 217.5t54.5 217.5t152 150.5t222.5 54q126 0 223.5 -54t151.5 -150.5t54 -217.5t-54 -217.5t-151.5 -150.5t-223.5 -54q-125 0 -222.5 54z" />
    <glyph glyph-name="uni261A" unicode="&#x261a;" horiz-adv-x="1246" 
d="M504 45v3q20 20 20 46q0 30 -27 53v5q27 24 27 58q0 18 -7.5 34t-20.5 25v4q28 21 28 60q0 34 -22.5 58.5t-65.5 24.5h-304q-20 0 -32 9t-12 25t12 24.5t32 8.5h415v-20q0 -44 24 -66t67 -22h26v43h-21q-53 0 -53 57v63h-166q-45 0 -64 12.5t-19 43.5v33h318
q68 0 101.5 -33t33.5 -106v-316q0 -70 -34 -98.5t-99 -28.5h-157zM252 352.5q12 8.5 32 8.5h142q20 0 32.5 -8.5t12.5 -25.5q0 -16 -12.5 -24.5t-32.5 -8.5h-142q-20 0 -32 8.5t-12 24.5q0 17 12 25.5zM268 231.5q12 8.5 32 8.5h126q20 0 32.5 -8.5t12.5 -25.5
q0 -16 -12.5 -24.5t-32.5 -8.5h-126q-20 0 -32 8.5t-12 24.5q0 17 12 25.5zM311 109.5q12 8.5 32 8.5h83q20 0 32.5 -8.5t12.5 -25.5q0 -16 -12.5 -24.5t-32.5 -8.5h-83q-20 0 -32 8.5t-12 24.5q0 17 12 25.5zM850 631h226v-587h-226v587z" />
    <glyph glyph-name="uni261B" unicode="&#x261b;" horiz-adv-x="1246" 
d="M486 73.5q-34 28.5 -34 98.5v316q0 73 33.5 106t101.5 33h318v-33q0 -31 -19 -43.5t-64 -12.5h-166v-63q0 -57 -53 -57h-21v-43h26q43 0 67 22t24 66v20h415q20 0 32 -8.5t12 -24.5t-12 -25t-32 -9h-304q-43 0 -65.5 -24.5t-22.5 -58.5q0 -39 28 -60v-4q-13 -9 -20.5 -25
t-7.5 -34q0 -34 27 -58v-5q-27 -23 -27 -53q0 -26 20 -46v-3h-157q-65 0 -99 28.5zM170 631h226v-587h-226v587zM787.5 109.5q12.5 8.5 32.5 8.5h83q20 0 32 -8.5t12 -25.5q0 -16 -12 -24.5t-32 -8.5h-83q-20 0 -32.5 8.5t-12.5 24.5q0 17 12.5 25.5zM787.5 231.5
q12.5 8.5 32.5 8.5h126q20 0 32 -8.5t12 -25.5q0 -16 -12 -24.5t-32 -8.5h-126q-20 0 -32.5 8.5t-12.5 24.5q0 17 12.5 25.5zM787.5 352.5q12.5 8.5 32.5 8.5h142q20 0 32 -8.5t12 -25.5q0 -16 -12 -24.5t-32 -8.5h-142q-20 0 -32.5 8.5t-12.5 24.5q0 17 12.5 25.5z" />
    <glyph glyph-name="uni261C" unicode="&#x261c;" horiz-adv-x="1196" 
d="M810 58v67q-19 -28 -51 -45.5t-73 -17.5h-311q-28 0 -48 20t-20 49q0 22 13 38q-22 7 -34 24.5t-12 37.5q0 12 4.5 23t11.5 18q-22 7 -34 23.5t-12 38.5q0 18 12 33h-97q-31 0 -51.5 19.5t-20.5 48.5t20.5 48.5t51.5 19.5h218q-29 22 -29 72v32h338q83 0 124 -62v64h216
v-551h-216zM133 411.5q10 -9.5 25 -9.5h310q30 0 50 -20t20 -48q0 -16 -6.5 -29.5t-19.5 -21.5q12 -9 18 -22t6 -28q0 -35 -27 -52q27 -17 27 -49q0 -19 -12 -34h162q54 0 89 35.5t35 88.5v224q0 56 -35.5 90.5t-88.5 34.5h-302q0 -31 17 -49.5t51 -18.5h147v-45
q0 -36 17 -56t60 -20h23v-34h-25q-54 0 -81.5 27t-27.5 73v20h-407q-15 0 -25 -9.5t-10 -23.5t10 -23.5zM290 310.5q10 -9.5 25 -9.5h153q15 0 25 9.5t10 23.5t-10 23.5t-25 9.5h-153q-15 0 -25 -9.5t-10 -23.5t10 -23.5zM319 208.5q10 -9.5 25 -9.5h121q16 0 26 9.5
t10 24.5q0 14 -10 23t-26 9h-121q-15 0 -25 -9t-10 -23q0 -15 10 -24.5zM351.5 107.5q10.5 -9.5 25.5 -9.5h88q16 0 26 9.5t10 23.5t-10 23.5t-26 9.5h-88q-14 0 -25 -10t-11 -23q0 -14 10.5 -23.5zM991 94v479h-146v-479h146z" />
    <glyph glyph-name="uni261D" unicode="&#x261d;" horiz-adv-x="890" 
d="M170 -176v216h64q-62 41 -62 124v338h32q50 0 72 -29v218q0 31 19.5 51.5t48.5 20.5t48.5 -20.5t19.5 -51.5v-97q15 12 33 12q22 0 38.5 -12t23.5 -34q7 7 18 11.5t23 4.5q20 0 37.5 -12t24.5 -34q16 13 38 13q29 0 49 -20t20 -48v-311q0 -41 -17.5 -73t-45.5 -51h67
v-216h-551zM685 -141v146h-479v-146h479zM242.5 75.5q34.5 -35.5 90.5 -35.5h224q53 0 88.5 35t35.5 89v162q-15 -12 -34 -12q-32 0 -49 27q-17 -27 -52 -27q-15 0 -28 6t-22 18q-8 -13 -21.5 -19.5t-29.5 -6.5q-28 0 -48 20t-20 50v310q0 15 -9.5 25t-23.5 10t-23.5 -10
t-9.5 -25v-407h20q46 0 73 -27.5t27 -81.5v-25h-34v23q0 43 -20 60t-56 17h-45v147q0 34 -18.5 51t-49.5 17v-302q0 -53 34.5 -88.5zM421.5 357q9.5 -10 23.5 -10t23.5 10t9.5 25v153q0 15 -9.5 25t-23.5 10t-23.5 -10t-9.5 -25v-153q0 -15 9.5 -25zM523 359q9 -10 23 -10
q15 0 24.5 10t9.5 26v121q0 15 -9.5 25t-24.5 10q-14 0 -23 -10t-9 -25v-121q0 -16 9 -26zM624.5 359q9.5 -10 23.5 -10t23.5 10t9.5 26v88q0 15 -9.5 25.5t-23.5 10.5q-13 0 -23 -11t-10 -25v-88q0 -16 9.5 -26z" />
    <glyph glyph-name="uni261E" unicode="&#x261e;" horiz-adv-x="1196" 
d="M170 609h216v-64q41 62 124 62h338v-32q0 -50 -29 -72h218q31 0 51.5 -19.5t20.5 -48.5t-20.5 -48.5t-51.5 -19.5h-97q12 -15 12 -33q0 -22 -12 -38.5t-34 -23.5q7 -7 11.5 -18t4.5 -23q0 -20 -12 -37.5t-34 -24.5q13 -16 13 -38q0 -29 -20 -49t-48 -20h-311
q-41 0 -73 17.5t-51 45.5v-67h-216v551zM351 94v479h-146v-479h146zM421 133.5q35 -35.5 89 -35.5h162q-12 15 -12 34q0 32 27 49q-27 17 -27 52q0 15 6 28t18 22q-13 8 -19.5 21.5t-6.5 29.5q0 28 20 48t50 20h310q15 0 25 9.5t10 23.5t-10 23.5t-25 9.5h-407v-20
q0 -46 -27.5 -73t-81.5 -27h-25v34h23q43 0 60 20t17 56v45h147q34 0 51 18.5t17 49.5h-302q-53 0 -88.5 -34.5t-35.5 -90.5v-224q0 -53 35 -88.5zM703 310.5q10 -9.5 25 -9.5h153q15 0 25 9.5t10 23.5t-10 23.5t-25 9.5h-153q-15 0 -25 -9.5t-10 -23.5t10 -23.5zM705 107.5
q10 -9.5 26 -9.5h88q15 0 25.5 9.5t10.5 23.5q0 13 -11 23t-25 10h-88q-16 0 -26 -9.5t-10 -23.5t10 -23.5zM705 208.5q10 -9.5 26 -9.5h121q15 0 25 9.5t10 24.5q0 14 -10 23t-25 9h-121q-16 0 -26 -9t-10 -23q0 -15 10 -24.5z" />
    <glyph glyph-name="uni261F" unicode="&#x261f;" horiz-adv-x="890" 
d="M721 529h-67q28 -19 45.5 -51t17.5 -73v-311q0 -28 -20 -48t-49 -20q-22 0 -38 13q-7 -22 -24.5 -34t-37.5 -12q-12 0 -23 4.5t-18 11.5q-7 -22 -23.5 -34t-38.5 -12q-18 0 -33 12v-97q0 -31 -19.5 -51.5t-48.5 -20.5t-48.5 20.5t-19.5 51.5v218q-22 -29 -72 -29h-32v338
q0 83 62 124h-64v216h551v-216zM685 564v146h-479v-146h479zM257.5 120q18.5 17 18.5 51v147h45q36 0 56 17t20 60v23h34v-25q0 -54 -27 -81.5t-73 -27.5h-20v-407q0 -15 9.5 -25t23.5 -10t23.5 10t9.5 25v310q0 30 20 50t48 20q16 0 29.5 -6.5t21.5 -19.5q9 12 22 18t28 6
q35 0 52 -27q17 27 49 27q19 0 34 -12v162q0 54 -35.5 89t-88.5 35h-224q-56 0 -90.5 -35.5t-34.5 -88.5v-302q31 0 49.5 17zM421.5 9q9.5 -10 23.5 -10t23.5 10t9.5 25v153q0 15 -9.5 25t-23.5 10t-23.5 -10t-9.5 -25v-153q0 -15 9.5 -25zM523 38q9 -10 23 -10
q15 0 24.5 10t9.5 25v121q0 16 -9.5 26t-24.5 10q-14 0 -23 -10t-9 -26v-121q0 -15 9 -25zM625 71q10 -11 23 -11q14 0 23.5 10.5t9.5 25.5v88q0 16 -9.5 26t-23.5 10t-23.5 -10t-9.5 -26v-88q0 -14 10 -25z" />
    <glyph glyph-name="uni2661" unicode="&#x2661;" horiz-adv-x="890" 
d="M85 499q0 53 24.5 95t67.5 65.5t98 23.5q50 0 94 -21t76 -58q32 37 76 58t94 21q55 0 98.5 -23.5t68 -65.5t24.5 -95q0 -105 -102 -209l-259 -267l-259 267q-101 104 -101 209zM163 415q21 -41 65 -87l217 -224l217 224q43 44 64.5 85.5t21.5 83.5q0 58 -37.5 94
t-98.5 36q-95 0 -167 -101q-72 101 -166 101q-61 0 -99 -36t-38 -94q0 -41 21 -82z" />
    <glyph glyph-name="heart" unicode="&#x2665;" horiz-adv-x="890" 
d="M85 499q0 53 24.5 95t67.5 65.5t98 23.5q50 0 94 -21t76 -58q32 37 76 58t94 21q55 0 98.5 -23.5t68 -65.5t24.5 -95q0 -105 -102 -209l-259 -267l-259 267q-101 104 -101 209z" />
    <glyph glyph-name="uni2690" unicode="&#x2690;" horiz-adv-x="986" 
d="M170 771h55v-112q55 13 105 13q48 0 92.5 -11t101.5 -34q54 -22 99 -33t94 -11q60 0 135 19v-471q-75 -19 -138 -19q-55 0 -105.5 12t-105.5 34q-51 21 -91 30.5t-83 9.5q-42 0 -103 -11v-293h-56v877zM328 250q51 0 96.5 -11.5t101.5 -33.5q50 -20 94 -30.5t91 -10.5
q40 0 85 9v363q-34 -5 -75 -5q-59 0 -111 13t-114 37q-49 19 -88 28.5t-79 9.5q-51 0 -103 -15v-365q52 11 102 11z" />
    <glyph glyph-name="uni2691" unicode="&#x2691;" horiz-adv-x="986" 
d="M170 770h55v-111q57 12 103 12q48 0 93.5 -11t102.5 -34q55 -21 100 -32t93 -11q59 0 135 19v-472q-69 -18 -136 -18q-56 0 -107 12t-106 34q-52 20 -91.5 29.5t-81.5 9.5q-49 0 -104 -11v-293h-56v877z" />
    <glyph glyph-name="uni26A0" unicode="&#x26a0;" horiz-adv-x="1020" 
d="M510 816l411 -816h-822zM483.5 67q11.5 -11 28.5 -11t28 11t11 27t-11 27t-28 11t-28.5 -11t-11.5 -27t11.5 -27zM488 193h43l2 370h-46z" />
    <glyph glyph-name="uni2713" unicode="&#x2713;" horiz-adv-x="872" 
d="M79 347l39 37l202 -211l429 443l38 -38l-468 -482z" />
    <glyph glyph-name="uni2717" unicode="&#x2717;" horiz-adv-x="718" 
d="M97 134l224 225l-225 225l38 38l225 -225l224 225l38 -38l-224 -225l224 -225l-38 -38l-224 225l-224 -225z" />
    <glyph glyph-name="uni2776" unicode="&#x2776;" horiz-adv-x="1031" 
d="M292.5 -29q-97.5 54 -152 150.5t-54.5 217.5t54.5 217.5t152 150.5t222.5 54q126 0 223.5 -54t151.5 -150.5t54 -217.5t-54 -217.5t-151.5 -150.5t-223.5 -54q-125 0 -222.5 54zM500 413v-249h50v350h-39l-3 -27q-4 -19 -13.5 -24t-25.5 -5h-47v-45h78z" />
    <glyph glyph-name="uni2777" unicode="&#x2777;" horiz-adv-x="1031" 
d="M292.5 -29q-97.5 54 -152 150.5t-54.5 217.5t54.5 217.5t152 150.5t222.5 54q126 0 223.5 -54t151.5 -150.5t54 -217.5t-54 -217.5t-151.5 -150.5t-223.5 -54q-125 0 -222.5 54zM643 164v45h-172l98 91q32 30 48 55.5t16 57.5q0 47 -32.5 77t-83.5 30q-52 0 -85 -31
t-34 -84h47q1 33 20.5 52t49.5 19q31 0 49.5 -18t18.5 -47q0 -21 -11 -39t-32 -37l-149 -134v-37h252z" />
    <glyph glyph-name="uni2778" unicode="&#x2778;" horiz-adv-x="1031" 
d="M292.5 -29q-97.5 54 -152 150.5t-54.5 217.5t54.5 217.5t152 150.5t222.5 54q126 0 223.5 -54t151.5 -150.5t54 -217.5t-54 -217.5t-151.5 -150.5t-223.5 -54q-125 0 -222.5 54zM430.5 186.5q33.5 -28.5 86.5 -28.5q54 0 88 31t34 79q0 46 -30 75t-75 29h-11l101 107v35
h-221v-43h154l-94 -102v-31h54q32 0 52.5 -19t20.5 -48q0 -31 -20.5 -49.5t-53.5 -18.5q-31 0 -50.5 16.5t-21.5 44.5h-49q2 -49 35.5 -77.5z" />
    <glyph glyph-name="uni2779" unicode="&#x2779;" horiz-adv-x="1031" 
d="M292.5 -29q-97.5 54 -152 150.5t-54.5 217.5t54.5 217.5t152 150.5t222.5 54q126 0 223.5 -54t151.5 -150.5t54 -217.5t-54 -217.5t-151.5 -150.5t-223.5 -54q-125 0 -222.5 54zM544 238v-74h50v74h47v44h-47v108h-40l-8 -109h-122l118 233h-55l-123 -242v-34h180z" />
    <glyph glyph-name="uni277A" unicode="&#x277a;" horiz-adv-x="1031" 
d="M292.5 -29q-97.5 54 -152 150.5t-54.5 217.5t54.5 217.5t152 150.5t222.5 54q126 0 223.5 -54t151.5 -150.5t54 -217.5t-54 -217.5t-151.5 -150.5t-223.5 -54q-125 0 -222.5 54zM430 187q33 -29 87 -29q55 0 88.5 30.5t33.5 80.5q0 49 -31.5 79.5t-82.5 30.5h-70l9 91
h155v44h-198l-18 -174h113q33 0 53.5 -19t20.5 -49q0 -31 -20.5 -50t-53.5 -19q-31 0 -50.5 16.5t-21.5 44.5h-49q2 -48 35 -77z" />
    <glyph glyph-name="uni277B" unicode="&#x277b;" horiz-adv-x="1031" 
d="M292.5 -29.5q-97.5 53.5 -152 149.5t-54.5 219t54.5 219t152 149.5t222.5 53.5t222.5 -53.5t152 -149.5t54.5 -219t-54.5 -219t-152 -149.5t-222.5 -53.5t-222.5 53.5zM422 191.5q36 -33.5 93 -33.5q56 0 92.5 34t36.5 86q0 51 -34 84.5t-85 33.5q-23 0 -38 -7l83 125
h-57l-97 -146q-16 -26 -23 -46.5t-7 -43.5q0 -53 36 -86.5zM457 333.5q23 21.5 58 21.5t57.5 -21.5t22.5 -55.5t-22.5 -55.5t-57.5 -21.5t-58 21.5t-23 55.5t23 55.5z" />
    <glyph glyph-name="uni277C" unicode="&#x277c;" horiz-adv-x="1031" 
d="M292.5 -29q-97.5 54 -152 150.5t-54.5 217.5t54.5 217.5t152 150.5t222.5 54q126 0 223.5 -54t151.5 -150.5t54 -217.5t-54 -217.5t-151.5 -150.5t-223.5 -54q-125 0 -222.5 54zM575 470l-130 -306h53l133 315v35h-230v-44h174z" />
    <glyph glyph-name="uni277D" unicode="&#x277d;" horiz-adv-x="1031" 
d="M422 185q-35 27 -35 72q0 31 17 54t47 34q-26 11 -40.5 32t-14.5 48q0 42 33 68.5t86 26.5t86.5 -26.5t33.5 -68.5q0 -27 -15 -48t-40 -32q30 -11 47 -34.5t17 -53.5q0 -45 -35 -72t-94 -27q-58 0 -93 27zM140.5 121.5q54.5 -96.5 152 -150.5t222.5 -54q126 0 223.5 54
t151.5 150.5t54 217.5t-54 217.5t-151.5 150.5t-223.5 54q-125 0 -222.5 -54t-152 -150.5t-54.5 -217.5t54.5 -217.5zM457.5 214q22.5 -18 57.5 -18q36 0 58 17.5t22 46.5t-22 46.5t-58 17.5q-35 0 -57.5 -18t-22.5 -46t22.5 -46zM462 377.5q21 -17.5 53 -17.5
q33 0 53.5 17.5t20.5 44.5t-20.5 44t-53.5 17q-32 0 -53 -17t-21 -44t21 -44.5z" />
    <glyph glyph-name="uni277E" unicode="&#x277e;" horiz-adv-x="1031" 
d="M738.5 707.5q97.5 -53.5 152 -149.5t54.5 -219t-54.5 -219t-152 -149.5t-222.5 -53.5t-222.5 53.5t-152 149.5t-54.5 219t54.5 219t152 149.5t222.5 53.5t222.5 -53.5zM421 315.5q34 -33.5 85 -33.5q23 0 38 7l-83 -125h57l97 146q16 26 23 46.5t7 43.5q0 53 -36 86.5
t-93 33.5q-56 0 -92.5 -34t-36.5 -86q0 -51 34 -84.5zM458.5 455.5q22.5 21.5 57.5 21.5t58 -21.5t23 -55.5t-23 -55.5t-58 -21.5t-57.5 21.5t-22.5 55.5t22.5 55.5z" />
    <glyph glyph-name="uni277F" unicode="&#x277f;" horiz-adv-x="1031" 
d="M356 413h-78v45h47q17 0 26.5 5t12.5 24l3 27h39v-350h-50v249zM140.5 121.5q54.5 -96.5 152 -150.5t222.5 -54q126 0 223.5 54t151.5 150.5t54 217.5t-54 217.5t-151.5 150.5t-223.5 54q-125 0 -222.5 -54t-152 -150.5t-54.5 -217.5t54.5 -217.5zM519.5 471.5
q38.5 48.5 103.5 48.5t103 -48.5t38 -132.5t-38 -132.5t-103 -48.5t-103.5 48.5t-38.5 132.5t38.5 132.5zM555.5 239.5q24.5 -35.5 67.5 -35.5t67 35.5t24 99.5t-24 99.5t-67 35.5t-67.5 -35.5t-24.5 -99.5t24.5 -99.5z" />
    <glyph glyph-name="uni27F5" unicode="&#x27f5;" horiz-adv-x="1286" 
d="M93 352l266 265h76l-240 -238h998v-54h-998l240 -238h-76z" />
    <glyph glyph-name="uni27F6" unicode="&#x27f6;" horiz-adv-x="1286" 
d="M851 87l240 238h-998v54h998l-240 238h76l266 -265l-266 -265h-76z" />
    <glyph glyph-name="uni2B06" unicode="&#x2b06;" horiz-adv-x="869" 
d="M283 284h-190l342 424l342 -424h-190v-284h-304v284z" />
    <glyph glyph-name="uniF8FF" unicode="&#xf8ff;" horiz-adv-x="1446" 
d="M106.5 150.5q-14.5 14.5 -14.5 41.5v135h-47v37h47v64h39v-64h156v47q0 27 14.5 41t41.5 14h61v-37h-77v-65h110l59 -165l64 165h37l65 -167l59 167h43l-82 -228h-39l-64 169l-64 -169h-40l-67 191h-81v-191h-40v191h-156v-154h78v-37h-61q-27 0 -41.5 14.5zM821 336
q32 34 82 34q25 0 47 -10t37 -27v117h39v-314h-32l-5 32q-33 -38 -86 -38q-50 0 -82 33.5t-32 86.5q0 52 32 86zM850.5 190q22.5 -23 57.5 -23t57.5 23t22.5 60t-22 59.5t-58 22.5t-58 -22.5t-22 -59.5t22.5 -60zM1124 359l128 -88v88l149 -102l-149 -103v89l-128 -89v205z
" />
    <glyph glyph-name="uni004A0301" horiz-adv-x="479" 
d="M47 58h101q83 0 121.5 41.5t38.5 121.5v479h60v-482q0 -104 -55.5 -161t-164.5 -57h-101v58zM368 906h62l-70 -136h-54z" />
    <glyph glyph-name="Oslash.bold" horiz-adv-x="850" 
d="M192 63q-61 50 -94.5 123.5t-33.5 163.5q0 106 46 188.5t128 128.5t187 46q102 0 184 -44l49 70h71l-71 -102q61 -50 94.5 -123.5t33.5 -163.5q0 -106 -45.5 -188.5t-127.5 -128.5t-188 -46q-102 0 -184 44l-49 -70h-71zM164 193q38 -69 105.5 -107t155.5 -38t156 38
t106 106.5t38 157.5t-38 157.5t-106 106.5t-156 38t-155.5 -38t-105.5 -106.5t-38 -157.5q0 -88 38 -157z" />
    <glyph glyph-name="Oslashacute.bold" horiz-adv-x="850" 
d="M192 63q-61 50 -94.5 123.5t-33.5 163.5q0 106 46 188.5t128 128.5t187 46q102 0 184 -44l49 70h71l-71 -102q61 -50 94.5 -123.5t33.5 -163.5q0 -106 -45.5 -188.5t-127.5 -128.5t-188 -46q-102 0 -184 44l-49 -70h-71zM164 193q38 -69 105.5 -107t155.5 -38t156 38
t106 106.5t38 157.5t-38 157.5t-106 106.5t-156 38t-155.5 -38t-105.5 -106.5t-38 -157.5q0 -88 38 -157zM454 906h62l-70 -136h-55z" />
    <glyph glyph-name="K.ss01" horiz-adv-x="676" 
d="M321 328h-147v-328h-61v700h61v-314h150l218 314h71l-240 -342l257 -358h-73z" />
    <glyph glyph-name="uni0136.ss01" horiz-adv-x="676" 
d="M321 328h-147v-328h-61v700h61v-314h150l218 314h71l-240 -342l257 -358h-73zM301.5 -83q13.5 13 34.5 13q27 0 44 -21t17 -56q0 -48 -24.5 -86t-61.5 -46v34q23 11 35.5 36t10.5 54q-12 -6 -25 -6q-19 0 -31.5 13t-12.5 32q0 20 13.5 33z" />
    <glyph glyph-name="Q.ss01" horiz-adv-x="850" 
d="M238 33q-82 46 -128 128.5t-46 188.5t46 188.5t128 128.5t187 46q106 0 188 -46t127.5 -128.5t45.5 -188.5q0 -102 -42.5 -182.5t-118.5 -127.5l88 -133h-68l-71 108q-68 -28 -149 -28q-105 0 -187 46zM164 193q38 -69 105.5 -107t155.5 -38q60 0 114 19l-128 195h66
l113 -171q64 39 99.5 106t35.5 153q0 89 -38 157.5t-106 106.5t-156 38t-155.5 -38t-105.5 -106.5t-38 -157.5q0 -88 38 -157z" />
    <glyph glyph-name="uni1E9E.ss01" horiz-adv-x="704" 
d="M113 700h475v-47l-175 -233h4q104 0 165.5 -57t61.5 -153t-61.5 -153t-165.5 -57h-114v57h112q76 0 121 41.5t45 112.5t-45 112t-121 41h-78v47l175 231h-338v-642h-61v700z" />
    <glyph glyph-name="Q.ss01.bold" horiz-adv-x="850" 
d="M238 33q-82 46 -128 128.5t-46 188.5t46 188.5t128 128.5t187 46q106 0 188 -46t127.5 -128.5t45.5 -188.5q0 -102 -42.5 -182.5t-118.5 -127.5l88 -133h-68l-71 108q-68 -28 -149 -28q-105 0 -187 46zM164 193q38 -69 105.5 -107t155.5 -38t156 38t106 106.5t38 157.5
t-38 157.5t-106 106.5t-156 38t-155.5 -38t-105.5 -106.5t-38 -157.5q0 -88 38 -157z" />
    <glyph glyph-name="i.loclTRK" horiz-adv-x="264" 
d="M103 517h58v-517h-58v517zM93.5 701q14.5 15 38.5 15t38.5 -15t14.5 -37q0 -23 -14.5 -38t-38.5 -15t-38.5 15t-14.5 38q0 22 14.5 37z" />
    <glyph glyph-name="uni006A0301" horiz-adv-x="265" 
d="M-44 -148h49q56 0 77.5 23t21.5 87v555h58v-556q0 -87 -35 -125.5t-119 -38.5h-52v55zM140 754h65l-51 -151h-53z" />
    <glyph glyph-name="eth.bold" horiz-adv-x="664" 
d="M189 21q-62 34 -96.5 95t-34.5 139q0 77 34 138t94.5 95.5t137.5 34.5q67 0 120.5 -28.5t84.5 -79.5q-27 117 -132 196t-278 96v57q141 -19 239 -69l172 73v-54l-116 -51q185 -124 185 -383q0 -92 -34 -158t-95 -100.5t-140 -34.5t-141 34zM143 145.5q27 -48.5 75 -75.5
t110 -27q61 0 109 27t75 75.5t27 109.5t-27 109.5t-75 75.5t-109 27q-62 0 -110 -27t-75 -75.5t-27 -109.5t27 -109.5z" />
    <glyph glyph-name="oslash.bold" horiz-adv-x="659" 
d="M150 49q-44 37 -68 91t-24 119q0 78 35 140t97 96.5t140 34.5q73 0 133 -31l39 56h68l-61 -87q43 -37 67.5 -91t24.5 -118q0 -78 -34.5 -140t-96.5 -97t-140 -35q-74 0 -134 31l-39 -55h-68zM143 147q27 -49 75.5 -76.5t111.5 -27.5q62 0 110.5 27.5t75.5 76.5t27 112
t-27 112t-75.5 76t-110.5 27q-63 0 -111.5 -27t-75.5 -76t-27 -112t27 -112z" />
    </font>
</defs>
</svg>
